SplineFontDB: 3.2
FontName: seti
FullName: seti
FamilyName: seti
Weight: Book
Copyright: \n		Created by FontForge 20150824 at Mon Oct 31 19:06:49 2016 By Everything FontsCreated by FontForge 20150824 at Tue Sep 20 19:36:52 2016 By Everything FontsCreated by FontForge 20150824 at Tue Sep 20 01:45:45 2016 By Everything Fonts\n	
Version: 1.0
ItalicAngle: 0
UnderlinePosition: 5
UnderlineWidth: 0
Ascent: 516
Descent: 0
InvalidEm: 0
sfntRevision: 0x00010000
LayerCount: 2
Layer: 0 1 "Back" 1
Layer: 1 1 "Fore" 0
XUID: [1021 935 47442574 15286496]
StyleMap: 0x0040
FSType: 0
OS2Version: 1
OS2_WeightWidthSlopeOnly: 0
OS2_UseTypoMetrics: 0
CreationTime: 1477966186
ModificationTime: 1681774728
PfmFamily: 17
TTFWeight: 400
TTFWidth: 5
LineGap: 0
VLineGap: 0
Panose: 2 0 5 3 0 0 0 0 0 0
OS2TypoAscent: 516
OS2TypoAOffset: 0
OS2TypoDescent: 0
OS2TypoDOffset: 0
OS2TypoLinegap: 46
OS2WinAscent: 516
OS2WinAOffset: 0
OS2WinDescent: 0
OS2WinDOffset: 0
HheadAscent: 516
HheadAOffset: 0
HheadDescent: 0
HheadDOffset: 0
OS2SubXSize: 327
OS2SubYSize: 361
OS2SubXOff: 0
OS2SubYOff: 72
OS2SupXSize: 327
OS2SupYSize: 361
OS2SupXOff: 0
OS2SupYOff: 247
OS2StrikeYSize: 25
OS2StrikeYPos: 133
OS2Vendor: 'PfEd'
OS2CodePages: 00000001.00000000
OS2UnicodeRanges: 00000000.00000000.00000000.00000000
Lookup: 4 0 1 "'liga' Standard Ligatures in Latin lookup 0" { "'liga' Standard Ligatures in Latin lookup 0 subtable"  } [' RQD' ('DFLT' <'dflt' > 'latn' <'dflt' > ) 'liga' ('DFLT' <'dflt' > 'latn' <'dflt' > ) ]
DEI: 91125
ShortTable: maxp 16
  1
  0
  127
  2164
  207
  0
  0
  2
  0
  10
  10
  0
  255
  0
  0
  0
EndShort
LangName: 1033 "" "" "Regular" "seti" "" "Version 1.0" "" "" "" "" "Generated by svg2ttf from Fontello project." "http://fontello.com"
Encoding: UnicodeFull
UnicodeInterp: none
NameList: AGL For New Fonts
DisplaySize: -48
AntiAlias: 1
FitToEm: 0
WinInfo: 57304 29 11
BeginChars: 1114113 132

StartChar: ai
Encoding: 57345 57345 1
Width: 516
GlyphClass: 1
Flags: W
LayerCount: 2
Fore
SplineSet
386 371 m 1,0,-1
 113 371 l 1,1,-1
 113 113 l 1,2,-1
 386 113 l 1,3,-1
 386 371 l 1,0,-1
271 184 m 2,4,-1
 256 184 l 1,5,-1
 253 184 l 1,6,-1
 251 187 l 1,7,-1
 241 221 l 2,8,9
 241 224 241 224 236 224 c 2,10,-1
 204 224 l 2,11,12
 202 224 202 224 201 223 c 2,13,-1
 199 221 l 1,14,-1
 190 187 l 2,15,16
 190 184 190 184 187 184 c 2,17,-1
 170 184 l 2,18,19
 167 184 167 184 167 187 c 2,20,-1
 204 316 l 1,21,-1
 206 319 l 2,22,23
 207 320 207 320 209 319 c 2,24,-1
 231 319 l 2,25,26
 234 319 234 319 234 316 c 2,27,-1
 274 185 l 2,28,29
 274 184 274 184 271 184 c 2,4,-1
316 192 m 0,30,31
 316 186 316 186 315 185 c 128,-1,32
 314 184 314 184 308 184 c 2,33,-1
 298 184 l 2,34,35
 296 184 296 184 295.5 184.5 c 128,-1,36
 295 185 295 185 295 187 c 2,37,-1
 295 286 l 2,38,39
 295 288 295 288 296 289 c 128,-1,40
 297 290 297 290 298 288 c 2,41,-1
 312 288 l 2,42,43
 315 288 315 288 315 286 c 0,44,45
 316 254 316 254 316 192 c 0,30,31
305 300 m 0,46,47
 301 300 301 300 297 302.5 c 128,-1,48
 293 305 293 305 293 310 c 128,-1,49
 293 315 293 315 296.5 318.5 c 128,-1,50
 300 322 300 322 305 322 c 128,-1,51
 310 322 310 322 314 319 c 128,-1,52
 318 316 318 316 318 312 c 0,53,54
 318 300 318 300 305 300 c 0,46,47
222 290 m 0,55,56
 222 291 222 291 221 291 c 128,-1,57
 220 291 220 291 219 290 c 2,58,-1
 217 286 l 1,59,60
 212 258 212 258 207 246 c 0,61,62
 207 243 207 243 209 243 c 2,63,-1
 229 243 l 2,64,65
 234 243 234 243 231 246 c 0,66,67
 228 271 228 271 222 290 c 0,55,56
EndSplineSet
EndChar

StartChar: apache
Encoding: 57346 57346 2
Width: 516
GlyphClass: 1
Flags: W
LayerCount: 2
Fore
SplineSet
400 227 m 1,0,-1
 399 227 l 1,1,-1
 399 228 l 1,2,-1
 396 231 l 1,3,-1
 395 231 l 1,4,-1
 394 232 l 1,5,-1
 393 232 l 1,6,-1
 390 234 l 1,7,-1
 389 234 l 1,8,-1
 385 238 l 1,9,-1
 383 238 l 1,10,-1
 382 239 l 1,11,-1
 378 240 l 1,12,-1
 377 241 l 1,13,-1
 376 241 l 1,14,-1
 374 242 l 1,15,-1
 371 242 l 1,16,-1
 370 241 l 1,17,-1
 370 242 l 1,18,-1
 368 244 l 1,19,-1
 361 244 l 1,20,-1
 360 243 l 1,21,-1
 357 245 l 1,22,-1
 350 245 l 1,23,-1
 348 246 l 1,24,-1
 345 246 l 1,25,-1
 340 248 l 1,26,-1
 338 250 l 1,27,-1
 334 252 l 1,28,-1
 329 252 l 1,29,-1
 328 253 l 1,30,-1
 324 253 l 1,31,-1
 323 254 l 1,32,-1
 319 254 l 1,33,-1
 313 256 l 1,34,-1
 310 256 l 1,35,-1
 307 258 l 1,36,-1
 304 259 l 1,37,-1
 302 259 l 1,38,-1
 298 260 l 1,39,-1
 294 260 l 1,40,-1
 292 261 l 1,41,-1
 290 263 l 1,42,-1
 278 263 l 1,43,-1
 271 265 l 1,44,-1
 262 265 l 1,45,-1
 256 267 l 1,46,-1
 252 267 l 1,47,-1
 249 269 l 1,48,-1
 244 269 l 1,49,-1
 242 271 l 1,50,-1
 238 272 l 1,51,-1
 233 274 l 1,52,-1
 230 273 l 1,53,-1
 228 275 l 1,54,-1
 224 275 l 1,55,-1
 221 277 l 1,56,-1
 219 277 l 1,57,-1
 216 278 l 1,58,-1
 216 277 l 1,59,-1
 209 280 l 1,60,-1
 207 280 l 1,61,-1
 204 282 l 1,62,-1
 199 282 l 1,63,-1
 197 284 l 1,64,-1
 195 284 l 1,65,-1
 193 285 l 1,66,-1
 191 285 l 1,67,-1
 188 284 l 1,68,-1
 183 286 l 1,69,-1
 181 286 l 1,70,-1
 177 288 l 1,71,-1
 173 288 l 1,72,-1
 172 287 l 1,73,-1
 170 288 l 1,74,-1
 169 290 l 1,75,-1
 165 290 l 1,76,-1
 164 289 l 1,77,-1
 163 290 l 1,78,-1
 158 290 l 1,79,-1
 157 289 l 1,80,-1
 155 290 l 1,81,-1
 153 289 l 1,82,-1
 151 289 l 1,83,-1
 149 288 l 1,84,-1
 147 284 l 1,85,-1
 147 283 l 1,86,-1
 146 281 l 1,87,-1
 146 270 l 1,88,-1
 143 271 l 1,89,-1
 143 274 l 1,90,-1
 144 279 l 1,91,-1
 143 284 l 1,92,-1
 143 289 l 1,93,-1
 144 291 l 1,94,-1
 144 292 l 1,95,-1
 141 289 l 1,96,-1
 141 290 l 1,97,-1
 140 290 l 1,98,-1
 139 291 l 1,99,-1
 140 287 l 1,100,-1
 139 286 l 1,101,-1
 139 285 l 1,102,-1
 138 288 l 1,103,-1
 138 295 l 1,104,-1
 139 297 l 1,105,-1
 138 296 l 1,106,-1
 136 292 l 1,107,-1
 136 286 l 1,108,-1
 137 283 l 1,109,-1
 136 283 l 1,110,-1
 132 290 l 1,111,-1
 132 293 l 1,112,-1
 129 289 l 1,113,-1
 129 288 l 1,114,-1
 130 287 l 1,115,-1
 130 285 l 1,116,-1
 132 282 l 1,117,-1
 130 282 l 1,118,-1
 129 283 l 1,119,-1
 134 280 l 1,120,-1
 137 276 l 1,121,-1
 141 272 l 1,122,123
 120 280 120 280 93 293 c 1,124,125
 95 290 95 290 99 287 c 2,126,-1
 108 281 l 2,127,128
 114 278 114 278 116 276 c 0,129,130
 124 272 124 272 138 267 c 1,131,-1
 136 266 l 1,132,-1
 130 266 l 1,133,-1
 129 265 l 1,134,-1
 127 265 l 1,135,-1
 120 267 l 1,136,-1
 124 264 l 1,137,-1
 126 264 l 1,138,-1
 124 264 l 1,139,-1
 118 260 l 1,140,-1
 116 258 l 1,141,-1
 116 256 l 1,142,-1
 115 255 l 1,143,-1
 116 255 l 1,144,-1
 117 257 l 1,145,-1
 120 259 l 1,146,-1
 122 259 l 1,147,-1
 125 261 l 1,148,-1
 128 261 l 1,149,-1
 134 265 l 1,150,-1
 135 265 l 1,151,-1
 134 265 l 1,152,-1
 131 262 l 1,153,-1
 118 255 l 1,154,-1
 122 255 l 1,155,-1
 123 256 l 1,156,-1
 125 256 l 1,157,-1
 124 256 l 1,158,-1
 123 254 l 1,159,-1
 123 248 l 1,160,-1
 126 253 l 1,161,-1
 128 255 l 1,162,-1
 131 256 l 1,163,-1
 132 257 l 1,164,-1
 132 255 l 1,165,-1
 131 254 l 1,166,-1
 132 252 l 1,167,-1
 132 249 l 1,168,-1
 133 247 l 1,169,-1
 133 249 l 1,170,-1
 134 253 l 1,171,-1
 138 259 l 1,172,-1
 141 265 l 1,173,-1
 144 264 l 1,174,-1
 139 255 l 1,175,-1
 139 248 l 1,176,-1
 141 245 l 1,177,-1
 145 243 l 1,178,-1
 149 239 l 1,179,-1
 150 239 l 1,180,-1
 151 238 l 1,181,-1
 153 238 l 1,182,-1
 156 235 l 1,183,-1
 162 235 l 1,184,-1
 163 233 l 1,185,-1
 165 232 l 1,186,-1
 170 231 l 1,187,-1
 171 230 l 1,188,-1
 173 230 l 1,189,-1
 178 227 l 1,190,-1
 181 227 l 1,191,-1
 184 226 l 1,192,-1
 190 223 l 1,193,-1
 195 223 l 1,194,-1
 196 222 l 1,195,-1
 201 222 l 1,196,-1
 207 220 l 1,197,-1
 210 221 l 1,198,-1
 213 219 l 1,199,-1
 219 219 l 1,200,-1
 221 218 l 1,201,-1
 226 218 l 1,202,-1
 233 216 l 1,203,-1
 235 217 l 1,204,-1
 237 216 l 1,205,-1
 239 216 l 1,206,-1
 242 217 l 1,207,-1
 244 216 l 1,208,-1
 250 216 l 1,209,-1
 256 214 l 1,210,-1
 261 214 l 1,211,-1
 261 215 l 1,212,-1
 263 214 l 1,213,-1
 267 214 l 1,214,-1
 269 213 l 1,215,-1
 279 213 l 1,216,-1
 281 212 l 1,217,-1
 285 212 l 1,218,-1
 290 210 l 1,219,-1
 292 210 l 1,220,-1
 296 212 l 1,221,-1
 298 211 l 1,222,-1
 303 211 l 1,223,-1
 307 210 l 1,224,-1
 312 212 l 1,225,-1
 315 211 l 1,226,-1
 318 211 l 1,227,-1
 320 212 l 1,228,-1
 321 212 l 1,229,-1
 323 211 l 1,230,-1
 327 212 l 1,231,-1
 328 211 l 1,232,-1
 331 211 l 1,233,-1
 333 212 l 1,234,-1
 335 211 l 1,235,-1
 339 211 l 1,236,-1
 345 214 l 1,237,-1
 352 214 l 1,238,-1
 354 213 l 1,239,-1
 358 213 l 1,240,-1
 360 214 l 1,241,-1
 365 212 l 1,242,-1
 367 212 l 1,243,-1
 370 214 l 1,244,-1
 372 213 l 1,245,-1
 376 213 l 1,246,-1
 377 214 l 1,247,-1
 380 214 l 1,248,-1
 382 215 l 1,249,-1
 385 215 l 1,250,-1
 387 216 l 1,251,-1
 390 216 l 1,252,-1
 391 217 l 1,253,-1
 393 217 l 1,254,-1
 394 218 l 1,255,-1
 396 218 l 1,256,-1
 397 219 l 1,257,-1
 399 219 l 1,258,-1
 399 221 l 1,259,-1
 400 222 l 1,260,-1
 401 222 l 1,261,-1
 401 225 l 1,262,-1
 400 227 l 1,0,-1
143 271 m 1,263,264
 142 271 142 271 141 272 c 2,265,-1
 141 279 l 1,266,-1
 141 277 l 1,267,-1
 143 272 l 1,268,-1
 143 271 l 1,263,264
138 267 m 1,269,-1
 138 267 l 1,270,-1
 137 266 l 1,271,-1
 136 266 l 1,272,-1
 137 266 l 1,273,-1
 138 267 l 1,269,-1
134 263 m 1,274,-1
 135 264 l 1,275,-1
 137 266 l 1,276,-1
 138 266 l 1,277,-1
 137 266 l 1,278,-1
 140 266 l 1,279,-1
 139 265 l 1,280,-1
 134 263 l 1,274,-1
141 265 m 1,281,-1
 140 264 l 1,282,-1
 138 263 l 1,283,-1
 140 266 l 1,284,285
 140 265 140 265 141 265 c 1,286,-1
 141 265 l 1,281,-1
401 227 m 1,287,288
 391 228 391 228 358 231 c 0,289,290
 311 234 311 234 297 236 c 0,291,292
 261 239 261 239 244 242 c 0,293,294
 221 245 221 245 195 252 c 0,295,296
 175 258 175 258 148 267 c 0,297,298
 141 269 141 269 133 273 c 0,299,300
 123 276 123 276 117 280 c 2,301,-1
 100 291 l 2,302,303
 95 294 95 294 94 297 c 1,304,305
 125 282 125 282 144 274 c 0,306,307
 166 266 166 266 188 260 c 128,-1,308
 210 254 210 254 247 247 c 0,309,310
 256 245 256 245 280 242 c 0,311,312
 292 241 292 241 326 237 c 0,313,314
 357 233 357 233 371 232 c 0,315,316
 393 229 393 229 401 227 c 1,317,-1
 401 227 l 1,287,288
313 216 m 1,318,-1
 313 216 l 1,319,-1
 310 215 l 1,320,-1
 305 215 l 1,321,-1
 302 216 l 1,322,-1
 300 218 l 1,323,-1
 297 219 l 1,324,-1
 295 222 l 1,325,-1
 288 228 l 1,326,-1
 284 233 l 1,327,-1
 283 235 l 1,328,-1
 280 237 l 1,329,-1
 278 237 l 1,330,-1
 288 236 l 1,331,-1
 303 221 l 1,332,-1
 310 217 l 1,333,-1
 313 216 l 1,318,-1
322 216 m 1,334,-1
 322 216 l 1,335,-1
 313 216 l 1,336,-1
 310 217 l 1,337,-1
 304 220 l 1,338,-1
 300 224 l 1,339,-1
 298 225 l 1,340,-1
 290 235 l 1,341,-1
 288 236 l 1,342,-1
 294 236 l 1,343,-1
 296 235 l 1,344,-1
 301 235 l 1,345,-1
 304 230 l 1,346,-1
 307 227 l 1,347,-1
 309 224 l 1,348,-1
 314 219 l 1,349,-1
 317 217 l 1,350,-1
 319 217 l 1,351,-1
 320 216 l 1,352,-1
 322 216 l 1,334,-1
327 216 m 1,353,-1
 327 216 l 1,354,-1
 319 216 l 1,355,-1
 313 220 l 1,356,-1
 306 227 l 1,357,-1
 300 235 l 1,358,-1
 310 235 l 1,359,-1
 311 233 l 1,360,-1
 322 220 l 1,361,-1
 326 217 l 1,362,-1
 327 216 l 1,353,-1
333 216 m 1,363,-1
 333 216 l 1,364,-1
 328 216 l 1,365,-1
 326 217 l 1,366,-1
 310 234 l 1,367,-1
 317 234 l 1,368,-1
 327 222 l 1,369,-1
 331 218 l 1,370,-1
 333 216 l 1,363,-1
346 218 m 1,371,-1
 346 218 l 1,372,-1
 340 215 l 1,373,-1
 338 215 l 1,374,-1
 336 216 l 1,375,-1
 334 216 l 1,376,-1
 332 217 l 1,377,-1
 327 222 l 1,378,-1
 318 234 l 1,379,-1
 321 233 l 1,380,-1
 325 233 l 1,381,-1
 329 228 l 1,382,-1
 330 226 l 1,383,-1
 339 220 l 1,384,-1
 343 219 l 1,385,-1
 344 218 l 1,386,-1
 346 218 l 1,371,-1
352 219 m 1,387,-1
 352 219 l 1,388,-1
 350 218 l 1,389,-1
 346 218 l 1,390,-1
 342 219 l 1,391,-1
 340 219 l 1,392,-1
 335 222 l 1,393,-1
 326 231 l 1,394,-1
 325 233 l 1,395,-1
 334 233 l 1,396,-1
 334 232 l 1,397,-1
 337 230 l 1,398,-1
 347 221 l 1,399,-1
 351 219 l 1,400,-1
 352 219 l 1,387,-1
361 218 m 1,401,-1
 361 218 l 1,402,-1
 353 218 l 1,403,-1
 348 220 l 1,404,-1
 334 232 l 1,405,-1
 342 232 l 1,406,-1
 353 223 l 1,407,-1
 357 221 l 1,408,-1
 359 219 l 1,409,-1
 361 218 l 1,401,-1
371 218 m 1,410,-1
 371 218 l 1,411,-1
 368 216 l 1,412,-1
 366 216 l 1,413,-1
 357 220 l 1,414,-1
 346 228 l 1,415,-1
 343 231 l 1,416,-1
 342 231 l 1,417,-1
 342 232 l 1,418,-1
 347 231 l 1,419,-1
 351 231 l 1,420,-1
 353 230 l 1,421,-1
 359 225 l 1,422,-1
 362 224 l 1,423,-1
 365 221 l 1,424,-1
 369 219 l 1,425,-1
 371 218 l 1,410,-1
377 218 m 1,426,-1
 377 218 l 1,427,-1
 376 218 l 1,428,-1
 375 217 l 1,429,-1
 374 217 l 1,430,-1
 373 218 l 1,431,-1
 370 218 l 1,432,-1
 351 231 l 1,433,-1
 358 231 l 1,434,-1
 363 227 l 1,435,-1
 367 223 l 1,436,-1
 373 219 l 1,437,-1
 375 219 l 1,438,-1
 377 218 l 1,426,-1
383 219 m 1,439,-1
 383 219 l 1,440,-1
 381 218 l 1,441,-1
 376 218 l 1,442,-1
 368 222 l 1,443,-1
 363 226 l 1,444,-1
 362 228 l 1,445,-1
 358 231 l 1,446,-1
 359 230 l 1,447,-1
 367 230 l 1,448,-1
 373 224 l 1,449,-1
 380 219 l 1,450,-1
 383 219 l 1,439,-1
389 221 m 1,451,-1
 389 221 l 1,452,-1
 386 219 l 1,453,-1
 383 219 l 1,454,-1
 379 220 l 1,455,-1
 376 222 l 1,456,-1
 367 230 l 1,457,-1
 373 230 l 1,458,-1
 375 229 l 1,459,-1
 375 228 l 1,460,-1
 376 228 l 1,461,-1
 377 226 l 1,462,-1
 379 224 l 1,463,-1
 384 221 l 1,464,-1
 389 221 l 1,451,-1
394 222 m 1,465,-1
 394 222 l 1,466,-1
 393 221 l 1,467,-1
 386 221 l 1,468,-1
 380 223 l 1,469,-1
 376 227 l 1,470,-1
 376 228 l 1,471,-1
 375 229 l 1,472,-1
 383 229 l 1,473,-1
 383 228 l 1,474,-1
 385 227 l 1,475,-1
 388 224 l 1,476,-1
 391 223 l 1,477,-1
 394 222 l 1,465,-1
397 223 m 1,478,-1
 397 223 l 1,479,-1
 397 222 l 1,480,-1
 389 223 l 1,481,-1
 387 225 l 1,482,-1
 385 226 l 1,483,-1
 383 228 l 1,484,-1
 383 229 l 1,485,-1
 384 229 l 1,486,-1
 385 228 l 1,487,-1
 388 228 l 1,488,-1
 388 227 l 1,489,-1
 391 226 l 1,490,-1
 396 223 l 1,491,-1
 397 223 l 1,478,-1
399 225 m 1,492,-1
 399 225 l 1,493,-1
 399 223 l 1,494,-1
 396 223 l 1,495,-1
 390 226 l 1,496,-1
 388 228 l 1,497,-1
 393 228 l 1,498,-1
 396 226 l 1,499,-1
 397 226 l 1,500,-1
 399 225 l 1,492,-1
393 228 m 1,501,-1
 393 228 l 1,502,-1
 394 228 l 1,503,-1
 396 227 l 1,504,-1
 401 227 l 1,505,-1
 401 226 l 1,506,-1
 400 225 l 1,507,-1
 398 225 l 1,508,-1
 395 227 l 1,509,-1
 394 227 l 1,510,-1
 393 228 l 1,501,-1
393 228 m 1,511,-1
 393 228 l 1,512,-1
 397 228 l 1,513,-1
 398 227 l 1,514,-1
 401 227 l 1,515,-1
 401 228 l 1,516,-1
 399 230 l 1,517,-1
 398 230 l 1,518,-1
 397 229 l 1,519,-1
 394 229 l 1,520,-1
 393 228 l 1,511,-1
320 257 m 1,521,-1
 320 257 l 1,522,-1
 314 259 l 1,523,-1
 309 259 l 1,524,-1
 306 258 l 1,525,-1
 300 255 l 1,526,-1
 298 253 l 1,527,-1
 295 252 l 1,528,-1
 286 243 l 1,529,-1
 284 242 l 1,530,-1
 285 241 l 1,531,-1
 296 240 l 1,532,-1
 299 244 l 1,533,-1
 308 253 l 1,534,-1
 315 257 l 1,535,-1
 320 257 l 1,521,-1
325 256 m 1,536,-1
 325 256 l 1,537,-1
 321 257 l 1,538,-1
 315 257 l 1,539,-1
 314 256 l 1,540,-1
 310 254 l 1,541,-1
 305 250 l 1,542,-1
 296 240 l 1,543,-1
 300 240 l 1,544,-1
 302 239 l 1,545,-1
 305 239 l 1,546,-1
 307 240 l 1,547,-1
 316 249 l 1,548,-1
 319 251 l 1,549,-1
 321 253 l 1,550,-1
 324 255 l 1,551,-1
 325 256 l 1,536,-1
331 254 m 1,552,-1
 331 254 l 1,553,-1
 328 256 l 1,554,-1
 327 256 l 1,555,-1
 325 255 l 1,556,-1
 324 255 l 1,557,-1
 320 253 l 1,558,-1
 307 240 l 1,559,-1
 305 239 l 1,560,-1
 313 238 l 1,561,-1
 316 241 l 1,562,-1
 318 244 l 1,563,-1
 323 249 l 1,564,-1
 326 251 l 1,565,-1
 328 253 l 1,566,-1
 331 254 l 1,552,-1
343 249 m 1,567,-1
 343 249 l 1,568,-1
 339 253 l 1,569,-1
 337 254 l 1,570,-1
 331 254 l 1,571,-1
 324 250 l 1,572,-1
 313 238 l 1,573,-1
 316 238 l 1,574,-1
 322 237 l 1,575,-1
 324 241 l 1,576,-1
 327 244 l 1,577,-1
 329 245 l 1,578,-1
 331 247 l 1,579,-1
 336 248 l 1,580,-1
 337 249 l 1,581,-1
 343 249 l 1,567,-1
351 247 m 1,582,-1
 351 247 l 1,583,-1
 347 249 l 1,584,-1
 336 249 l 1,585,-1
 335 248 l 1,586,-1
 329 245 l 1,587,-1
 323 239 l 1,588,-1
 322 237 l 1,589,-1
 327 237 l 1,590,-1
 328 236 l 1,591,-1
 332 236 l 1,592,-1
 340 243 l 1,593,-1
 345 246 l 1,594,-1
 347 246 l 1,595,-1
 349 247 l 1,596,-1
 351 247 l 1,582,-1
361 246 m 1,597,-1
 361 246 l 1,598,-1
 360 247 l 1,599,-1
 358 247 l 1,600,-1
 356 248 l 1,601,-1
 354 248 l 1,602,-1
 352 247 l 1,603,-1
 350 247 l 1,604,-1
 346 246 l 1,605,-1
 342 244 l 1,606,-1
 335 239 l 1,607,-1
 332 236 l 1,608,-1
 341 235 l 1,609,-1
 341 236 l 1,610,-1
 346 239 l 1,611,-1
 355 243 l 1,612,-1
 358 245 l 1,613,-1
 359 245 l 1,614,-1
 361 246 l 1,597,-1
371 244 m 1,615,-1
 371 244 l 1,616,-1
 370 246 l 1,617,-1
 369 246 l 1,618,-1
 367 247 l 1,619,-1
 365 247 l 1,620,-1
 363 246 l 1,621,-1
 360 246 l 1,622,-1
 357 244 l 1,623,-1
 352 242 l 1,624,-1
 341 235 l 1,625,-1
 351 234 l 1,626,-1
 356 236 l 1,627,-1
 363 241 l 1,628,-1
 367 242 l 1,629,-1
 369 243 l 1,630,-1
 370 243 l 1,631,-1
 371 244 l 1,615,-1
384 241 m 1,632,-1
 384 241 l 1,633,-1
 382 242 l 1,634,-1
 380 242 l 1,635,-1
 379 243 l 1,636,-1
 377 243 l 1,637,-1
 375 242 l 1,638,-1
 373 242 l 1,639,-1
 368 240 l 1,640,-1
 358 233 l 1,641,-1
 366 232 l 1,642,-1
 378 240 l 1,643,-1
 380 240 l 1,644,-1
 382 241 l 1,645,-1
 384 241 l 1,632,-1
379 243 m 1,646,-1
 379 243 l 1,647,-1
 378 243 l 1,648,-1
 376 244 l 1,649,-1
 370 244 l 1,650,-1
 367 242 l 1,651,-1
 356 237 l 1,652,-1
 351 234 l 1,653,-1
 358 233 l 1,654,-1
 369 240 l 1,655,-1
 374 242 l 1,656,-1
 376 242 l 1,657,-1
 377 243 l 1,658,-1
 379 243 l 1,646,-1
390 237 m 1,659,-1
 390 237 l 1,660,-1
 384 241 l 1,661,-1
 381 241 l 1,662,-1
 380 240 l 1,663,-1
 378 240 l 1,664,-1
 366 232 l 1,665,-1
 375 231 l 1,666,-1
 375 232 l 1,667,-1
 376 234 l 1,668,-1
 379 236 l 1,669,-1
 382 237 l 1,670,-1
 390 237 l 1,659,-1
398 232 m 1,671,-1
 398 232 l 1,672,-1
 398 233 l 1,673,-1
 396 234 l 1,674,-1
 391 234 l 1,675,-1
 386 233 l 1,676,-1
 383 231 l 1,677,-1
 383 230 l 1,678,-1
 386 230 l 1,679,-1
 387 229 l 1,680,-1
 388 230 l 1,681,-1
 396 233 l 1,682,-1
 398 232 l 1,671,-1
400 230 m 1,683,-1
 400 230 l 1,684,-1
 400 232 l 1,685,-1
 398 232 l 1,686,-1
 397 233 l 1,687,-1
 395 232 l 1,688,-1
 390 231 l 1,689,-1
 390 230 l 1,690,-1
 388 230 l 1,691,-1
 388 229 l 1,692,-1
 387 229 l 1,693,-1
 393 228 l 1,694,-1
 398 230 l 1,695,-1
 400 230 l 1,683,-1
395 234 m 1,696,-1
 395 234 l 1,697,-1
 393 236 l 1,698,-1
 391 236 l 1,699,-1
 390 237 l 1,700,-1
 382 237 l 1,701,-1
 381 236 l 1,702,-1
 378 235 l 1,703,-1
 376 233 l 1,704,-1
 376 232 l 1,705,-1
 375 231 l 1,706,-1
 383 230 l 1,707,-1
 383 231 l 1,708,-1
 384 232 l 1,709,-1
 388 234 l 1,710,-1
 395 234 l 1,696,-1
146 268 m 1,711,-1
 146 268 l 1,712,-1
 143 264 l 1,713,-1
 143 262 l 1,714,-1
 141 259 l 1,715,-1
 141 252 l 1,716,-1
 143 249 l 1,717,-1
 145 249 l 1,718,-1
 147 248 l 1,719,-1
 147 249 l 1,720,-1
 146 251 l 1,721,-1
 146 254 l 1,722,-1
 147 260 l 1,723,-1
 147 265 l 1,724,-1
 148 267 l 1,725,-1
 147 267 l 1,726,-1
 146 268 l 1,711,-1
148 267 m 1,727,-1
 148 267 l 1,728,-1
 146 259 l 1,729,-1
 146 249 l 1,730,-1
 148 246 l 1,731,-1
 148 245 l 1,732,-1
 151 243 l 1,733,-1
 154 243 l 1,734,-1
 154 245 l 1,735,-1
 153 246 l 1,736,-1
 152 252 l 1,737,-1
 152 259 l 1,738,-1
 153 262 l 1,739,-1
 153 264 l 1,740,-1
 154 265 l 1,741,-1
 150 266 l 1,742,-1
 148 267 l 1,727,-1
154 265 m 1,743,-1
 154 265 l 1,744,-1
 153 262 l 1,745,-1
 152 253 l 1,746,-1
 153 251 l 1,747,-1
 153 246 l 1,748,-1
 155 242 l 1,749,-1
 159 239 l 1,750,-1
 161 239 l 1,751,-1
 163 240 l 1,752,-1
 161 242 l 1,753,-1
 160 245 l 1,754,-1
 160 247 l 1,755,-1
 159 248 l 1,756,-1
 158 252 l 1,757,-1
 158 255 l 1,758,-1
 159 258 l 1,759,-1
 159 260 l 1,760,-1
 160 263 l 1,761,-1
 156 264 l 1,762,-1
 154 265 l 1,743,-1
171 236 m 1,763,-1
 171 236 l 1,764,-1
 168 236 l 1,765,-1
 163 239 l 1,766,-1
 161 242 l 1,767,-1
 160 245 l 1,768,-1
 160 247 l 1,769,-1
 159 249 l 1,770,-1
 159 251 l 1,771,-1
 158 254 l 1,772,-1
 158 256 l 1,773,-1
 159 259 l 1,774,-1
 159 261 l 1,775,-1
 160 263 l 1,776,-1
 161 262 l 1,777,-1
 163 262 l 1,778,-1
 165 261 l 1,779,-1
 166 261 l 1,780,-1
 168 241 l 1,781,-1
 169 239 l 1,782,-1
 169 238 l 1,783,-1
 171 236 l 1,763,-1
166 261 m 1,784,-1
 166 261 l 1,785,-1
 167 261 l 1,786,-1
 168 260 l 1,787,-1
 172 259 l 1,788,-1
 172 245 l 1,789,-1
 173 244 l 1,790,-1
 173 239 l 1,791,-1
 175 236 l 1,792,-1
 175 235 l 1,793,-1
 177 234 l 1,794,-1
 174 234 l 1,795,-1
 171 236 l 1,796,-1
 168 240 l 1,797,-1
 168 242 l 1,798,-1
 167 245 l 1,799,-1
 167 258 l 1,800,-1
 166 261 l 1,784,-1
185 231 m 1,801,-1
 185 231 l 1,802,-1
 182 231 l 1,803,-1
 175 235 l 1,804,-1
 173 239 l 1,805,-1
 172 246 l 1,806,-1
 172 259 l 1,807,-1
 178 258 l 1,808,-1
 178 257 l 1,809,-1
 177 255 l 1,810,-1
 177 245 l 1,811,-1
 180 238 l 1,812,-1
 183 233 l 1,813,-1
 185 231 l 1,801,-1
195 228 m 1,814,-1
 195 228 l 1,815,-1
 189 228 l 1,816,-1
 187 229 l 1,817,-1
 182 234 l 1,818,-1
 180 239 l 1,819,-1
 178 241 l 1,820,-1
 178 244 l 1,821,-1
 177 247 l 1,822,-1
 177 255 l 1,823,-1
 178 258 l 1,824,-1
 184 255 l 1,825,-1
 184 250 l 1,826,-1
 186 240 l 1,827,-1
 190 233 l 1,828,-1
 192 231 l 1,829,-1
 193 229 l 1,830,-1
 195 228 l 1,814,-1
184 255 m 1,831,-1
 184 255 l 1,832,-1
 186 255 l 1,833,-1
 188 254 l 1,834,-1
 195 252 l 1,835,-1
 195 242 l 1,836,-1
 196 240 l 1,837,-1
 197 233 l 1,838,-1
 199 230 l 1,839,-1
 202 227 l 1,840,-1
 200 226 l 1,841,-1
 199 226 l 1,842,-1
 197 227 l 1,843,-1
 196 227 l 1,844,-1
 194 228 l 1,845,-1
 189 234 l 1,846,-1
 184 248 l 1,847,-1
 184 255 l 1,831,-1
211 225 m 1,848,-1
 211 225 l 1,849,-1
 205 225 l 1,850,-1
 201 227 l 1,851,-1
 199 229 l 1,852,-1
 197 232 l 1,853,-1
 196 239 l 1,854,-1
 195 242 l 1,855,-1
 195 252 l 1,856,-1
 202 251 l 1,857,-1
 203 240 l 1,858,-1
 204 237 l 1,859,-1
 204 235 l 1,860,-1
 205 234 l 1,861,-1
 206 231 l 1,862,-1
 208 228 l 1,863,-1
 211 225 l 1,848,-1
219 224 m 1,864,-1
 219 224 l 1,865,-1
 214 224 l 1,866,-1
 210 226 l 1,867,-1
 207 229 l 1,868,-1
 204 235 l 1,869,-1
 203 242 l 1,870,-1
 202 245 l 1,871,-1
 202 251 l 1,872,-1
 204 250 l 1,873,-1
 205 250 l 1,874,-1
 206 249 l 1,875,-1
 209 249 l 1,876,-1
 210 239 l 1,877,-1
 212 235 l 1,878,-1
 213 230 l 1,879,-1
 218 225 l 1,880,-1
 219 224 l 1,864,-1
227 223 m 1,881,-1
 227 223 l 1,882,-1
 225 222 l 1,883,-1
 218 225 l 1,884,-1
 215 228 l 1,885,-1
 210 239 l 1,886,-1
 210 241 l 1,887,-1
 209 243 l 1,888,-1
 209 249 l 1,889,-1
 210 249 l 1,890,-1
 215 247 l 1,891,-1
 217 239 l 1,892,-1
 219 234 l 1,893,-1
 226 223 l 1,894,-1
 227 223 l 1,881,-1
236 221 m 1,895,-1
 236 221 l 1,896,-1
 231 221 l 1,897,-1
 224 225 l 1,898,-1
 220 232 l 1,899,-1
 217 239 l 1,900,-1
 215 247 l 1,901,-1
 217 247 l 1,902,-1
 218 246 l 1,903,-1
 223 246 l 1,904,-1
 227 232 l 1,905,-1
 232 223 l 1,906,-1
 235 221 l 1,907,-1
 236 221 l 1,895,-1
242 221 m 1,908,-1
 242 221 l 1,909,-1
 236 221 l 1,910,-1
 234 222 l 1,911,-1
 229 227 l 1,912,-1
 226 234 l 1,913,-1
 226 236 l 1,914,-1
 224 240 l 1,915,-1
 224 242 l 1,916,-1
 223 245 l 1,917,-1
 229 244 l 1,918,-1
 230 239 l 1,919,-1
 230 236 l 1,920,-1
 232 233 l 1,921,-1
 233 230 l 1,922,-1
 236 227 l 1,923,-1
 239 223 l 1,924,-1
 242 221 l 1,908,-1
251 220 m 1,925,-1
 251 220 l 1,926,-1
 246 220 l 1,927,-1
 244 221 l 1,928,-1
 242 221 l 1,929,-1
 232 232 l 1,930,-1
 230 237 l 1,931,-1
 230 239 l 1,932,-1
 229 242 l 1,933,-1
 229 244 l 1,934,-1
 232 244 l 1,935,-1
 233 243 l 1,936,-1
 236 243 l 1,937,-1
 236 240 l 1,938,-1
 237 239 l 1,939,-1
 238 236 l 1,940,-1
 238 234 l 1,941,-1
 239 231 l 1,942,-1
 241 228 l 1,943,-1
 248 221 l 1,944,-1
 251 220 l 1,925,-1
262 219 m 1,945,-1
 262 219 l 1,946,-1
 254 219 l 1,947,-1
 247 222 l 1,948,-1
 242 227 l 1,949,-1
 236 240 l 1,950,-1
 236 243 l 1,951,-1
 238 242 l 1,952,-1
 243 242 l 1,953,-1
 243 240 l 1,954,-1
 244 236 l 1,955,-1
 245 235 l 1,956,-1
 249 228 l 1,957,-1
 252 225 l 1,958,-1
 255 223 l 1,959,-1
 258 220 l 1,960,-1
 262 219 l 1,945,-1
268 218 m 1,961,-1
 268 218 l 1,962,-1
 261 219 l 1,963,-1
 253 223 l 1,964,-1
 252 225 l 1,965,-1
 248 228 l 1,966,-1
 243 239 l 1,967,-1
 243 242 l 1,968,-1
 244 241 l 1,969,-1
 249 241 l 1,970,-1
 253 232 l 1,971,-1
 256 227 l 1,972,-1
 262 221 l 1,973,-1
 266 219 l 1,974,-1
 268 218 l 1,961,-1
279 217 m 1,975,-1
 279 217 l 1,976,-1
 273 217 l 1,977,-1
 262 221 l 1,978,-1
 255 228 l 1,979,-1
 249 241 l 1,980,-1
 252 240 l 1,981,-1
 256 240 l 1,982,-1
 262 229 l 1,983,-1
 265 226 l 1,984,-1
 275 219 l 1,985,-1
 279 217 l 1,975,-1
286 216 m 1,986,-1
 286 216 l 1,987,-1
 284 216 l 1,988,-1
 282 217 l 1,989,-1
 280 217 l 1,990,-1
 271 221 l 1,991,-1
 261 230 l 1,992,-1
 260 233 l 1,993,-1
 258 235 l 1,994,-1
 256 240 l 1,995,-1
 260 239 l 1,996,-1
 263 239 l 1,997,-1
 266 237 l 1,998,-1
 268 234 l 1,999,-1
 284 218 l 1,1000,-1
 286 216 l 1,986,-1
296 216 m 1,1001,-1
 296 216 l 1,1002,-1
 294 215 l 1,1003,-1
 289 215 l 1,1004,-1
 287 216 l 1,1005,-1
 285 218 l 1,1006,-1
 283 219 l 1,1007,-1
 268 235 l 1,1008,-1
 265 237 l 1,1009,-1
 263 239 l 1,1010,-1
 266 239 l 1,1011,-1
 267 238 l 1,1012,-1
 271 238 l 1,1013,-1
 275 235 l 1,1014,-1
 289 220 l 1,1015,-1
 292 218 l 1,1016,-1
 295 217 l 1,1017,-1
 296 216 l 1,1001,-1
304 215 m 1,1018,-1
 304 215 l 1,1019,-1
 301 215 l 1,1020,-1
 299 216 l 1,1021,-1
 296 216 l 1,1022,-1
 291 218 l 1,1023,-1
 280 229 l 1,1024,-1
 279 231 l 1,1025,-1
 275 235 l 1,1026,-1
 271 238 l 1,1027,-1
 282 236 l 1,1028,-1
 284 233 l 1,1029,-1
 290 227 l 1,1030,-1
 291 225 l 1,1031,-1
 293 223 l 1,1032,-1
 302 217 l 1,1033,-1
 304 215 l 1,1018,-1
148 273 m 1,1034,-1
 148 273 l 1,1035,-1
 148 284 l 1,1036,-1
 149 288 l 1,1037,-1
 150 290 l 1,1038,-1
 154 293 l 1,1039,-1
 156 293 l 1,1040,-1
 158 292 l 1,1041,-1
 156 291 l 1,1042,-1
 154 286 l 1,1043,-1
 151 272 l 1,1044,-1
 150 272 l 1,1045,-1
 148 273 l 1,1034,-1
151 272 m 1,1046,-1
 151 272 l 1,1047,-1
 152 277 l 1,1048,-1
 155 287 l 1,1049,-1
 157 290 l 1,1050,-1
 158 293 l 1,1051,-1
 160 293 l 1,1052,-1
 161 294 l 1,1053,-1
 165 292 l 1,1054,-1
 160 287 l 1,1055,-1
 159 284 l 1,1056,-1
 156 279 l 1,1057,-1
 156 278 l 1,1058,-1
 155 276 l 1,1059,-1
 154 271 l 1,1060,-1
 153 271 l 1,1061,-1
 152 272 l 1,1062,-1
 151 272 l 1,1046,-1
154 271 m 1,1063,-1
 154 271 l 1,1064,-1
 156 279 l 1,1065,-1
 160 287 l 1,1066,-1
 162 289 l 1,1067,-1
 163 291 l 1,1068,-1
 166 293 l 1,1069,-1
 169 293 l 1,1070,-1
 171 292 l 1,1071,-1
 172 290 l 1,1072,-1
 167 285 l 1,1073,-1
 164 281 l 1,1074,-1
 164 280 l 1,1075,-1
 162 277 l 1,1076,-1
 161 274 l 1,1077,-1
 161 270 l 1,1078,-1
 160 269 l 1,1079,-1
 157 270 l 1,1080,-1
 154 271 l 1,1063,-1
182 289 m 1,1081,-1
 182 289 l 1,1082,-1
 178 291 l 1,1083,-1
 175 291 l 1,1084,-1
 168 287 l 1,1085,-1
 165 283 l 1,1086,-1
 162 276 l 1,1087,-1
 162 274 l 1,1088,-1
 161 271 l 1,1089,-1
 161 269 l 1,1090,-1
 162 268 l 1,1091,-1
 168 267 l 1,1092,-1
 172 277 l 1,1093,-1
 172 279 l 1,1094,-1
 176 285 l 1,1095,-1
 180 289 l 1,1096,-1
 182 289 l 1,1081,-1
189 287 m 1,1097,-1
 189 287 l 1,1098,-1
 184 289 l 1,1099,-1
 182 289 l 1,1100,-1
 180 288 l 1,1101,-1
 178 288 l 1,1102,-1
 177 287 l 1,1103,-1
 172 277 l 1,1104,-1
 168 266 l 1,1105,-1
 169 266 l 1,1106,-1
 170 265 l 1,1107,-1
 173 264 l 1,1108,-1
 173 265 l 1,1109,-1
 174 266 l 1,1110,-1
 174 269 l 1,1111,-1
 175 271 l 1,1112,-1
 175 272 l 1,1113,-1
 179 280 l 1,1114,-1
 184 285 l 1,1115,-1
 187 286 l 1,1116,-1
 189 287 l 1,1097,-1
199 285 m 1,1117,-1
 199 285 l 1,1118,-1
 198 287 l 1,1119,-1
 196 288 l 1,1120,-1
 192 288 l 1,1121,-1
 190 287 l 1,1122,-1
 188 287 l 1,1123,-1
 184 284 l 1,1124,-1
 180 280 l 1,1125,-1
 175 273 l 1,1126,-1
 175 270 l 1,1127,-1
 174 267 l 1,1128,-1
 174 264 l 1,1129,-1
 181 262 l 1,1130,-1
 181 264 l 1,1131,-1
 182 265 l 1,1132,-1
 182 266 l 1,1133,-1
 185 272 l 1,1134,-1
 189 278 l 1,1135,-1
 194 283 l 1,1136,-1
 197 285 l 1,1137,-1
 199 285 l 1,1117,-1
181 262 m 1,1138,-1
 181 262 l 1,1139,-1
 183 262 l 1,1140,-1
 191 259 l 1,1141,-1
 196 272 l 1,1142,-1
 200 279 l 1,1143,-1
 207 284 l 1,1144,-1
 206 284 l 1,1145,-1
 204 285 l 1,1146,-1
 198 285 l 1,1147,-1
 192 282 l 1,1148,-1
 191 280 l 1,1149,-1
 187 276 l 1,1150,-1
 185 273 l 1,1151,-1
 182 266 l 1,1152,-1
 181 262 l 1,1138,-1
216 281 m 1,1153,-1
 216 281 l 1,1154,-1
 210 283 l 1,1155,-1
 206 283 l 1,1156,-1
 202 281 l 1,1157,-1
 201 279 l 1,1158,-1
 199 277 l 1,1159,-1
 191 259 l 1,1160,-1
 194 258 l 1,1161,-1
 198 258 l 1,1162,-1
 199 259 l 1,1163,-1
 202 267 l 1,1164,-1
 208 275 l 1,1165,-1
 212 279 l 1,1166,-1
 216 281 l 1,1153,-1
225 278 m 1,1167,-1
 225 278 l 1,1168,-1
 219 280 l 1,1169,-1
 215 280 l 1,1170,-1
 211 278 l 1,1171,-1
 207 274 l 1,1172,-1
 203 268 l 1,1173,-1
 198 257 l 1,1174,-1
 203 256 l 1,1175,-1
 206 256 l 1,1176,-1
 207 259 l 1,1177,-1
 215 273 l 1,1178,-1
 218 276 l 1,1179,-1
 221 277 l 1,1180,-1
 222 278 l 1,1181,-1
 225 278 l 1,1167,-1
231 276 m 1,1182,-1
 231 276 l 1,1183,-1
 226 278 l 1,1184,-1
 224 278 l 1,1185,-1
 216 274 l 1,1186,-1
 215 272 l 1,1187,-1
 210 266 l 1,1188,-1
 207 259 l 1,1189,-1
 206 255 l 1,1190,-1
 211 255 l 1,1191,-1
 212 254 l 1,1192,-1
 212 256 l 1,1193,-1
 219 267 l 1,1194,-1
 225 273 l 1,1195,-1
 230 276 l 1,1196,-1
 231 276 l 1,1182,-1
239 274 m 1,1197,-1
 239 274 l 1,1198,-1
 234 276 l 1,1199,-1
 232 276 l 1,1200,-1
 224 273 l 1,1201,-1
 220 269 l 1,1202,-1
 219 266 l 1,1203,-1
 216 262 l 1,1204,-1
 212 254 l 1,1205,-1
 216 253 l 1,1206,-1
 219 253 l 1,1207,-1
 221 257 l 1,1208,-1
 225 262 l 1,1209,-1
 230 270 l 1,1210,-1
 236 274 l 1,1211,-1
 239 274 l 1,1197,-1
245 272 m 1,1212,-1
 245 272 l 1,1213,-1
 240 274 l 1,1214,-1
 236 274 l 1,1215,-1
 232 272 l 1,1216,-1
 230 270 l 1,1217,-1
 224 262 l 1,1218,-1
 220 254 l 1,1219,-1
 220 253 l 1,1220,-1
 221 253 l 1,1221,-1
 222 252 l 1,1222,-1
 224 252 l 1,1223,-1
 225 251 l 1,1224,-1
 226 255 l 1,1225,-1
 231 263 l 1,1226,-1
 235 267 l 1,1227,-1
 241 271 l 1,1228,-1
 245 272 l 1,1212,-1
252 270 m 1,1229,-1
 252 270 l 1,1230,-1
 250 271 l 1,1231,-1
 248 271 l 1,1232,-1
 246 272 l 1,1233,-1
 242 271 l 1,1234,-1
 236 268 l 1,1235,-1
 231 263 l 1,1236,-1
 230 261 l 1,1237,-1
 228 259 l 1,1238,-1
 225 251 l 1,1239,-1
 232 250 l 1,1240,-1
 233 253 l 1,1241,-1
 234 254 l 1,1242,-1
 236 259 l 1,1243,-1
 238 262 l 1,1244,-1
 243 267 l 1,1245,-1
 250 270 l 1,1246,-1
 252 270 l 1,1229,-1
262 268 m 1,1247,-1
 262 268 l 1,1248,-1
 257 270 l 1,1249,-1
 250 270 l 1,1250,-1
 245 268 l 1,1251,-1
 242 265 l 1,1252,-1
 240 264 l 1,1253,-1
 238 262 l 1,1254,-1
 235 257 l 1,1255,-1
 232 250 l 1,1256,-1
 233 250 l 1,1257,-1
 234 249 l 1,1258,-1
 239 249 l 1,1259,-1
 242 254 l 1,1260,-1
 242 256 l 1,1261,-1
 244 258 l 1,1262,-1
 246 261 l 1,1263,-1
 254 266 l 1,1264,-1
 258 267 l 1,1265,-1
 262 268 l 1,1247,-1
268 267 m 1,1266,-1
 268 267 l 1,1267,-1
 265 267 l 1,1268,-1
 263 268 l 1,1269,-1
 261 268 l 1,1270,-1
 258 267 l 1,1271,-1
 256 267 l 1,1272,-1
 248 263 l 1,1273,-1
 243 258 l 1,1274,-1
 239 248 l 1,1275,-1
 245 247 l 1,1276,-1
 253 259 l 1,1277,-1
 255 261 l 1,1278,-1
 257 264 l 1,1279,-1
 259 264 l 1,1280,-1
 263 266 l 1,1281,-1
 268 267 l 1,1266,-1
279 266 m 1,1282,-1
 279 266 l 1,1283,-1
 275 267 l 1,1284,-1
 266 267 l 1,1285,-1
 257 263 l 1,1286,-1
 255 261 l 1,1287,-1
 253 260 l 1,1288,-1
 249 254 l 1,1289,-1
 246 247 l 1,1290,-1
 248 247 l 1,1291,-1
 249 246 l 1,1292,-1
 252 246 l 1,1293,-1
 255 252 l 1,1294,-1
 261 258 l 1,1295,-1
 270 263 l 1,1296,-1
 274 264 l 1,1297,-1
 279 266 l 1,1282,-1
285 265 m 1,1298,-1
 285 265 l 1,1299,-1
 277 265 l 1,1300,-1
 275 264 l 1,1301,-1
 272 264 l 1,1302,-1
 267 262 l 1,1303,-1
 265 260 l 1,1304,-1
 263 259 l 1,1305,-1
 253 249 l 1,1306,-1
 252 246 l 1,1307,-1
 254 246 l 1,1308,-1
 255 245 l 1,1309,-1
 258 245 l 1,1310,-1
 264 249 l 1,1311,-1
 267 252 l 1,1312,-1
 282 263 l 1,1313,-1
 285 265 l 1,1298,-1
295 262 m 1,1314,-1
 295 262 l 1,1315,-1
 293 264 l 1,1316,-1
 289 266 l 1,1317,-1
 287 265 l 1,1318,-1
 285 265 l 1,1319,-1
 278 261 l 1,1320,-1
 261 246 l 1,1321,-1
 258 245 l 1,1322,-1
 260 244 l 1,1323,-1
 267 244 l 1,1324,-1
 280 256 l 1,1325,-1
 284 258 l 1,1326,-1
 285 259 l 1,1327,-1
 291 262 l 1,1328,-1
 295 262 l 1,1314,-1
302 261 m 1,1329,-1
 302 261 l 1,1330,-1
 299 262 l 1,1331,-1
 291 262 l 1,1332,-1
 284 259 l 1,1333,-1
 274 250 l 1,1334,-1
 266 244 l 1,1335,-1
 267 244 l 1,1336,-1
 268 243 l 1,1337,-1
 275 243 l 1,1338,-1
 288 253 l 1,1339,-1
 292 257 l 1,1340,-1
 299 261 l 1,1341,-1
 302 261 l 1,1329,-1
310 259 m 1,1342,-1
 310 259 l 1,1343,-1
 308 261 l 1,1344,-1
 300 261 l 1,1345,-1
 297 260 l 1,1346,-1
 294 258 l 1,1347,-1
 292 256 l 1,1348,-1
 275 243 l 1,1349,-1
 273 243 l 1,1350,-1
 275 243 l 1,1351,-1
 276 242 l 1,1352,-1
 284 242 l 1,1353,-1
 286 243 l 1,1354,-1
 293 250 l 1,1355,-1
 306 258 l 1,1356,-1
 310 259 l 1,1342,-1
141 288 m 1,1357,-1
 141 288 l 1,1358,-1
 140 289 l 1,1359,-1
 139 292 l 1,1360,-1
 139 299 l 1,1361,-1
 140 301 l 1,1362,-1
 138 300 l 1,1363,-1
 138 298 l 1,1364,-1
 137 296 l 1,1365,-1
 137 291 l 1,1366,-1
 139 282 l 1,1367,-1
 141 279 l 1,1368,-1
 141 277 l 1,1369,-1
 142 276 l 1,1370,-1
 142 281 l 1,1371,-1
 141 282 l 1,1372,-1
 141 288 l 1,1357,-1
120 259 m 1,1373,-1
 120 259 l 1,1374,-1
 121 259 l 1,1375,-1
 132 266 l 1,1376,-1
 134 268 l 1,1377,-1
 135 268 l 1,1378,-1
 139 270 l 1,1379,-1
 128 261 l 1,1380,-1
 123 259 l 1,1381,-1
 120 259 l 1,1373,-1
130 287 m 1,1382,-1
 130 287 l 1,1383,-1
 133 285 l 1,1384,-1
 139 279 l 1,1385,-1
 139 278 l 1,1386,-1
 140 278 l 1,1387,-1
 142 275 l 1,1388,-1
 141 279 l 1,1389,-1
 139 282 l 1,1390,-1
 136 285 l 1,1391,-1
 135 285 l 1,1392,-1
 134 286 l 1,1393,-1
 130 287 l 1,1382,-1
140 295 m 1,1394,-1
 140 295 l 1,1395,-1
 141 294 l 1,1396,-1
 142 281 l 1,1397,-1
 144 275 l 1,1398,-1
 144 289 l 1,1399,-1
 143 293 l 1,1400,-1
 141 294 l 1,1401,-1
 140 295 l 1,1394,-1
133 298 m 1,1402,-1
 133 298 l 1,1403,-1
 130 293 l 1,1404,-1
 130 292 l 1,1405,-1
 131 291 l 1,1406,-1
 131 289 l 1,1407,-1
 134 284 l 1,1408,-1
 140 278 l 1,1409,-1
 140 277 l 1,1410,-1
 141 276 l 1,1411,-1
 140 283 l 1,1412,-1
 134 291 l 1,1413,-1
 133 294 l 1,1414,-1
 133 298 l 1,1402,-1
142 275 m 1,1415,-1
 142 275 l 1,1416,-1
 142 286 l 1,1417,-1
 144 291 l 1,1418,-1
 145 296 l 1,1419,-1
 143 294 l 1,1420,-1
 139 287 l 1,1421,-1
 139 283 l 1,1422,-1
 142 276 l 1,1423,-1
 142 275 l 1,1415,-1
121 270 m 1,1424,-1
 121 270 l 1,1425,-1
 125 270 l 1,1426,-1
 126 269 l 1,1427,-1
 135 270 l 1,1428,-1
 139 270 l 1,1429,-1
 138 270 l 1,1430,-1
 134 268 l 1,1431,-1
 132 268 l 1,1432,-1
 131 267 l 1,1433,-1
 127 267 l 1,1434,-1
 126 268 l 1,1435,-1
 125 268 l 1,1436,-1
 124 269 l 1,1437,-1
 121 270 l 1,1424,-1
128 264 m 1,1438,-1
 128 264 l 1,1439,-1
 124 264 l 1,1440,-1
 124 263 l 1,1441,-1
 123 263 l 1,1442,-1
 118 261 l 1,1443,-1
 116 258 l 1,1444,-1
 117 260 l 1,1445,-1
 117 261 l 1,1446,-1
 118 263 l 1,1447,-1
 122 266 l 1,1448,-1
 127 268 l 1,1449,-1
 129 268 l 1,1450,-1
 130 269 l 1,1451,-1
 138 270 l 1,1452,-1
 137 270 l 1,1453,-1
 129 265 l 1,1454,-1
 128 264 l 1,1438,-1
125 252 m 1,1455,-1
 125 252 l 1,1456,-1
 124 254 l 1,1457,-1
 124 258 l 1,1458,-1
 126 261 l 1,1459,-1
 137 268 l 1,1460,-1
 141 270 l 1,1461,-1
 137 263 l 1,1462,-1
 127 257 l 1,1463,-1
 126 254 l 1,1464,-1
 125 252 l 1,1455,-1
142 269 m 1,1465,-1
 142 269 l 1,1466,-1
 136 259 l 1,1467,-1
 134 252 l 1,1468,-1
 134 250 l 1,1469,-1
 132 255 l 1,1470,-1
 132 257 l 1,1471,-1
 133 259 l 1,1472,-1
 133 261 l 1,1473,-1
 135 263 l 1,1474,-1
 135 264 l 1,1475,-1
 137 266 l 1,1476,-1
 141 268 l 1,1477,-1
 142 269 l 1,1465,-1
EndSplineSet
EndChar

StartChar: asp
Encoding: 57347 57347 3
Width: 0
GlyphClass: 1
Flags: W
LayerCount: 2
Fore
SplineSet
221 191 m 1,0,-1
 188 191 l 1,1,-1
 180 216 l 1,2,-1
 145 216 l 1,3,-1
 137 191 l 1,4,-1
 104 191 l 1,5,-1
 146 307 l 1,6,-1
 178 307 l 1,7,-1
 221 191 l 1,0,-1
168 275 m 2,8,9
 166 281 166 281 166 284 c 2,10,-1
 166 287 l 1,11,-1
 159 287 l 1,12,-1
 159 284 l 1,13,-1
 157 276 l 1,14,-1
 144 234 l 1,15,-1
 182 234 l 1,16,-1
 168 275 l 2,8,9
259 189 m 2,17,-1
 256 189 l 2,18,19
 254.125 188.875 254.125 188.875 252.21875 188.875 c 0,20,21
 238.875 188.875 238.875 188.875 224 195 c 2,22,-1
 222 196 l 1,23,-1
 222 220 l 1,24,-1
 219 222 l 1,25,-1
 228 227 l 1,26,-1
 228 223 l 1,27,28
 241 214 241 214 254 214 c 0,29,30
 262 214 262 214 267 217 c 0,31,32
 269 219 269 219 269 222 c 128,-1,33
 269 225 269 225 267 229 c 0,34,35
 258 235 258 235 248 239 c 0,36,37
 219.933333333 250.026190476 219.933333333 250.026190476 219.933333333 276.233333333 c 0,38,39
 219.933333333 291.633333333 219.933333333 291.633333333 233 300.5 c 0,40,41
 245.666666667 309.095238095 245.666666667 309.095238095 262.426303855 309.095238095 c 0,42,43
 264.19047619 309.095238095 264.19047619 309.095238095 266 309 c 0,44,45
 280 309 280 309 293 305 c 2,46,-1
 295 304 l 1,47,-1
 295 274 l 1,48,-1
 290 277 l 2,49,50
 280 284 280 284 266 284 c 0,51,52
 259 284 259 284 254.5 281.5 c 128,-1,53
 250 279 250 279 250 275.5 c 128,-1,54
 250 272 250 272 252 270 c 0,55,56
 261 264 261 264 269 261 c 0,57,58
 282 256 282 256 293 246 c 0,59,60
 299.25 236.625 299.25 236.625 299.25 221.09375 c 0,61,62
 299.25 207.75 299.25 207.75 287 199 c 0,63,64
 277 189 277 189 259 189 c 2,17,-1
343 191 m 1,65,-1
 313 191 l 1,66,-1
 313 307 l 1,67,-1
 354 307 l 2,68,69
 379 307 379 307 388.5 296 c 128,-1,70
 398 285 398 285 398 269 c 0,71,72
 398 261 398 261 394.5 253 c 128,-1,73
 391 245 391 245 384 240 c 0,74,75
 371.076923077 228.923076923 371.076923077 228.923076923 353.893491124 228.923076923 c 0,76,77
 352.461538462 228.923076923 352.461538462 228.923076923 351 229 c 2,78,-1
 343 229 l 1,79,-1
 343 191 l 1,65,-1
373 268 m 0,80,81
 373 277 373 277 368 283 c 0,82,83
 361 288 361 288 349 288 c 2,84,-1
 339 288 l 1,85,-1
 339 285 l 1,86,-1
 336 285 l 1,87,-1
 336 246 l 1,88,-1
 349 246 l 2,89,90
 373 246 373 246 373 268 c 0,80,81
EndSplineSet
EndChar

StartChar: audio
Encoding: 57348 57348 4
Width: 516
GlyphClass: 1
Flags: W
LayerCount: 2
Fore
SplineSet
254 148 m 2,0,1
 253 148 253 148 250 150 c 2,2,-1
 247 152 l 1,3,4
 204 189 204 189 182 207 c 0,5,6
 181 208 181 208 179 208 c 2,7,-1
 121 208 l 2,8,9
 114 208 114 208 111 215 c 2,10,-1
 111 295 l 2,11,12
 111 306 111 306 122 306 c 2,13,-1
 181 306 l 2,14,15
 184 306 184 306 184 308 c 2,16,-1
 247 363 l 2,17,18
 251.666666667 366.266666667 251.666666667 366.266666667 255.462222222 366.266666667 c 0,19,20
 259.8 366.266666667 259.8 366.266666667 263 362 c 0,21,22
 265 360 265 360 265 356 c 2,23,-1
 265 159 l 2,24,25
 265 151 265 151 259 150 c 0,26,27
 257 150 257 150 256 148 c 2,28,-1
 254 148 l 2,0,1
390 256 m 2,29,30
 390 247 390 247 388 243 c 0,31,32
 387 218 387 218 376 193 c 0,33,34
 367 170 367 170 354 156 c 0,35,36
 352 152 352 152 345 150 c 0,37,38
 340 150 340 150 336 154 c 0,39,40
 334 156 334 156 334 159 c 128,-1,41
 334 162 334 162 336 164 c 2,42,-1
 341 172 l 2,43,44
 362 202 362 202 366 235 c 0,45,46
 367.391304348 245.956521739 367.391304348 245.956521739 367.391304348 256.519848771 c 0,47,48
 367.391304348 306.695652174 367.391304348 306.695652174 336 348 c 0,49,50
 330 355 330 355 336 360 c 0,51,52
 339 365 339 365 343.5 365 c 128,-1,53
 348 365 348 365 352 360 c 0,54,55
 369 339 369 339 376 320 c 0,56,57
 387 295 387 295 388 267 c 2,58,-1
 388 257 l 1,59,-1
 390 257 l 1,60,-1
 390 256 l 2,29,30
352 259 m 0,61,62
 352 216 352 216 329 182 c 0,63,64
 327 178 327 178 320 177 c 0,65,66
 315 177 315 177 310.5 181 c 128,-1,67
 306 185 306 185 311 191 c 1,68,-1
 311 195 l 1,69,70
 327 215 327 215 331 243 c 0,71,72
 332.125 251.0625 332.125 251.0625 332.125 258.94921875 c 0,73,74
 332.125 293.125 332.125 293.125 311 324 c 0,75,76
 308 329 308 329 308 333 c 0,77,78
 310 339 310 339 316 341 c 128,-1,79
 322 343 322 343 326 337 c 2,80,-1
 338 317 l 2,81,82
 351 290 351 290 351 268 c 0,83,84
 352 263 352 263 352 259 c 0,61,62
313 257 m 0,85,86
 313 230 313 230 299 209 c 0,87,88
 298 206 298 206 294 204.5 c 128,-1,89
 290 203 290 203 286 205.5 c 128,-1,90
 282 208 282 208 280.5 211.5 c 128,-1,91
 279 215 279 215 283 220 c 0,92,93
 290 231 290 231 292 247 c 0,94,95
 293.315789474 253.578947368 293.315789474 253.578947368 293.315789474 260.019390582 c 0,96,97
 293.315789474 278.052631579 293.315789474 278.052631579 283 295 c 0,98,99
 280 299 280 299 281 303 c 128,-1,100
 282 307 282 307 285 309 c 128,-1,101
 288 311 288 311 293 310.5 c 128,-1,102
 298 310 298 310 299 306 c 0,103,104
 305 297 305 297 311 279 c 0,105,106
 313 263 313 263 313 257 c 0,85,86
EndSplineSet
EndChar

StartChar: babel
Encoding: 57349 57349 5
Width: 1323
GlyphClass: 1
Flags: W
LayerCount: 2
Fore
SplineSet
314 294 m 1,0,-1
 314 295 l 1,1,-1
 313 295 l 1,2,-1
 313 294 l 1,3,-1
 314 294 l 1,0,-1
321 277 m 1,4,-1
 321 276 l 1,5,-1
 322 277 l 1,6,-1
 322 278 l 1,7,-1
 321 277 l 1,4,-1
293 255 m 1,8,9
 293 256 293 256 287 262 c 0,10,11
 287 263 287 263 291 266 c 2,12,-1
 299 272 l 2,13,14
 301 276 301 276 302 283 c 2,15,-1
 302 284 l 2,16,17
 301 289 301 289 294 292 c 0,18,19
 290 295 290 295 280.5 294.5 c 128,-1,20
 271 294 271 294 256 289 c 0,21,22
 253 286 253 286 248 283 c 1,23,-1
 250 283 l 1,24,25
 250 282 250 282 244 278 c 1,26,-1
 244 277 l 1,27,-1
 242 277 l 1,28,-1
 243 276 l 1,29,-1
 239 275 l 1,30,-1
 240 276 l 1,31,32
 242 285 242 285 243 292 c 1,33,-1
 240 295 l 1,34,-1
 240 297 l 1,35,-1
 239 297 l 1,36,37
 235 290 235 290 222 273 c 0,38,39
 212 262 212 262 212 260 c 2,40,-1
 208 256 l 2,41,42
 207 255 207 255 207 254 c 1,43,-1
 207 254 l 1,44,45
 205 252 205 252 201 251 c 2,46,-1
 199 250 l 1,47,-1
 199 249 l 1,48,-1
 200 249 l 1,49,-1
 198 248 l 1,50,-1
 194 248 l 1,51,-1
 192 247 l 1,52,-1
 193 247 l 1,53,-1
 191 247 l 2,54,55
 189 246 189 246 188 247 c 1,56,-1
 188 246 l 1,57,-1
 188 247 l 1,58,-1
 186 247 l 1,59,60
 186 248 186 248 179 256 c 0,61,62
 179 258 179 258 184 261 c 2,63,-1
 194 269 l 2,64,65
 197 274 197 274 198 283 c 2,66,-1
 198 285 l 2,67,68
 197 291 197 291 188 295 c 0,69,70
 183 299 183 299 169 299 c 0,71,72
 157 298 157 298 138 291 c 1,73,-1
 127 284 l 1,74,-1
 127 283 l 1,75,-1
 128 284 l 1,76,-1
 130 283 l 2,77,78
 130 282 130 282 122 277 c 1,79,-1
 122 276 l 1,80,-1
 120 276 l 1,81,-1
 120 274 l 1,82,-1
 119 275 l 2,83,84
 117 274 117 274 114 271 c 2,85,-1
 114 270 l 1,86,-1
 117 272 l 1,87,-1
 117 271 l 1,88,-1
 116 270 l 1,89,-1
 117 269 l 1,90,91
 120 272 120 272 123 274 c 0,92,93
 124 274 124 274 125 273 c 1,94,-1
 125 273 l 1,95,96
 134 280 134 280 143 283 c 1,97,-1
 143 282 l 2,98,99
 141 280 141 280 141 279 c 2,100,-1
 141 278 l 1,101,-1
 134 258 l 2,102,103
 115 215 115 215 103 195 c 1,104,-1
 103 194 l 1,105,-1
 107 195 l 1,106,-1
 110 195 l 1,107,-1
 110 194 l 2,108,109
 110 193 110 193 109 191 c 2,110,-1
 106 185 l 1,111,-1
 107 185 l 1,112,113
 112 190 112 190 115 195 c 0,114,115
 129 199 129 199 137 204 c 0,116,117
 144 204 144 204 148 208 c 1,118,-1
 146 207 l 1,119,-1
 146 208 l 1,120,121
 151 209 151 209 153 210 c 0,122,123
 164 219 164 219 170 222 c 0,124,125
 181 231 181 231 185 239 c 1,126,-1
 194 240 l 1,127,-1
 193 240 l 1,128,-1
 194 240 l 1,129,-1
 194 239 l 1,130,-1
 181 219 l 1,131,-1
 177 210 l 1,132,-1
 179 211 l 1,133,-1
 178 209 l 1,134,-1
 179 209 l 1,135,-1
 179 207 l 1,136,137
 181 209 181 209 180 209 c 1,138,-1
 182 209 l 1,139,-1
 182 207 l 1,140,-1
 182 208 l 2,141,142
 184 210 184 210 193 222 c 0,143,144
 203 237 203 237 208 242 c 0,145,146
 207 244 207 244 222 248 c 1,147,-1
 223 248 l 1,148,149
 223 246 223 246 220 237 c 0,150,151
 218 231 218 231 219 231 c 1,152,-1
 216 223 l 1,153,-1
 213 211 l 2,154,155
 209 202 209 202 207 192 c 1,156,-1
 209 192 l 1,157,-1
 209 193 l 1,158,-1
 211 193 l 1,159,-1
 212 195 l 2,160,161
 212 197 212 197 213 197 c 0,162,163
 214 203 214 203 215 203 c 2,164,-1
 216 209 l 1,165,-1
 219 217 l 1,166,-1
 219 214 l 2,167,168
 216 202 216 202 213 196 c 1,169,-1
 214 194 l 1,170,171
 221 207 221 207 233 248 c 0,172,173
 233 252 233 252 236 253 c 2,174,-1
 236 254 l 1,175,-1
 235 254 l 1,176,-1
 237 255 l 2,177,178
 237 256 237 256 235 256 c 1,179,-1
 239 273 l 2,180,181
 240 274 240 274 241 274 c 1,182,-1
 241 273 l 1,183,-1
 240 273 l 1,184,-1
 240 272 l 1,185,186
 242 274 242 274 245 276 c 0,187,188
 246 276 246 276 246 275 c 1,189,-1
 247 275 l 1,190,191
 254 280 254 280 260 282 c 1,192,-1
 259 280 l 2,193,194
 258 279 258 279 258.5 278.5 c 128,-1,195
 259 278 259 278 253 264 c 0,196,197
 239 231 239 231 230 216 c 1,198,-1
 230 215 l 1,199,-1
 233 216 l 1,200,-1
 235 216 l 1,201,-1
 235 215 l 2,202,203
 235 214 235 214 234 213 c 2,204,-1
 232 208 l 1,205,-1
 233 208 l 1,206,207
 237 212 237 212 238 216 c 2,208,-1
 255 221 l 2,209,210
 261 223 261 223 264 225 c 2,211,-1
 264 226 l 1,212,-1
 262 225 l 1,213,214
 266 226 266 226 268 227 c 0,215,216
 276 234 276 234 281 236 c 0,217,218
 294 246 294 246 293 255 c 1,219,-1
 293 255 l 1,8,9
291 255 m 1,220,-1
 292 252 l 1,221,-1
 291 251 l 1,222,-1
 290 255 l 1,223,-1
 291 255 l 1,220,-1
119 273 m 1,224,-1
 118 273 l 1,225,-1
 118 274 l 1,226,-1
 120 274 l 1,227,-1
 120 273 l 1,228,-1
 119 273 l 1,224,-1
111 196 m 1,229,230
 110 197 110 197 109 197 c 1,231,-1
 109 198 l 2,232,233
 108 199 108 199 109 199 c 128,-1,234
 110 199 110 199 110 198 c 1,235,-1
 112 200 l 1,236,-1
 113 200 l 1,237,238
 113 196 113 196 111 196 c 1,239,-1
 111 196 l 1,229,230
193 282 m 1,240,-1
 191 286 l 1,241,-1
 191 286 l 1,242,243
 192 287 192 287 193 283 c 2,244,-1
 193 282 l 1,240,-1
192 291 m 1,245,-1
 192 290 l 1,246,-1
 181 295 l 1,247,248
 192 294 192 294 192 291 c 1,249,-1
 192 291 l 1,245,-1
145 250 m 1,250,-1
 143 250 l 1,251,-1
 143 251 l 1,252,-1
 145 251 l 1,253,-1
 145 250 l 1,250,-1
144 274 m 1,254,-1
 144 274 l 1,255,-1
 144 273 l 1,256,-1
 143 272 l 1,257,-1
 143 273 l 1,258,-1
 144 274 l 1,254,-1
140 267 m 1,259,-1
 141 265 l 1,260,-1
 140 265 l 1,261,-1
 140 267 l 1,259,-1
139 264 m 1,262,-1
 139 264 l 1,263,264
 139 262 139 262 138 262 c 1,265,-1
 138 262 l 1,266,267
 139 263 139 263 139 264 c 1,268,-1
 139 264 l 1,262,-1
137 260 m 1,269,-1
 138 260 l 1,270,-1
 136 258 l 1,271,-1
 136 259 l 1,272,273
 138 259 138 259 137 260 c 1,274,-1
 137 260 l 1,269,-1
136 256 m 1,275,-1
 136 255 l 1,276,-1
 135 255 l 1,277,-1
 135 256 l 1,278,-1
 136 256 l 1,275,-1
123 220 m 1,279,280
 123 216 123 216 122 216 c 1,281,-1
 122 217 l 2,282,283
 121 218 121 218 123 220 c 1,284,-1
 123 220 l 1,279,280
121 215 m 1,285,-1
 121 215 l 1,286,287
 121 214 121 214 120 214 c 1,288,-1
 120 214 l 1,289,290
 120 215 120 215 121 215 c 1,291,-1
 121 215 l 1,285,-1
120 204 m 1,292,-1
 121 205 l 1,293,-1
 121 204 l 1,294,-1
 120 204 l 1,292,-1
154 215 m 1,295,296
 144 210 144 210 142 208 c 0,297,298
 131 204 131 204 131 203 c 0,299,300
 122 200 122 200 119 198 c 0,301,302
 118 198 118 198 117.5 199 c 128,-1,303
 117 200 117 200 119 202 c 0,304,305
 120 202 120 202 122 201 c 0,306,307
 123 202 123 202 128 203 c 1,308,-1
 128 204 l 1,309,-1
 126 204 l 1,310,-1
 132 207 l 1,311,-1
 134 207 l 1,312,313
 130 206 130 206 130 205 c 128,-1,314
 130 204 130 204 131 204 c 2,315,-1
 133 206 l 2,316,317
 138 207 138 207 157 219 c 1,318,-1
 157 218 l 2,319,320
 157 217 157 217 154 215 c 1,321,-1
 154 215 l 1,295,296
134 208 m 2,322,323
 137 209 137 209 138.5 210 c 128,-1,324
 140 211 140 211 140 210 c 1,325,326
 138 210 138 210 134 208 c 1,327,-1
 134 207 l 1,328,-1
 134 208 l 2,322,323
166 233 m 1,329,-1
 156 225 l 2,330,331
 145 218 145 218 144 218 c 0,332,333
 126 208 126 208 122 208 c 1,334,-1
 122 208 l 1,335,336
 122 210 122 210 138 240 c 1,337,338
 144 241 144 241 159 246 c 2,339,-1
 161 247 l 2,340,341
 169 247 169 247 172 244 c 2,342,-1
 172 242 l 2,343,344
 169 234 169 234 166 233 c 1,345,-1
 166 233 l 1,329,-1
147 244 m 1,346,-1
 148 244 l 1,347,-1
 147 244 l 1,346,-1
169 248 m 1,348,-1
 171 248 l 1,349,-1
 172 247 l 1,350,-1
 172 246 l 1,351,352
 171 246 171 246 169 248 c 1,353,-1
 169 248 l 1,348,-1
173 266 m 2,354,355
 171 265 171 265 164 260 c 0,356,357
 162 260 162 260 147 253 c 0,358,359
 146 254 146 254 145 254 c 1,360,-1
 145 254 l 1,361,362
 145 256 145 256 147 260 c 0,363,364
 148 266 148 266 149 267 c 2,365,-1
 158 285 l 2,366,367
 158 287 158 287 163 288 c 2,368,-1
 164 288 l 1,369,-1
 164 287 l 1,370,-1
 171 288 l 2,371,372
 181 289 181 289 181 284 c 1,373,-1
 182 284 l 1,374,-1
 182 286 l 1,375,-1
 183 286 l 2,376,377
 186 284 186 284 186 282.5 c 128,-1,378
 186 281 186 281 184 278 c 1,379,-1
 184 279 l 1,380,-1
 183 279 l 1,381,-1
 183 277 l 1,382,383
 177 270 177 270 175 269 c 2,384,-1
 173 266 l 2,354,355
178 253 m 1,385,386
 177 254 177 254 176 254 c 1,387,-1
 176 255 l 1,388,-1
 177 255 l 1,389,-1
 178 254 l 2,390,391
 179 253 179 253 178 253 c 1,392,-1
 178 253 l 1,385,386
183 247 m 1,393,394
 184 247 184 247 184 246 c 2,395,-1
 183 245 l 1,396,-1
 183 247 l 1,393,394
184 244 m 1,397,-1
 184 244 l 1,398,-1
 184 245 l 1,399,-1
 184 244 l 1,397,-1
186 241 m 1,400,401
 187 241 187 241 189 242 c 1,402,-1
 186 241 l 1,400,401
189 240 m 2,403,404
 187 240 187 240 186 239 c 1,405,-1
 186 240 l 1,406,-1
 190 241 l 1,407,-1
 190 240 l 1,408,-1
 189 240 l 2,403,404
192 241 m 1,409,-1
 191 241 l 1,410,-1
 193 241 l 1,411,-1
 192 241 l 1,409,-1
201 250 m 1,412,-1
 201 250 l 1,413,-1
 202 250 l 1,414,-1
 201 250 l 1,412,-1
210 195 m 1,415,-1
 210 196 l 1,416,-1
 210 196 l 1,417,418
 211 196 211 196 211 195 c 1,419,-1
 210 195 l 1,415,-1
216 247 m 1,420,-1
 215 247 l 2,421,422
 214 247 214 247 213 246 c 2,423,-1
 212 246 l 1,424,-1
 211 247 l 1,425,-1
 217 248 l 1,426,427
 216 248 216 248 216 247 c 1,428,-1
 216 247 l 1,420,-1
219 248 m 1,429,-1
 219 249 l 1,430,-1
 223 250 l 1,431,-1
 223 249 l 1,432,433
 220 249 220 249 219 248 c 1,434,-1
 219 248 l 1,429,-1
219 254 m 1,435,-1
 219 254 l 1,436,-1
 217 254 l 1,437,438
 217 255 217 255 224 256 c 2,439,-1
 225 256 l 1,440,-1
 219 254 l 1,435,-1
227 263 m 1,441,442
 227 257 227 257 224 257 c 2,443,-1
 222 256 l 1,444,-1
 219 256 l 1,445,-1
 219 257 l 1,446,-1
 228 269 l 1,447,-1
 229 269 l 1,448,449
 229 267 229 267 227 263 c 1,450,-1
 227 263 l 1,441,442
242 275 m 1,451,-1
 241 275 l 1,452,-1
 241 276 l 1,453,-1
 243 276 l 1,454,-1
 243 275 l 1,455,-1
 242 275 l 1,451,-1
236 217 m 1,456,-1
 234 217 l 1,457,-1
 234 218 l 1,458,-1
 235 219 l 1,459,-1
 235 218 l 1,460,-1
 237 220 l 1,461,-1
 237 219 l 2,462,463
 237 217 237 217 236 217 c 1,464,-1
 236 217 l 1,456,-1
298 282 m 1,465,-1
 297 284 l 1,466,-1
 296 285 l 1,467,468
 297 285 297 285 298 282 c 1,469,-1
 298 282 l 1,465,-1
297 288 m 1,470,-1
 297 288 l 1,471,-1
 289 291 l 1,472,473
 297 291 297 291 297 288 c 1,474,-1
 297 288 l 1,470,-1
262 258 m 1,475,-1
 260 258 l 1,476,-1
 262 258 l 1,475,-1
261 276 m 1,477,-1
 261 276 l 1,478,-1
 261 275 l 1,479,-1
 260 274 l 1,480,-1
 260 275 l 1,481,-1
 261 276 l 1,477,-1
258 270 m 1,482,-1
 258 269 l 1,483,-1
 258 270 l 1,482,-1
257 268 m 1,484,-1
 257 268 l 1,485,-1
 257 266 l 1,486,-1
 256 266 l 1,487,488
 257 267 257 267 257 268 c 1,489,-1
 257 268 l 1,484,-1
256 265 m 1,490,-1
 256 265 l 1,491,-1
 256 264 l 1,492,-1
 255 264 l 1,493,494
 256 264 256 264 256 265 c 1,495,-1
 256 265 l 1,490,-1
255 263 m 1,496,-1
 255 261 l 1,497,-1
 254 261 l 1,498,-1
 254 263 l 1,499,-1
 255 263 l 1,496,-1
245 235 m 1,500,-1
 244 232 l 1,501,-1
 244 232 l 1,502,503
 244 234 244 234 245 235 c 1,504,-1
 245 235 l 1,500,-1
243 231 m 1,505,-1
 243 231 l 1,506,-1
 243 230 l 1,507,-1
 243 231 l 1,505,-1
243 223 m 1,508,-1
 244 223 l 1,509,-1
 244 223 l 1,510,511
 243 223 243 223 243 222 c 1,512,-1
 242 222 l 1,513,514
 242 223 242 223 243 223 c 1,515,-1
 243 223 l 1,508,-1
269 231 m 1,516,-1
 259 226 l 2,517,518
 251 223 251 223 251 222 c 2,519,-1
 242 218 l 1,520,-1
 240 218 l 1,521,522
 240 220 240 220 242 221 c 2,523,-1
 249 222 l 1,524,-1
 249 223 l 1,525,-1
 247 222 l 1,526,527
 247 223 247 223 252 225 c 2,528,-1
 253 225 l 1,529,-1
 250 223 l 1,530,-1
 251 223 l 1,531,-1
 253 224 l 2,532,533
 256 225 256 225 271 234 c 1,534,-1
 271 233 l 1,535,-1
 269 231 l 1,516,-1
253 226 m 1,536,537
 255 226 255 226 257 227 c 2,538,-1
 258 227 l 1,539,540
 257 227 257 227 254 225 c 2,541,-1
 253 225 l 1,542,-1
 253 226 l 1,536,537
278 245 m 1,543,-1
 270 239 l 2,544,545
 262 233 262 233 261 233 c 0,546,547
 248 226 248 226 244 225 c 1,548,-1
 244 225 l 1,549,550
 244 227 244 227 256 250 c 1,551,552
 261 250 261 250 272 255 c 1,553,-1
 274 255 l 2,554,555
 280 256 280 256 282 253 c 2,556,-1
 282 252 l 2,557,558
 280 246 280 246 278 245 c 1,559,-1
 278 245 l 1,543,-1
263 253 m 1,560,-1
 264 253 l 1,561,-1
 263 253 l 1,560,-1
280 256 m 1,562,-1
 281 256 l 2,563,564
 282 256 282 256 282 255 c 1,565,-1
 282 255 l 1,566,567
 281 255 281 255 280 256 c 1,568,-1
 280 256 l 1,562,-1
283 270 m 2,569,570
 281 269 281 269 276 265 c 0,571,572
 274 265 274 265 263 260 c 1,573,-1
 262 260 l 1,574,-1
 263 265 l 2,575,576
 264 270 264 270 265 270 c 2,577,-1
 271 284 l 2,578,579
 271 286 271 286 276 287 c 1,580,-1
 276 286 l 1,581,-1
 281 286 l 2,582,583
 289 287 289 287 289 283 c 1,584,-1
 290 284 l 1,585,-1
 290 285 l 1,586,587
 293 284 293 284 293 282.5 c 128,-1,588
 293 281 293 281 291 279 c 1,589,-1
 291 280 l 1,590,-1
 290 280 l 1,591,-1
 290 278 l 1,592,593
 286 272 286 272 285 272 c 2,594,-1
 283 270 l 2,569,570
285 260 m 1,595,-1
 285 261 l 1,596,-1
 287 261 l 1,597,-1
 287 260 l 1,598,-1
 285 260 l 1,595,-1
179 205 m 1,599,-1
 178 205 l 1,600,-1
 178 205 l 1,601,602
 178 204 178 204 178.5 204 c 128,-1,603
 179 204 179 204 179 205 c 1,604,-1
 179 205 l 1,599,-1
177 209 m 1,605,-1
 177 209 l 1,606,-1
 177 210 l 1,607,-1
 177 209 l 1,605,-1
193 248 m 1,608,-1
 194 248 l 1,609,-1
 193 249 l 1,610,-1
 193 248 l 1,608,-1
400 230 m 1,611,612
 396 229 396 229 393 229 c 1,613,614
 395 229 395 229 391 229 c 1,615,-1
 391 228 l 1,616,-1
 392 228 l 1,617,-1
 392 229 l 1,618,-1
 400 230 l 1,611,612
362 225 m 1,619,-1
 363 225 l 1,620,-1
 362 225 l 1,619,-1
358 241 m 1,621,-1
 358 241 l 1,622,623
 357 239 357 239 357 238 c 1,624,-1
 357 238 l 1,625,626
 358 238 358 238 358 241 c 1,627,-1
 358 241 l 1,621,-1
401 231 m 1,628,-1
 401 230 l 1,629,-1
 402 230 l 1,630,-1
 401 231 l 1,628,-1
354 225 m 1,631,-1
 353 225 l 1,632,-1
 352 224 l 1,633,-1
 361 225 l 1,634,-1
 354 225 l 1,631,-1
350 245 m 1,635,-1
 350 245 l 1,636,-1
 349 245 l 1,637,-1
 349 244 l 1,638,639
 350 244 350 244 350 245 c 1,640,-1
 350 245 l 1,635,-1
406 235 m 1,641,-1
 406 235 l 1,642,-1
 407 235 l 1,643,-1
 406 236 l 2,644,645
 404 236 404 236 403 235 c 2,646,-1
 401 235 l 1,647,648
 401 236 401 236 400 236 c 2,649,-1
 399 236 l 2,650,651
 397 236 397 236 397 235 c 1,652,-1
 397 236 l 1,653,-1
 396 236 l 1,654,-1
 395 235 l 1,655,-1
 394 235 l 1,656,-1
 393 236 l 1,657,-1
 393 235 l 1,658,-1
 394 235 l 1,659,660
 394 234 394 234 395 235 c 2,661,-1
 396 235 l 1,662,663
 394 234 394 234 390 234 c 2,664,-1
 389 234 l 1,665,-1
 391 234 l 1,666,-1
 392 235 l 1,667,-1
 386 235 l 1,668,669
 370.888888889 233.222222222 370.888888889 233.222222222 370 233.222222222 c 0,670,671
 368.888888889 233.222222222 368.888888889 233.222222222 390 236 c 2,672,-1
 396 237 l 1,673,-1
 400 237 l 1,674,675
 400 238 400 238 401 238 c 1,676,-1
 401 239 l 1,677,-1
 382 236 l 1,678,679
 384 237 384 237 379 236 c 0,680,681
 378 235 378 235 375 235 c 2,682,-1
 372 235 l 1,683,-1
 370 234 l 1,684,-1
 370 235 l 1,685,686
 368 234 368 234 367 234 c 2,687,-1
 354 234 l 1,688,689
 355 237 355 237 356 237 c 1,690,-1
 356 237 l 1,691,-1
 356 237 l 1,692,-1
 356 237 l 1,693,694
 357 237 357 237 357 238 c 1,695,-1
 356 238 l 1,696,-1
 356 239 l 1,697,-1
 358 242 l 1,698,-1
 358 241 l 1,699,-1
 359 241 l 1,700,-1
 358 242 l 1,701,-1
 359 243 l 1,702,-1
 358 243 l 1,703,-1
 358 244 l 2,704,705
 361 250 361 250 361 251 c 1,706,-1
 361 250 l 1,707,708
 362 250 362 250 362 251 c 1,709,-1
 361 251 l 1,710,711
 361 252 361 252 362 253 c 128,-1,712
 363 254 363 254 363 255 c 1,713,-1
 363 255 l 1,714,715
 365 256 365 256 365 259 c 0,716,717
 367 263 367 263 371 274 c 2,718,-1
 375 287 l 1,719,-1
 377 292 l 1,720,-1
 376 292 l 1,721,-1
 376 291 l 1,722,-1
 375 291 l 1,723,724
 375 293 375 293 376 296 c 2,725,-1
 377 296 l 1,726,-1
 377 294 l 1,727,-1
 378 294 l 1,728,-1
 378 296 l 2,729,730
 378 297 378 297 377 297 c 1,731,-1
 377 296 l 1,732,-1
 377 299 l 2,733,734
 376 300 376 300 376 301 c 1,735,-1
 373 300 l 1,736,737
 373 301 373 301 372.5 301.5 c 128,-1,738
 372 302 372 302 375 302 c 2,739,-1
 377 302 l 1,740,-1
 377 303 l 1,741,-1
 374 303 l 1,742,-1
 373 302 l 1,743,-1
 373 303 l 1,744,-1
 344 301 l 2,745,746
 344 300 344 300 343 300 c 1,747,-1
 343 301 l 1,748,-1
 340 300 l 1,749,-1
 336 300 l 2,750,751
 333 299 333 299 343 300 c 1,752,-1
 341 300 l 2,753,754
 340 299 340 299 340 300 c 1,755,756
 339 299 339 299 335 299 c 2,757,-1
 324 297 l 1,758,-1
 323 298 l 1,759,-1
 314 295 l 1,760,-1
 315 294 l 1,761,-1
 316 295 l 1,762,-1
 318 294 l 1,763,-1
 317 293 l 2,764,765
 315 291 315 291 315 289 c 0,766,767
 311 288 311 288 311 287 c 1,768,-1
 312 287 l 1,769,-1
 313 286 l 1,770,-1
 313 285 l 2,771,772
 313 284 313 284 300 258 c 2,773,-1
 288 230 l 2,774,775
 284 229 284 229 284 227.5 c 128,-1,776
 284 226 284 226 286 226 c 1,777,-1
 286 223 l 2,778,779
 286 222 286 222 291 221 c 1,780,-1
 291 222 l 1,781,782
 292 221 292 221 291 217 c 1,783,-1
 291 217 l 1,784,785
 294 220 294 220 293 221 c 1,786,-1
 294 221 l 1,787,-1
 295 220 l 1,788,789
 294 220 294 220 290 209 c 1,790,-1
 291 209 l 1,791,-1
 297 223 l 1,792,793
 304 223 304 223 320 225 c 2,794,-1
 322 225 l 1,795,-1
 322 226 l 1,796,797
 322 225 322 225 323 225 c 2,798,-1
 331 226 l 2,799,800
 334 226 334 226 334 228 c 2,801,-1
 338 229 l 1,802,-1
 343 229 l 1,803,804
 343 231 343 231 344 231 c 1,805,-1
 344 232 l 1,806,-1
 339 232 l 2,807,808
 338 232 338 232 337 231 c 2,809,-1
 326 231 l 1,810,811
 337 232 337 232 336 234 c 1,812,-1
 340 234 l 1,813,-1
 339 235 l 1,814,-1
 317 234 l 2,815,816
 314 234 314 234 312 233 c 2,817,-1
 301 233 l 1,818,819
 301 235 301 235 308 250 c 0,820,821
 310 255 310 255 312 256 c 2,822,-1
 317 257 l 2,823,824
 321 257 321 257 326 259 c 2,825,-1
 336 260 l 2,826,827
 340 260 340 260 345 262 c 1,828,-1
 345 263 l 1,829,830
 343 262 343 262 343 263 c 128,-1,831
 343 264 343 264 340 264 c 1,832,-1
 340 265 l 1,833,-1
 347 266 l 1,834,-1
 344 266 l 1,835,-1
 344 267 l 1,836,-1
 346 267 l 1,837,-1
 346 268 l 1,838,-1
 343 268 l 2,839,840
 330.5 267.5 330.5 267.5 324 267.5 c 128,-1,841
 317.5 267.5 317.5 267.5 317 268 c 1,842,-1
 316 267 l 1,843,-1
 316 268 l 1,844,845
 323 282 323 282 324 282 c 1,846,-1
 323 281 l 1,847,-1
 323 280 l 1,848,-1
 324 280 l 1,849,850
 326 287 326 287 328 287 c 2,851,-1
 331 287 l 1,852,-1
 332 288 l 2,853,854
 334 289 334 289 339 289 c 2,855,-1
 340 289 l 2,856,857
 347 291 347 291 358 292 c 1,858,-1
 358 293 l 1,859,-1
 354 292 l 1,860,-1
 354 293 l 1,861,-1
 356 293 l 2,862,863
 357 294 357 294 358 293 c 0,864,865
 360 294 360 294 361 294 c 2,866,-1
 364 294 l 1,867,-1
 365 295 l 1,868,869
 364 295 364 295 363 296 c 1,870,-1
 368 297 l 1,871,-1
 370 298 l 1,872,873
 370 297 370 297 371 297 c 2,874,-1
 372 298 l 1,875,876
 372 296 372 296 371 295 c 2,877,-1
 370 295 l 1,878,-1
 370 296 l 1,879,-1
 362 276 l 1,880,-1
 354 254 l 2,881,882
 353 253 353 253 354 253 c 1,883,884
 354 251 354 251 353 248 c 0,885,886
 349 238 349 238 347 236 c 2,887,-1
 348 233 l 2,888,889
 348 232 348 232 347 232 c 1,890,-1
 347 232 l 1,891,892
 347 234 347 234 346 234 c 1,893,-1
 346 234 l 1,894,895
 344 232 344 232 344 229 c 1,896,-1
 344 229 l 1,897,898
 346 230 346 230 345 231 c 1,899,-1
 347 231 l 1,900,-1
 347 228 l 1,901,-1
 346 227 l 1,902,-1
 346 226 l 1,903,904
 347 227 347 227 348 226.5 c 128,-1,905
 349 226 349 226 350 227 c 2,906,-1
 366 227 l 1,907,-1
 367 228 l 1,908,-1
 367 227 l 1,909,910
 369 228 369 228 372 227 c 1,911,-1
 370 227 l 1,912,-1
 370 226 l 1,913,-1
 372 227 l 1,914,-1
 372 226 l 1,915,-1
 367 226 l 1,916,917
 367 225 367 225 368 225 c 2,918,-1
 373 226 l 1,919,-1
 378 226 l 1,920,-1
 382 227 l 1,921,-1
 390 228 l 1,922,-1
 390 229 l 1,923,-1
 382 228 l 1,924,-1
 382 229 l 1,925,-1
 395 230 l 2,926,927
 398 230 398 230 405 232 c 2,928,-1
 406 232 l 1,929,930
 406 231 406 231 407 234 c 1,931,-1
 401 234 l 1,932,-1
 403 234 l 2,933,934
 405 234 405 234 406 235 c 1,935,-1
 406 235 l 1,936,-1
 406 235 l 1,937,-1
 406 235 l 1,641,-1
293 233 m 1,938,-1
 292 233 l 1,939,940
 292 234 292 234 294 238 c 1,941,-1
 295 238 l 1,942,943
 295 237 295 237 293 233 c 1,944,-1
 293 233 l 1,938,-1
295 238 m 1,945,-1
 295 238 l 1,946,947
 294 239 294 239 295 239 c 1,948,-1
 295 238 l 1,945,-1
309 227 m 1,949,-1
 309 227 l 1,950,-1
 307 227 l 1,951,-1
 309 227 l 1,949,-1
307 227 m 1,952,-1
 305 226 l 1,953,-1
 302 226 l 1,954,-1
 302 227 l 1,955,-1
 307 227 l 1,952,-1
321 294 m 1,956,-1
 320 294 l 1,957,-1
 320 294 l 1,958,959
 320 295 320 295 321 295 c 2,960,-1
 322 294 l 1,961,-1
 321 294 l 1,956,-1
337 297 m 1,962,-1
 338 297 l 1,963,-1
 338 296 l 1,964,-1
 337 296 l 1,965,-1
 337 297 l 1,962,-1
333 295 m 1,966,-1
 332 296 l 1,967,-1
 332 296 l 1,968,969
 334 296 334 296 336 297 c 1,970,-1
 336 296 l 1,971,-1
 335 296 l 2,972,973
 334 295 334 295 333 295 c 1,974,-1
 333 295 l 1,966,-1
335 290 m 1,975,-1
 335 290 l 1,976,-1
 338 290 l 1,977,-1
 335 290 l 1,975,-1
338 292 m 1,978,-1
 338 292 l 1,979,-1
 340 292 l 1,980,-1
 338 292 l 1,978,-1
339 296 m 1,981,-1
 338 296 l 1,982,-1
 338 297 l 1,983,-1
 341 297 l 1,984,985
 340 297 340 297 339 296 c 1,986,-1
 339 296 l 1,981,-1
340 290 m 1,987,-1
 340 291 l 1,988,-1
 341 291 l 2,989,990
 342 291 342 291 342 290 c 1,991,-1
 340 290 l 1,987,-1
348 301 m 1,992,-1
 346 300 l 1,993,-1
 343 300 l 1,994,995
 347 300 347 300 348 301 c 1,996,-1
 348 301 l 1,992,-1
346 293 m 1,997,-1
 346 293 l 1,998,-1
 344 293 l 1,999,-1
 346 293 l 1,997,-1
350 291 m 1,1000,1001
 350 292 350 292 348 292 c 2,1002,-1
 346 291 l 1,1003,-1
 344 291 l 1,1004,-1
 344 292 l 1,1005,-1
 353 292 l 1,1006,1007
 351 292 351 292 350 291 c 1,1008,-1
 350 291 l 1,1000,1001
373 298 m 1,1009,-1
 373 297 l 1,1010,1011
 375 299 375 299 376 299 c 1,1012,1013
 375 294 375 294 372 291 c 1,1014,-1
 371 292 l 1,1015,1016
 373 296 373 296 373 298 c 1,1017,-1
 373 298 l 1,1009,-1
369 291 m 1,1018,-1
 369 291 l 1,1019,1020
 369 289 369 289 368 289 c 1,1021,-1
 368 290 l 1,1022,-1
 369 291 l 1,1018,-1
366 285 m 2,1023,1024
 367 288 367 288 368 289 c 1,1025,-1
 368 289 l 1,1026,1027
 368 285 368 285 367 285 c 1,1028,-1
 367 284 l 1,1029,-1
 366 282 l 1,1030,-1
 366 285 l 2,1023,1024
365 281 m 1,1031,-1
 365 279 l 1,1032,-1
 365 281 l 1,1031,-1
347 228 m 1,1033,-1
 347 228 l 1,1034,-1
 348 228 l 1,1035,-1
 348 227 l 1,1036,1037
 347 227 347 227 347 228 c 1,1038,-1
 347 228 l 1,1033,-1
373 227 m 1,1039,-1
 373 227 l 1,1040,-1
 372 227 l 1,1041,-1
 372 228 l 1,1042,-1
 375 228 l 1,1043,1044
 374 228 374 228 373 227 c 1,1045,-1
 373 227 l 1,1039,-1
372 228 m 1,1046,-1
 372 228 l 1,1047,-1
 372 228 l 1,1048,-1
 372 228 l 1,1046,-1
372 232 m 1,1049,-1
 370 232 l 1,1050,-1
 372 232 l 1,1051,-1
 373 233 l 1,1052,-1
 376 233 l 1,1053,-1
 376 232 l 1,1054,-1
 372 232 l 1,1049,-1
379 233 m 1,1055,-1
 377 233 l 1,1056,-1
 379 233 l 1,1055,-1
379 233 m 1,1057,-1
 379 233 l 1,1058,-1
 380 233 l 1,1059,-1
 379 233 l 1,1057,-1
381 233 m 1,1060,-1
 381 233 l 1,1061,1062
 381 234 381 234 381.5 234 c 128,-1,1063
 382 234 382 234 382 233 c 1,1064,-1
 381 233 l 1,1060,-1
384 234 m 1,1065,-1
 384 234 l 1,1066,-1
 385 234 l 1,1067,-1
 384 234 l 1,1065,-1
385 234 m 1,1068,-1
 386 234 l 1,1069,-1
 385 234 l 1,1068,-1
368 226 m 1,1070,-1
 368 227 l 1,1071,-1
 368 226 l 1,1070,-1
408 237 m 1,1072,-1
 408 237 l 1,1073,-1
 408 236 l 1,1074,-1
 408 237 l 1,1075,-1
 407 236 l 1,1076,-1
 408 236 l 1,1077,-1
 408 237 l 1,1072,-1
410 235 m 1,1078,-1
 410 235 l 1,1079,-1
 411 235 l 1,1080,-1
 410 235 l 1,1078,-1
408 236 m 1,1081,-1
 408 236 l 1,1082,-1
 408 236 l 1,1083,-1
 408 236 l 1,1081,-1
320 279 m 1,1084,-1
 320 278 l 1,1085,-1
 321 278 l 1,1086,-1
 321 280 l 1,1087,-1
 320 279 l 1,1084,-1
313 296 m 1,1088,-1
 313 297 l 1,1089,-1
 312 296 l 1,1090,-1
 313 296 l 1,1088,-1
292 257 m 1,1091,1092
 292 258 292 258 286 264 c 0,1093,1094
 286 265 286 265 290 267 c 2,1095,-1
 298 274 l 2,1096,1097
 300 277 300 277 301 285 c 2,1098,-1
 301 286 l 2,1099,1100
 300 291 300 291 293 294 c 0,1101,1102
 289 297 289 297 279.5 296.5 c 128,-1,1103
 270 296 270 296 255 291 c 1,1104,-1
 247 285 l 1,1105,-1
 247 284 l 1,1106,-1
 248 285 l 1,1107,-1
 248 284 l 1,1108,-1
 249 285 l 1,1109,-1
 249 284 l 1,1110,-1
 243 280 l 1,1111,-1
 243 279 l 1,1112,-1
 241 279 l 1,1113,-1
 242 278 l 1,1114,-1
 238 277 l 1,1115,-1
 239 278 l 1,1116,1117
 241 287 241 287 241 294 c 2,1118,-1
 239 297 l 1,1119,-1
 239 298 l 1,1120,-1
 238 298 l 1,1121,1122
 234 291 234 291 221 275 c 0,1123,1124
 211 263 211 263 211 262 c 2,1125,-1
 207 258 l 1,1126,-1
 206 256 l 2,1127,1128
 204 253 204 253 201 252 c 2,1129,-1
 198 252 l 1,1130,-1
 198 251 l 1,1131,-1
 199 251 l 1,1132,-1
 197 250 l 1,1133,-1
 193 249 l 1,1134,-1
 191 249 l 1,1135,-1
 192 249 l 1,1136,-1
 190 249 l 2,1137,1138
 188 248 188 248 187 249 c 1,1139,-1
 187 248 l 1,1140,-1
 187 249 l 1,1141,-1
 185 248 l 1,1142,1143
 185 250 185 250 178 258 c 0,1144,1145
 177 259 177 259 183 262 c 2,1146,-1
 193 271 l 2,1147,1148
 196 275 196 275 197 285 c 2,1149,-1
 197 287 l 2,1150,1151
 196 293 196 293 187 297 c 0,1152,1153
 182 301 182 301 167 301 c 0,1154,1155
 156 300 156 300 137 293 c 0,1156,1157
 132 289 132 289 125 286 c 1,1158,-1
 126 285 l 1,1159,-1
 129 285 l 1,1160,1161
 129 284 129 284 120 278 c 1,1162,-1
 121 278 l 1,1163,-1
 120 278 l 1,1164,-1
 119 277 l 1,1165,-1
 120 276 l 1,1166,-1
 118 276 l 2,1167,1168
 116 276 116 276 113 273 c 2,1169,-1
 113 272 l 1,1170,-1
 116 274 l 1,1171,-1
 116 273 l 1,1172,-1
 115 272 l 1,1173,-1
 116 271 l 1,1174,1175
 119 274 119 274 122 276 c 0,1176,1177
 123 276 123 276 123 275 c 1,1178,-1
 124 275 l 1,1179,1180
 133 282 133 282 142 284 c 1,1181,-1
 140 281 l 1,1182,-1
 140 280 l 2,1183,1184
 141 278 141 278 132 260 c 0,1185,1186
 114 217 114 217 102 197 c 1,1187,-1
 102 196 l 1,1188,1189
 106 196 106 196 106 197 c 1,1190,-1
 107 197 l 1,1191,-1
 107 196 l 1,1192,-1
 108 197 l 1,1193,-1
 109 197 l 1,1194,-1
 108 192 l 2,1195,1196
 107 191 107 191 105 187 c 2,1197,-1
 105 186 l 1,1198,-1
 106 186 l 1,1199,1200
 111 192 111 192 114 197 c 0,1201,1202
 128 201 128 201 136 205 c 0,1203,1204
 143 206 143 206 147 209 c 1,1205,-1
 147 210 l 1,1206,-1
 145 209 l 1,1207,1208
 150 210 150 210 152 212 c 2,1209,-1
 169 224 l 2,1210,1211
 180 232 180 232 184 241 c 1,1212,-1
 193 242 l 1,1213,-1
 192 242 l 1,1214,-1
 193 242 l 1,1215,-1
 194 241 l 1,1216,-1
 178 217 l 1,1217,-1
 176 212 l 1,1218,-1
 178 213 l 1,1219,-1
 177 211 l 1,1220,-1
 177 210 l 1,1221,-1
 178 210 l 1,1222,-1
 178 209 l 1,1223,1224
 180 210 180 210 180 211 c 1,1225,-1
 181 211 l 1,1226,1227
 180 211 180 211 180 209 c 1,1228,-1
 181 209 l 2,1229,1230
 184 212 184 212 192 224 c 0,1231,1232
 202 239 202 239 207 244 c 0,1233,1234
 206 246 206 246 221 250 c 1,1235,-1
 222 250 l 1,1236,1237
 222 247 222 247 219 238 c 0,1238,1239
 217 233 217 233 217 232 c 2,1240,-1
 212 213 l 2,1241,1242
 208 204 208 204 206 194 c 1,1243,-1
 208 194 l 1,1244,-1
 208 195 l 1,1245,-1
 210 195 l 1,1246,-1
 211 197 l 2,1247,1248
 211 199 211 199 212 199 c 2,1249,-1
 213 205 l 2,1250,1251
 215 211 215 211 216 211 c 0,1252,1253
 217 219 217 219 218 219 c 2,1254,-1
 219 218 l 1,1255,-1
 218 216 l 2,1256,1257
 215 204 215 204 212 198 c 1,1258,-1
 213 195 l 1,1259,1260
 219 209 219 209 232 250 c 0,1261,1262
 232 253 232 253 235 255 c 1,1263,-1
 234 256 l 1,1264,1265
 236 256 236 256 236 257 c 2,1266,-1
 234 258 l 1,1267,-1
 238 275 l 1,1268,-1
 239 276 l 1,1269,-1
 240 275 l 1,1270,-1
 239 275 l 1,1271,-1
 239 274 l 1,1272,1273
 241 276 241 276 244 278 c 2,1274,-1
 245 277 l 1,1275,-1
 246 277 l 1,1276,1277
 252 282 252 282 259 284 c 1,1278,-1
 259 284 l 1,1279,1280
 258 282 258 282 257 282 c 1,1281,-1
 258 281 l 2,1282,1283
 258 280 258 280 252 266 c 0,1284,1285
 238 233 238 233 229 218 c 1,1286,-1
 229 217 l 1,1287,1288
 231 217 231 217 232 218 c 1,1289,-1
 232 217 l 1,1290,-1
 233 217 l 1,1291,-1
 233 218 l 1,1292,1293
 233 217 233 217 234 217 c 1,1294,-1
 234 217 l 1,1295,1296
 234 216 234 216 233 214.5 c 128,-1,1297
 232 213 232 213 231 210 c 2,1298,-1
 231 209 l 1,1299,-1
 232 209 l 1,1300,1301
 236 214 236 214 237 218 c 2,1302,-1
 254 223 l 2,1303,1304
 260 225 260 225 263 227 c 1,1305,-1
 261 227 l 1,1306,1307
 265 228 265 228 267 229 c 0,1308,1309
 276 236 276 236 280 238 c 0,1310,1311
 293 248 293 248 292 257 c 1,1312,-1
 292 257 l 1,1091,1092
290 256 m 1,1313,-1
 291 254 l 1,1314,-1
 290 253 l 1,1315,-1
 290 257 l 1,1316,-1
 290 256 l 1,1313,-1
118 275 m 1,1317,-1
 117 275 l 1,1318,-1
 117 276 l 1,1319,-1
 119 276 l 1,1320,-1
 119 275 l 1,1321,-1
 118 275 l 1,1317,-1
110 198 m 1,1322,1323
 109 199 109 199 108 199 c 2,1324,-1
 107 200 l 1,1325,-1
 108 200 l 1,1326,-1
 109 199 l 1,1327,-1
 111 202 l 1,1328,-1
 112 202 l 1,1329,1330
 112 198 112 198 110 198 c 1,1331,-1
 110 198 l 1,1322,1323
192 284 m 1,1332,1333
 191 284 191 284 190 288 c 1,1334,-1
 190 288 l 1,1335,1336
 191 288 191 288 192 285 c 2,1337,-1
 192 284 l 1,1332,1333
191 292 m 1,1338,-1
 191 292 l 1,1339,-1
 180 296 l 1,1340,1341
 191 296 191 296 191 292 c 1,1342,-1
 191 292 l 1,1338,-1
144 252 m 1,1343,-1
 142 252 l 1,1344,-1
 144 253 l 1,1345,-1
 144 252 l 1,1343,-1
143 276 m 1,1346,-1
 143 276 l 1,1347,-1
 143 275 l 1,1348,-1
 142 273 l 1,1349,-1
 142 274 l 1,1350,-1
 143 276 l 1,1346,-1
139 269 m 1,1351,-1
 139 267 l 1,1352,-1
 139 269 l 1,1351,-1
138 266 m 1,1353,-1
 138 266 l 1,1354,1355
 138 264 138 264 137 264 c 1,1356,-1
 137 264 l 1,1357,1358
 138 265 138 265 138 266 c 1,1359,-1
 138 266 l 1,1353,-1
136 262 m 1,1360,-1
 137 262 l 1,1361,-1
 136 260 l 1,1362,-1
 135 260 l 1,1363,-1
 135 261 l 1,1364,1365
 136 261 136 261 136 262 c 1,1366,-1
 136 262 l 1,1360,-1
135 258 m 1,1367,-1
 135 256 l 1,1368,-1
 134 256 l 1,1369,-1
 134 258 l 1,1370,-1
 135 258 l 1,1367,-1
122 222 m 1,1371,-1
 121 218 l 1,1372,-1
 121 218 l 1,1373,1374
 120 220 120 220 122 222 c 1,1375,-1
 122 222 l 1,1371,-1
120 217 m 1,1376,-1
 120 217 l 1,1377,1378
 120 216 120 216 119 216 c 1,1379,-1
 119 216 l 1,1380,1381
 119 217 119 217 120 217 c 1,1382,-1
 120 217 l 1,1376,-1
119 206 m 1,1383,-1
 120 206 l 1,1384,-1
 119 206 l 1,1385,1386
 118 206 118 206 119 206 c 1,1387,-1
 119 206 l 1,1383,-1
153 217 m 1,1388,1389
 143 212 143 212 141 210 c 0,1390,1391
 130 206 130 206 130 205 c 0,1392,1393
 121 202 121 202 118 200 c 2,1394,-1
 116 200 l 1,1395,1396
 116 202 116 202 117.5 203 c 128,-1,1397
 119 204 119 204 121 204 c 128,-1,1398
 123 204 123 204 127 205 c 1,1399,-1
 127 206 l 1,1400,-1
 124 206 l 1,1401,1402
 125 206 125 206 131 209 c 2,1403,-1
 133 209 l 1,1404,1405
 130 208 130 208 129.5 207 c 128,-1,1406
 129 206 129 206 130 206 c 2,1407,-1
 132 208 l 2,1408,1409
 137 209 137 209 156 220 c 1,1410,-1
 156 220 l 1,1411,1412
 156 219 156 219 153 217 c 1,1413,-1
 153 217 l 1,1388,1389
133 210 m 1,1414,1415
 136 210 136 210 137.5 211.5 c 128,-1,1416
 139 213 139 213 139 212 c 1,1417,1418
 137 212 137 212 133 209 c 1,1419,-1
 133 210 l 1,1414,1415
165 235 m 1,1420,-1
 155 227 l 2,1421,1422
 144 220 144 220 143 220 c 0,1423,1424
 125 210 125 210 121 209 c 2,1425,-1
 120 209 l 1,1426,-1
 136 242 l 1,1427,1428
 143 243 143 243 158 248 c 2,1429,-1
 160 249 l 2,1430,1431
 167 249 167 249 171 246 c 1,1432,-1
 171 244 l 2,1433,1434
 169 236 169 236 165 235 c 1,1435,-1
 165 235 l 1,1420,-1
146 246 m 1,1436,-1
 147 246 l 1,1437,-1
 146 246 l 1,1436,-1
168 250 m 1,1438,-1
 169 250 l 1,1439,-1
 171 249 l 1,1440,-1
 171 248 l 1,1441,1442
 170 248 170 248 168 250 c 1,1443,-1
 168 250 l 1,1438,-1
172 268 m 2,1444,1445
 170 266 170 266 163 262 c 0,1446,1447
 161 262 161 262 146 255 c 0,1448,1449
 145 256 145 256 144 255 c 1,1450,-1
 144 256 l 2,1451,1452
 144 258 144 258 146 262 c 0,1453,1454
 147 268 147 268 148 269 c 2,1455,-1
 157 287 l 2,1456,1457
 157 289 157 289 162 290 c 2,1458,-1
 163 290 l 1,1459,-1
 163 289 l 1,1460,-1
 170 290 l 2,1461,1462
 180 291 180 291 180 286 c 1,1463,-1
 181 286 l 1,1464,-1
 181 288 l 1,1465,-1
 182 288 l 2,1466,1467
 185 286 185 286 185 284.5 c 128,-1,1468
 185 283 185 283 183 280 c 1,1469,-1
 183 281 l 1,1470,-1
 182 281 l 1,1471,-1
 181 279 l 2,1472,1473
 177 271 177 271 174 271 c 2,1474,-1
 172 268 l 2,1444,1445
177 255 m 1,1475,1476
 176 256 176 256 175 256 c 1,1477,-1
 175 257 l 1,1478,-1
 176 257 l 1,1479,-1
 177 256 l 1,1480,-1
 177 255 l 1,1475,1476
182 249 m 1,1481,1482
 183 249 183 249 183 248 c 2,1483,-1
 182 247 l 1,1484,-1
 182 249 l 1,1481,1482
183 246 m 1,1485,-1
 182 246 l 1,1486,-1
 184 246 l 1,1487,-1
 183 246 l 1,1485,-1
185 243 m 1,1488,1489
 187 243 187 243 188 244 c 1,1490,-1
 185 243 l 1,1488,1489
188 242 m 2,1491,1492
 186 241 186 241 185 241 c 1,1493,-1
 189 243 l 1,1494,-1
 189 242 l 1,1495,-1
 188 242 l 2,1491,1492
191 242 m 1,1496,-1
 191 243 l 1,1497,-1
 192 243 l 1,1498,-1
 191 242 l 1,1496,-1
200 252 m 1,1499,-1
 200 252 l 1,1500,-1
 201 252 l 1,1501,-1
 200 252 l 1,1499,-1
209 197 m 1,1502,-1
 209 198 l 1,1503,-1
 210 197 l 1,1504,-1
 209 197 l 1,1502,-1
215 249 m 1,1505,-1
 214 249 l 2,1506,1507
 212 249 212 249 212 248 c 1,1508,-1
 211 248 l 2,1509,1510
 210 248 210 248 210 249 c 2,1511,-1
 214 250 l 1,1512,-1
 216 250 l 1,1513,-1
 215 249 l 1,1505,-1
218 250 m 1,1514,-1
 218 250 l 1,1515,-1
 219 251 l 1,1516,-1
 222 252 l 1,1517,-1
 222 251 l 1,1518,1519
 219 251 219 251 218 250 c 1,1520,-1
 218 250 l 1,1514,-1
219 256 m 1,1521,-1
 218 256 l 1,1522,-1
 216 256 l 1,1523,-1
 224 258 l 1,1524,-1
 219 256 l 1,1521,-1
226 265 m 1,1525,1526
 226 259 226 259 223 259 c 2,1527,-1
 221 258 l 1,1528,-1
 218 258 l 1,1529,-1
 218 259 l 1,1530,-1
 227 271 l 1,1531,-1
 228 271 l 1,1532,1533
 228 269 228 269 226 265 c 1,1534,-1
 226 265 l 1,1525,1526
241 277 m 1,1535,-1
 240 277 l 1,1536,-1
 241 277 l 1,1535,-1
235 218 m 1,1537,1538
 234 219 234 219 233 219 c 1,1539,-1
 233 220 l 1,1540,-1
 236 221 l 1,1541,1542
 236 219 236 219 235 218 c 1,1543,-1
 235 218 l 1,1537,1538
297 284 m 1,1544,-1
 295 286 l 1,1545,-1
 295 287 l 1,1546,1547
 296 287 296 287 297 284 c 1,1548,-1
 297 284 l 1,1544,-1
296 290 m 1,1549,-1
 296 290 l 1,1550,-1
 288 293 l 1,1551,1552
 296 293 296 293 296 290 c 1,1553,-1
 296 290 l 1,1549,-1
261 259 m 1,1554,-1
 259 259 l 1,1555,-1
 259 260 l 1,1556,-1
 261 260 l 1,1557,-1
 261 259 l 1,1554,-1
260 278 m 1,1558,-1
 260 278 l 1,1559,-1
 260 277 l 1,1560,1561
 259 277 259 277 259 276 c 1,1562,-1
 259 276 l 1,1563,1564
 260 277 260 277 260 278 c 1,1565,-1
 260 278 l 1,1558,-1
257 272 m 1,1566,-1
 257 271 l 1,1567,-1
 257 272 l 1,1566,-1
256 270 m 1,1568,-1
 256 270 l 1,1569,-1
 256 268 l 1,1570,-1
 255 268 l 1,1571,1572
 256 269 256 269 256 270 c 1,1573,-1
 256 270 l 1,1568,-1
255 267 m 1,1574,-1
 255 267 l 1,1575,-1
 255 266 l 1,1576,-1
 254 266 l 1,1577,1578
 255 266 255 266 255 267 c 1,1579,-1
 255 267 l 1,1574,-1
254 264 m 1,1580,-1
 254 263 l 1,1581,-1
 253 263 l 1,1582,-1
 253 264 l 1,1583,-1
 254 264 l 1,1580,-1
244 237 m 1,1584,1585
 244 234 244 234 243 234 c 1,1586,-1
 243 234 l 1,1587,1588
 243 235 243 235 244 237 c 1,1589,-1
 244 237 l 1,1584,1585
242 233 m 1,1590,-1
 242 232 l 1,1591,-1
 242 233 l 1,1590,-1
242 225 m 1,1592,-1
 243 225 l 1,1593,-1
 243 224 l 1,1594,-1
 241 224 l 1,1595,1596
 241 225 241 225 242 225 c 1,1597,-1
 242 225 l 1,1592,-1
267 233 m 1,1598,1599
 260 229 260 229 258 227 c 0,1600,1601
 250 225 250 225 250 224 c 2,1602,-1
 241 220 l 1,1603,-1
 239 220 l 1,1604,1605
 239 222 239 222 241 223 c 2,1606,-1
 248 224 l 1,1607,-1
 246 224 l 1,1608,1609
 246 225 246 225 251 227 c 2,1610,-1
 252 227 l 1,1611,-1
 249 225 l 2,1612,1613
 249 224 249 224 250 224 c 2,1614,-1
 252 226 l 2,1615,1616
 255 226 255 226 270 235 c 1,1617,-1
 270 235 l 1,1618,1619
 270 234 270 234 267 233 c 1,1620,-1
 267 233 l 1,1598,1599
252 228 m 1,1621,1622
 254 228 254 228 256 229 c 2,1623,-1
 257 229 l 1,1624,1625
 255 229 255 229 252 227 c 1,1626,-1
 252 228 l 1,1621,1622
277 247 m 1,1627,-1
 269 241 l 2,1628,1629
 261 235 261 235 260 235 c 0,1630,1631
 246 227 246 227 243 227 c 1,1632,-1
 243 227 l 1,1633,1634
 243 229 243 229 255 252 c 1,1635,1636
 260 252 260 252 271 257 c 1,1637,-1
 273 257 l 2,1638,1639
 279 257 279 257 281 255 c 2,1640,-1
 281 253 l 2,1641,1642
 279 248 279 248 277 247 c 1,1643,-1
 277 247 l 1,1627,-1
262 255 m 1,1644,-1
 263 255 l 1,1645,-1
 262 255 l 1,1644,-1
279 258 m 1,1646,-1
 280 258 l 1,1647,-1
 281 257 l 1,1648,1649
 280 256 280 256 279 258 c 1,1650,-1
 279 258 l 1,1646,-1
282 272 m 2,1651,1652
 280 270 280 270 275 267 c 0,1653,1654
 273 267 273 267 262 262 c 1,1655,-1
 261 262 l 1,1656,-1
 262 267 l 2,1657,1658
 263 271 263 271 264 272 c 2,1659,-1
 270 286 l 2,1660,1661
 270 288 270 288 274 288 c 2,1662,-1
 280 288 l 2,1663,1664
 288 289 288 289 288 285 c 1,1665,-1
 289 285 l 1,1666,-1
 289 287 l 1,1667,1668
 292 285 292 285 292 284 c 128,-1,1669
 292 283 292 283 290 281 c 1,1670,-1
 290 282 l 1,1671,-1
 289 282 l 1,1672,-1
 289 280 l 1,1673,1674
 285 274 285 274 283 274 c 2,1675,-1
 282 272 l 2,1651,1652
284 262 m 1,1676,-1
 284 263 l 1,1677,-1
 286 263 l 1,1678,-1
 286 262 l 1,1679,-1
 284 262 l 1,1676,-1
178 207 m 1,1680,-1
 177 207 l 1,1681,-1
 177 206 l 1,1682,-1
 178 206 l 1,1683,-1
 178 207 l 1,1680,-1
176 211 m 1,1684,-1
 176 211 l 1,1685,-1
 176 212 l 1,1686,-1
 176 211 l 1,1684,-1
192 242 m 1,1687,-1
 192 242 l 1,1688,-1
 192 242 l 1,1689,-1
 192 242 l 1,1690,-1
 192 242 l 1,1687,-1
192 250 m 1,1691,-1
 192 250 l 1,1692,-1
 192 250 l 1,1693,-1
 192 250 l 1,1694,-1
 192 250 l 1,1691,-1
353 227 m 1,1695,-1
 351 227 l 1,1696,-1
 351 226 l 1,1697,-1
 361 227 l 1,1698,-1
 353 227 l 1,1695,-1
361 227 m 1,1699,-1
 361 227 l 1,1700,-1
 362 227 l 1,1701,-1
 361 227 l 1,1699,-1
400 232 m 1,1702,-1
 400 232 l 1,1703,-1
 401 232 l 1,1704,-1
 400 232 l 1,1702,-1
399 232 m 1,1705,1706
 394 231 394 231 392 231 c 1,1707,1708
 393 231 393 231 390 231 c 1,1709,-1
 390 230 l 1,1710,-1
 391 230 l 1,1711,-1
 390 230 l 1,1712,-1
 391 231 l 1,1713,-1
 398 231 l 2,1714,1715
 399 231 399 231 399 232 c 1,1716,-1
 399 232 l 1,1705,1706
357 242 m 1,1717,-1
 357 242 l 1,1718,1719
 356 241 356 241 356 240 c 1,1720,-1
 356 240 l 1,1721,1722
 357 240 357 240 357 242 c 1,1723,-1
 357 242 l 1,1717,-1
349 247 m 1,1724,-1
 349 247 l 1,1725,-1
 348 247 l 1,1726,-1
 348 246 l 1,1727,1728
 349 246 349 246 349 247 c 1,1729,-1
 349 247 l 1,1724,-1
367 228 m 1,1730,-1
 367 229 l 1,1731,-1
 367 228 l 1,1730,-1
405 237 m 1,1732,-1
 405 237 l 1,1733,-1
 405 238 l 1,1734,1735
 403 238 403 238 402 237 c 2,1736,-1
 400 237 l 1,1737,1738
 400 238 400 238 399 238 c 2,1739,-1
 398 238 l 2,1740,1741
 397 238 397 238 396 237 c 1,1742,-1
 396 238 l 1,1743,-1
 395 237 l 1,1744,-1
 392 237 l 1,1745,-1
 393 237 l 1,1746,1747
 393 236 393 236 394 236 c 2,1748,-1
 395 237 l 1,1749,1750
 393 236 393 236 389 235 c 2,1751,-1
 388 236 l 1,1752,-1
 387 236 l 1,1753,-1
 390 236 l 1,1754,-1
 391 237 l 1,1755,-1
 384 237 l 2,1756,1757
 372.857142857 235.714285714 372.857142857 235.714285714 372.183673469 235.714285714 c 0,1758,1759
 371.285714286 235.714285714 371.285714286 235.714285714 389 238 c 1,1760,-1
 395 238 l 2,1761,1762
 396 239 396 239 398 239 c 2,1763,-1
 399 239 l 1,1764,1765
 399 240 399 240 400 240 c 1,1766,-1
 400 241 l 1,1767,-1
 393 239 l 1,1768,-1
 380 238 l 1,1769,1770
 383 239 383 239 378 238 c 0,1771,1772
 377 237 377 237 374 237 c 2,1773,-1
 371 237 l 1,1774,-1
 369 236 l 1,1775,-1
 369 237 l 1,1776,1777
 367 236 367 236 366 236 c 2,1778,-1
 358 235 l 1,1779,-1
 357 236 l 1,1780,1781
 357 235 357 235 356 235 c 2,1782,-1
 354 236 l 2,1783,1784
 354 239 354 239 355 239 c 1,1785,-1
 355 238 l 1,1786,-1
 356 239 l 1,1787,-1
 356 240 l 1,1788,-1
 355 240 l 1,1789,1790
 355 241 355 241 356 241 c 2,1791,-1
 357 244 l 1,1792,-1
 357 243 l 1,1793,-1
 358 243 l 1,1794,-1
 358 244 l 1,1795,-1
 357 244 l 1,1796,-1
 358 245 l 1,1797,-1
 357 246 l 1,1798,-1
 360 252 l 1,1799,-1
 361 252 l 1,1800,-1
 361 253 l 1,1801,-1
 360 253 l 1,1802,1803
 360 254 360 254 361 255 c 128,-1,1804
 362 256 362 256 362 257 c 1,1805,-1
 362 257 l 1,1806,1807
 363 258 363 258 364.5 261 c 128,-1,1808
 366 264 366 264 370 276 c 2,1809,-1
 375 289 l 1,1810,-1
 376 294 l 1,1811,-1
 375 294 l 1,1812,-1
 375 293 l 1,1813,-1
 374 293 l 1,1814,1815
 374 295 374 295 375 298 c 1,1816,-1
 376 296 l 1,1817,-1
 377 296 l 1,1818,-1
 377 298 l 1,1819,-1
 376 298 l 1,1820,-1
 376 301 l 1,1821,-1
 375 302 l 1,1822,-1
 372 302 l 1,1823,1824
 372 303 372 303 371.5 303.5 c 128,-1,1825
 371 304 371 304 373 304 c 2,1826,-1
 376 304 l 1,1827,-1
 376 305 l 1,1828,-1
 373 305 l 1,1829,-1
 372 304 l 1,1830,-1
 372 305 l 1,1831,-1
 346 302 l 1,1832,-1
 343 303 l 1,1833,1834
 343 302 343 302 342 302 c 2,1835,-1
 335 302 l 2,1836,1837
 332 301 332 301 342 302 c 1,1838,1839
 341 302 341 302 340.5 301.5 c 128,-1,1840
 340 301 340 301 339 301 c 2,1841,-1
 334 301 l 1,1842,-1
 323 299 l 1,1843,-1
 319 299 l 1,1844,-1
 313 297 l 1,1845,-1
 314 296 l 1,1846,-1
 317 296 l 1,1847,-1
 316 295 l 2,1848,1849
 314 293 314 293 313 291 c 0,1850,1851
 310 290 310 290 310 289 c 2,1852,-1
 310 288 l 1,1853,-1
 311 289 l 1,1854,-1
 312 288 l 1,1855,-1
 312 287 l 2,1856,1857
 312 286 312 286 299 260 c 2,1858,-1
 287 232 l 2,1859,1860
 283 231 283 231 283 229.5 c 128,-1,1861
 283 228 283 228 285 228 c 1,1862,-1
 285 227 l 1,1863,-1
 284 226 l 1,1864,-1
 285 225 l 2,1865,1866
 285 224 285 224 290 223 c 1,1867,-1
 290 224 l 1,1868,-1
 290 219 l 1,1869,1870
 292 222 292 222 292 223 c 1,1871,-1
 293 223 l 1,1872,-1
 294 222 l 1,1873,1874
 293 222 293 222 289 211 c 1,1875,-1
 290 210 l 1,1876,1877
 295 223 295 223 296 224 c 2,1878,-1
 330 228 l 2,1879,1880
 333 228 333 228 333 230 c 2,1881,-1
 337 231 l 1,1882,-1
 342 231 l 1,1883,1884
 342 233 342 233 343 233 c 1,1885,-1
 343 234 l 1,1886,1887
 342 234 342 234 341 233 c 2,1888,-1
 337 234 l 1,1889,1890
 337 233 337 233 336 233 c 2,1891,-1
 325 233 l 1,1892,1893
 336 234 336 234 336 236 c 1,1894,-1
 336 235 l 1,1895,-1
 338 236 l 1,1896,-1
 338 237 l 1,1897,-1
 318 236 l 2,1898,1899
 317 236 317 236 317 235 c 1,1900,-1
 316 236 l 2,1901,1902
 313 235 313 235 311 235 c 2,1903,-1
 306 235 l 1,1904,-1
 302 234 l 1,1905,-1
 300 235 l 2,1906,1907
 300 237 300 237 307 252 c 0,1908,1909
 309 257 309 257 311 258 c 2,1910,-1
 316 259 l 2,1911,1912
 320 259 320 259 325 261 c 2,1913,-1
 335 262 l 2,1914,1915
 339 262 339 262 344 264 c 1,1916,-1
 344 264 l 1,1917,1918
 342 264 342 264 342 265 c 128,-1,1919
 342 266 342 266 340 266 c 2,1920,-1
 339 266 l 1,1921,-1
 341 267 l 1,1922,-1
 346 267 l 1,1923,-1
 346 268 l 1,1924,-1
 343 268 l 1,1925,-1
 343 269 l 1,1926,-1
 344 269 l 2,1927,1928
 345 269 345 269 345 270 c 1,1929,-1
 342 270 l 2,1930,1931
 329 269.5 329 269.5 322.5 269.5 c 128,-1,1932
 316 269.5 316 269.5 316 270 c 1,1933,-1
 315 269 l 1,1934,-1
 315 270 l 1,1935,1936
 322 284 322 284 323 284 c 1,1937,-1
 322 282 l 1,1938,-1
 323 282 l 1,1939,1940
 326 288 326 288 328 289 c 2,1941,-1
 330 289 l 1,1942,-1
 331 290 l 2,1943,1944
 333 291 333 291 338 291 c 2,1945,-1
 357 294 l 1,1946,-1
 353 294 l 1,1947,-1
 353 295 l 1,1948,-1
 357 295 l 2,1949,1950
 359 295 359 295 360 296 c 2,1951,-1
 363 296 l 1,1952,-1
 364 297 l 1,1953,-1
 362 298 l 1,1954,1955
 361 298 361 298 362 298 c 1,1956,-1
 367 299 l 1,1957,-1
 371 299 l 1,1958,1959
 370 298 370 298 370 297 c 1,1960,-1
 369 297 l 1,1961,-1
 369 298 l 1,1962,-1
 361 278 l 1,1963,-1
 353 256 l 2,1964,1965
 352 255 352 255 353 255 c 1,1966,1967
 353 252 353 252 351 250 c 0,1968,1969
 348 239 348 239 347 238 c 2,1970,-1
 347 234 l 1,1971,-1
 346 234 l 1,1972,1973
 346 235 346 235 345 235 c 2,1974,-1
 344 235 l 2,1975,1976
 343 234 343 234 343 231 c 1,1977,-1
 343 231 l 1,1978,1979
 345 232 345 232 344 233 c 1,1980,-1
 346 233 l 1,1981,-1
 346 230 l 1,1982,-1
 345 228 l 1,1983,-1
 357 228 l 1,1984,-1
 359 229 l 1,1985,-1
 365 229 l 1,1986,-1
 366 230 l 1,1987,-1
 366 229 l 1,1988,1989
 368 230 368 230 371 229 c 1,1990,-1
 369 229 l 1,1991,-1
 369 228 l 1,1992,1993
 370 228 370 228 370.5 228.5 c 128,-1,1994
 371 229 371 229 371 228 c 1,1995,-1
 368 228 l 1,1996,-1
 367 227 l 1,1997,-1
 366 228 l 1,1998,-1
 366 227 l 1,1999,-1
 372 227 l 1,2000,-1
 374 228 l 1,2001,2002
 374 227 374 227 375 228 c 2,2003,-1
 377 228 l 1,2004,-1
 387 230 l 1,2005,-1
 389 230 l 1,2006,-1
 389 231 l 1,2007,-1
 387 231 l 1,2008,-1
 386 230 l 1,2009,-1
 381 230 l 1,2010,-1
 381 231 l 1,2011,-1
 393 231 l 1,2012,-1
 405 234 l 1,2013,2014
 405 233 405 233 406 236 c 1,2015,-1
 403 236 l 1,2016,-1
 400 235 l 1,2017,-1
 400 236 l 1,2018,-1
 402 236 l 2,2019,2020
 404 236 404 236 405 237 c 1,2021,-1
 405 237 l 1,2022,-1
 405 237 l 1,1732,-1
292 235 m 1,2023,-1
 291 235 l 1,2024,-1
 293 240 l 1,2025,-1
 294 240 l 1,2026,2027
 294 238 294 238 292 235 c 1,2028,-1
 292 235 l 1,2023,-1
294 240 m 1,2029,-1
 294 240 l 1,2030,-1
 294 241 l 1,2031,-1
 294 240 l 1,2029,-1
308 229 m 1,2032,-1
 308 229 l 1,2033,-1
 306 228 l 1,2034,-1
 306 229 l 1,2035,-1
 308 229 l 1,2032,-1
306 229 m 1,2036,2037
 306 228 306 228 304 228 c 2,2038,-1
 301 228 l 1,2039,-1
 301 229 l 1,2040,-1
 306 229 l 1,2036,2037
320 295 m 1,2041,-1
 319 295 l 1,2042,-1
 319 296 l 1,2043,-1
 320 296 l 1,2044,-1
 320 297 l 1,2045,-1
 321 296 l 2,2046,2047
 321 295 321 295 320 295 c 1,2048,-1
 320 295 l 1,2041,-1
336 299 m 1,2049,-1
 337 299 l 1,2050,-1
 337 298 l 1,2051,-1
 336 298 l 1,2052,-1
 336 299 l 1,2049,-1
332 297 m 1,2053,-1
 331 297 l 1,2054,-1
 331 298 l 1,2055,-1
 336 298 l 1,2056,-1
 335 298 l 2,2057,2058
 334 297 334 297 334 298 c 1,2059,2060
 333 297 333 297 332 297 c 1,2061,-1
 332 297 l 1,2053,-1
334 291 m 1,2062,-1
 334 292 l 1,2063,-1
 337 292 l 1,2064,-1
 337 291 l 1,2065,-1
 334 291 l 1,2062,-1
337 294 m 1,2066,-1
 337 294 l 1,2067,-1
 338 294 l 1,2068,-1
 337 294 l 1,2066,-1
337 298 m 1,2069,-1
 337 298 l 1,2070,-1
 337 299 l 1,2071,-1
 340 299 l 1,2072,2073
 339 298 339 298 337 298 c 1,2074,-1
 337 298 l 1,2069,-1
339 292 m 1,2075,-1
 339 292 l 1,2076,-1
 340 293 l 2,2077,2078
 341 293 341 293 341 292 c 1,2079,-1
 339 292 l 1,2075,-1
347 302 m 1,2080,-1
 345 302 l 1,2081,-1
 342 302 l 1,2082,-1
 347 302 l 1,2080,-1
345 295 m 1,2083,-1
 345 295 l 1,2084,-1
 343 295 l 1,2085,-1
 345 295 l 1,2083,-1
349 293 m 1,2086,2087
 349 294 349 294 347 294 c 2,2088,-1
 345 293 l 1,2089,-1
 343 293 l 1,2090,-1
 343 294 l 1,2091,-1
 351 294 l 1,2092,2093
 350 294 350 294 349 293 c 1,2094,-1
 349 293 l 1,2086,2087
372 299 m 1,2095,-1
 372 299 l 1,2096,-1
 375 301 l 1,2097,2098
 374 296 374 296 371 293 c 1,2099,-1
 370 294 l 1,2100,2101
 372 298 372 298 372 299 c 1,2102,-1
 372 299 l 1,2095,-1
368 293 m 1,2103,-1
 368 293 l 1,2104,2105
 368 291 368 291 367 291 c 1,2106,-1
 367 292 l 1,2107,-1
 368 293 l 1,2103,-1
365 287 m 2,2108,2109
 366 290 366 290 367 291 c 1,2110,-1
 367 290 l 2,2111,2112
 367 287 367 287 366 287 c 1,2113,-1
 366 285 l 1,2114,-1
 365 284 l 1,2115,-1
 365 287 l 2,2108,2109
365 283 m 1,2116,-1
 364 281 l 1,2117,-1
 363 282 l 1,2118,2119
 364 283 364 283 365 283 c 1,2120,-1
 365 283 l 1,2116,-1
346 230 m 1,2121,-1
 346 230 l 1,2122,-1
 347 230 l 1,2123,-1
 347 229 l 1,2124,2125
 346 229 346 229 346 230 c 1,2126,-1
 346 230 l 1,2121,-1
372 229 m 1,2127,-1
 372 229 l 1,2128,-1
 371 229 l 1,2129,-1
 371 230 l 1,2130,-1
 374 230 l 1,2131,2132
 373 229 373 229 372 229 c 1,2133,-1
 372 229 l 1,2127,-1
371 230 m 1,2134,-1
 371 230 l 1,2135,-1
 371 230 l 1,2134,-1
371 234 m 1,2136,-1
 369 234 l 1,2137,-1
 371 234 l 1,2138,-1
 375 235 l 1,2139,-1
 375 234 l 1,2140,-1
 371 234 l 1,2136,-1
378 234 m 1,2141,-1
 376 235 l 1,2142,-1
 378 235 l 1,2143,-1
 378 234 l 1,2141,-1
378 235 m 1,2144,-1
 378 235 l 1,2145,-1
 379 235 l 1,2146,-1
 378 235 l 1,2144,-1
380 235 m 1,2147,-1
 380 235 l 1,2148,-1
 381 236 l 1,2149,-1
 381 235 l 1,2150,-1
 380 235 l 1,2147,-1
383 235 m 1,2151,-1
 383 236 l 1,2152,-1
 384 236 l 1,2153,-1
 384 235 l 1,2154,-1
 383 235 l 1,2151,-1
384 235 m 1,2155,2156
 384 236 384 236 385 236 c 2,2157,-1
 386 235 l 1,2158,-1
 384 235 l 1,2155,2156
407 238 m 1,2159,-1
 407 238 l 1,2160,-1
 407 238 l 1,2161,-1
 407 238 l 1,2162,-1
 407 238 l 1,2159,-1
407 238 m 1,2163,-1
 407 239 l 1,2164,-1
 407 238 l 1,2165,-1
 406 238 l 1,2166,-1
 407 238 l 1,2163,-1
409 237 m 1,2167,-1
 409 237 l 1,2168,-1
 410 237 l 1,2169,-1
 409 237 l 1,2167,-1
EndSplineSet
EndChar

StartChar: bat
Encoding: 57350 57350 6
Width: 516
GlyphClass: 1
Flags: W
LayerCount: 2
Fore
SplineSet
207 210 m 1,0,-1
 224 210 l 1,1,-1
 224 222 l 1,2,3
 235 208 235 208 252.5 208 c 128,-1,4
 270 208 270 208 280.5 220.5 c 128,-1,5
 291 233 291 233 291 251.5 c 128,-1,6
 291 270 291 270 280.5 282.5 c 128,-1,7
 270 295 270 295 252.5 295 c 128,-1,8
 235 295 235 295 224 281 c 1,9,-1
 224 323 l 1,10,-1
 207 323 l 1,11,-1
 207 210 l 1,0,-1
224 252 m 1,12,13
 224 264 224 264 231 271.5 c 128,-1,14
 238 279 238 279 249 279 c 128,-1,15
 260 279 260 279 266 271.5 c 128,-1,16
 272 264 272 264 272 252 c 128,-1,17
 272 240 272 240 266 232 c 128,-1,18
 260 224 260 224 249 224 c 128,-1,19
 238 224 238 224 231 232 c 128,-1,20
 224 240 224 240 224 252 c 1,21,-1
 224 252 l 1,12,13
207 175 m 1,22,-1
 291 175 l 1,23,-1
 291 191 l 1,24,-1
 207 191 l 1,25,-1
 207 175 l 1,22,-1
126 386 m 1,26,-1
 372 386 l 1,27,-1
 386 386 l 1,28,-1
 386 112 l 1,29,-1
 112 112 l 1,30,-1
 112 386 l 1,31,-1
 126 386 l 1,26,-1
EndSplineSet
EndChar

StartChar: bower
Encoding: 57351 57351 7
Width: 516
GlyphClass: 1
Flags: W
LayerCount: 2
Fore
SplineSet
390 259 m 1,0,1
 389 260 389 260 384 262 c 128,-1,2
 379 264 379 264 375 265 c 0,3,4
 358 270 358 270 334 274 c 2,5,-1
 292 281 l 1,6,-1
 277 282 l 1,7,8
 278 288 278 288 281 290.5 c 128,-1,9
 284 293 284 293 292 295 c 1,10,-1
 295 288 l 2,11,12
 295 287 295 287 296 286 c 128,-1,13
 297 285 297 285 298 287 c 2,14,-1
 309 287 l 1,15,16
 337 291 337 291 347 318 c 2,17,-1
 352 335 l 2,18,19
 355 356 355 356 367 368 c 2,20,-1
 370 371 l 1,21,22
 364.171428571 373.057142857 364.171428571 373.057142857 357.57877551 373.057142857 c 0,23,24
 344.942857143 373.057142857 344.942857143 373.057142857 329.5 365.5 c 0,25,26
 306 354 306 354 295 331 c 1,27,-1
 284 335 l 2,28,29
 282 335 282 335 282 338 c 0,30,31
 272 363 272 363 247 378 c 0,32,33
 233.4 387.6 233.4 387.6 214.68 387.6 c 0,34,35
 210 387.6 210 387.6 205 387 c 0,36,37
 157 379 157 379 126.5 342 c 0,38,39
 98.3106060606 307.803030303 98.3106060606 307.803030303 98.3106060606 263.78248393 c 0,40,41
 98.3106060606 260.174242424 98.3106060606 260.174242424 98.5 256.5 c 0,42,43
 101 208 101 208 129 165 c 0,44,45
 133 160 133 160 141 152 c 2,46,-1
 154 140 l 2,47,48
 161.714285714 134.857142857 161.714285714 134.857142857 169.428571429 134.857142857 c 0,49,50
 169.428571429 134.857142857 169.428571429 134.857142857 172 135 c 0,51,52
 181 136 181 136 187 143 c 2,53,-1
 192 148 l 1,54,-1
 194 145 l 1,55,-1
 202 125 l 2,56,57
 204 121 204 121 210.5 118.5 c 128,-1,58
 217 116 217 116 223 118 c 0,59,60
 225 120 225 120 227 118 c 0,61,62
 232 115.5 232 115.5 236.75 115.5 c 128,-1,63
 241.5 115.5 241.5 115.5 246 118 c 2,64,-1
 250 121 l 2,65,66
 252 123 252 123 254 123.5 c 128,-1,67
 256 124 256 124 258 123 c 2,68,-1
 263 123 l 2,69,70
 278 125 278 125 278 138 c 1,71,-1
 279 139 l 2,72,73
 279 140 279 140 280 140 c 0,74,75
 286 143 286 143 286 147 c 0,76,77
 287 150.5 287 150.5 287 154.5 c 128,-1,78
 287 158.5 287 158.5 286 163 c 2,79,-1
 279 175 l 2,80,81
 274 184 274 184 270 188 c 2,82,-1
 269 190 l 1,83,-1
 284 185 l 2,84,85
 287.333333333 184.555555556 287.333333333 184.555555556 290.271604938 184.555555556 c 0,86,87
 300.555555556 184.555555556 300.555555556 184.555555556 306 190 c 1,88,-1
 309 188 l 2,89,90
 315.923076923 184.153846154 315.923076923 184.153846154 324.325443787 184.153846154 c 0,91,92
 326.846153846 184.153846154 326.846153846 184.153846154 329.5 184.5 c 0,93,94
 341 186 341 186 347 195 c 1,95,-1
 350 195 l 2,96,97
 353.5 194.25 353.5 194.25 356.8125 194.25 c 0,98,99
 366.75 194.25 366.75 194.25 375 201 c 0,100,101
 381 207 381 207 381 211 c 2,102,-1
 381 213 l 1,103,104
 393 214 393 214 398.5 219 c 128,-1,105
 404 224 404 224 404 236 c 0,106,107
 401 254 401 254 390 259 c 1,108,-1
 390 259 l 1,0,1
322 300 m 1,109,110
 314 296 314 296 302 296 c 2,111,-1
 301 296 l 2,112,113
 300 297 300 297 300 298 c 2,114,-1
 297 307 l 2,115,116
 297 308 297 308 298 308 c 0,117,118
 302 308 302 308 303 307 c 128,-1,119
 304 306 304 306 304 302 c 1,120,-1
 304 302 l 1,121,122
 306 305 306 305 307 305.5 c 128,-1,123
 308 306 308 306 312 305 c 2,124,-1
 322 302 l 1,125,-1
 323 300 l 2,126,127
 324 300 324 300 322 300 c 1,128,-1
 322 300 l 1,109,110
302 333 m 1,129,130
 309 344 309 344 326 358 c 0,131,132
 339 365 339 365 350 365 c 1,133,134
 347 362 347 362 345 358.5 c 128,-1,135
 343 355 343 355 341 348 c 0,136,137
 339 333 339 333 340 338 c 1,138,139
 337 322 337 322 334 315 c 0,140,141
 334 313 334 313 332 311 c 128,-1,142
 330 309 330 309 330 308 c 1,143,144
 327 311 327 311 315 320 c 1,145,-1
 315 323 l 1,146,-1
 325 340 l 2,147,148
 331 349 331 349 338 355 c 1,149,-1
 338 355 l 1,150,151
 328 350 328 350 321 341 c 0,152,153
 316 337 316 337 309 323 c 1,154,-1
 302 328 l 1,155,-1
 302 333 l 1,129,130
262 307 m 1,156,-1
 262 307 l 1,157,158
 262 320 262 320 267 328 c 0,159,160
 267 329 267 329 269 330 c 2,161,-1
 270 330 l 2,162,163
 293 327 293 327 310 315 c 2,164,-1
 318 308 l 1,165,-1
 307 311 l 2,166,167
 301.428571429 312.285714286 301.428571429 312.285714286 296.224489796 312.285714286 c 0,168,169
 289.285714286 312.285714286 289.285714286 312.285714286 283 310 c 0,170,171
 277.666666667 306 277.666666667 306 270.111111111 306 c 0,172,173
 266.333333333 306 266.333333333 306 262 307 c 1,174,-1
 262 307 l 1,175,176
 265.75 302.5 265.75 302.5 272.3125 302.5 c 0,177,178
 274.5 302.5 274.5 302.5 277 303 c 0,179,180
 280 303 280 303 289 307 c 1,181,-1
 289 307 l 1,182,183
 289 306 289 306 288 304 c 2,184,-1
 287 303 l 2,185,186
 283 300 283 300 264 293 c 1,187,-1
 263 293 l 1,188,189
 262 298 262 298 262 307 c 1,190,-1
 262 307 l 1,156,-1
215 343 m 1,191,192
 225 343 225 343 234 335 c 128,-1,193
 243 327 243 327 243 315.5 c 128,-1,194
 243 304 243 304 234.5 296 c 128,-1,195
 226 288 226 288 215 288 c 128,-1,196
 204 288 204 288 195.5 296 c 128,-1,197
 187 304 187 304 187 316 c 128,-1,198
 187 328 187 328 195.5 335.5 c 128,-1,199
 204 343 204 343 215 343 c 1,200,-1
 215 343 l 1,191,192
286 250 m 1,201,202
 298 247 298 247 307 247 c 2,203,-1
 335 242 l 2,204,205
 338 242 338 242 338.5 241 c 128,-1,206
 339 240 339 240 336.5 237 c 128,-1,207
 334 234 334 234 329 232 c 128,-1,208
 324 230 324 230 320 231 c 2,209,-1
 317 231 l 1,210,211
 318 229 318 229 317 226 c 128,-1,212
 316 223 316 223 314 222 c 0,213,214
 307 216 307 216 298 216 c 2,215,-1
 287 218 l 1,216,217
 286 211 286 211 276 209 c 0,218,219
 273.5 208.5 273.5 208.5 271.125 208.5 c 0,220,221
 264 208.5 264 208.5 258 213 c 1,222,223
 262 203 262 203 263 198 c 2,224,-1
 263 193 l 2,225,226
 261 176 261 176 248.5 164.5 c 128,-1,227
 236 153 236 153 218 151 c 0,228,229
 215.130434783 150.826086957 215.130434783 150.826086957 212.298676749 150.826086957 c 0,230,231
 182.565217391 150.826086957 182.565217391 150.826086957 157 170 c 0,232,233
 132 185 132 185 120 213 c 2,234,-1
 119 216 l 1,235,-1
 135 211 l 2,236,237
 139.615384615 210.307692308 139.615384615 210.307692308 143.804733728 210.307692308 c 0,238,239
 157.769230769 210.307692308 157.769230769 210.307692308 167 218 c 1,240,-1
 170 218 l 1,241,242
 182.857142857 214.428571429 182.857142857 214.428571429 195.204081633 214.428571429 c 0,243,244
 200.142857143 214.428571429 200.142857143 214.428571429 205 215 c 0,245,246
 226 219 226 219 246 241 c 0,247,248
 250 245 250 245 257 258 c 0,249,250
 260 262 260 262 266 268 c 1,251,-1
 269 268 l 1,252,-1
 307 263 l 1,253,-1
 359 254 l 2,254,255
 360 254 360 254 360 253 c 0,256,257
 303.822695035 249.212765957 303.822695035 249.212765957 303.822695035 249.011317338 c 128,-1,258
 303.822695035 248.893617021 303.822695035 248.893617021 323 250 c 1,259,260
 312.5 249.5 312.5 249.5 303.25 249.5 c 128,-1,261
 294 249.5 294 249.5 286 250 c 1,262,-1
 286 250 l 1,201,202
215 300 m 256,263,264
 223 300 223 300 227.5 304.5 c 128,-1,265
 232 309 232 309 232 315.5 c 128,-1,266
 232 322 232 322 227.5 326.5 c 128,-1,267
 223 331 223 331 215.5 331 c 128,-1,268
 208 331 208 331 203 326 c 128,-1,269
 198 321 198 321 198 315.5 c 128,-1,270
 198 310 198 310 202.5 305 c 128,-1,271
 207 300 207 300 215 300 c 256,263,264
206 328 m 1,272,273
 206 329 206 329 209 330 c 2,274,-1
 214 331 l 1,275,-1
 222 328 l 2,276,277
 226 325 226 325 222 320 c 0,278,279
 219 319 219 319 214 319 c 128,-1,280
 209 319 209 319 205 320 c 0,281,282
 202 326 202 326 206 328 c 1,283,-1
 206 328 l 1,272,273
EndSplineSet
EndChar

StartChar: c
Encoding: 57352 57352 8
Width: 516
GlyphClass: 1
Flags: W
LayerCount: 2
Fore
SplineSet
262 129 m 2,0,1
 234 129 234 129 221 134 c 0,2,3
 201 141 201 141 183.5 156 c 128,-1,4
 166 171 166 171 153 194 c 0,5,6
 144 216 144 216 142 228 c 0,7,8
 140.2 241.2 140.2 241.2 140.2 251.16 c 0,9,10
 140.2 257.8 140.2 257.8 141 263 c 0,11,12
 143 308 143 308 162 334 c 0,13,14
 178 359 178 359 205 373 c 0,15,16
 218 381 218 381 247 388 c 1,17,18
 270 388 270 388 281 386 c 0,19,20
 304 383 304 383 321 375 c 0,21,22
 347 361 347 361 362 336 c 0,23,24
 373 316 373 316 378 291 c 0,25,26
 378 287 378 287 376 287 c 0,27,28
 364 288 364 288 345 288 c 2,29,-1
 313 287 l 2,30,31
 310 287 310 287 310 291 c 0,32,33
 305 313 305 313 287 321 c 0,34,35
 276.615384615 324.846153846 276.615384615 324.846153846 267.118343195 324.846153846 c 0,36,37
 251.923076923 324.846153846 251.923076923 324.846153846 239 315 c 0,38,39
 225 305 225 305 220 279 c 0,40,41
 217.6 266.6 217.6 266.6 217.6 255.32 c 0,42,43
 217.6 238.4 217.6 238.4 223 224 c 0,44,45
 228 211 228 211 235 203 c 128,-1,46
 242 195 242 195 254 191 c 0,47,48
 262.421052632 187.631578947 262.421052632 187.631578947 270.310249307 187.631578947 c 0,49,50
 281.157894737 187.631578947 281.157894737 187.631578947 291 194 c 0,51,52
 302 201 302 201 305 215 c 0,53,54
 308 221 308 221 308 226 c 0,55,56
 308 227 308 227 309.5 228 c 128,-1,57
 311 229 311 229 312 228 c 2,58,-1
 350 224 l 2,59,60
 363 224 363 224 370 223 c 0,61,62
 374 223 374 223 375 222 c 128,-1,63
 376 221 376 221 376 216 c 0,64,65
 376 180 376 180 350 157 c 0,66,67
 328 135 328 135 291 129 c 1,68,-1
 262 129 l 2,0,1
EndSplineSet
EndChar

StartChar: cake_php
Encoding: 57353 57353 9
Width: 516
GlyphClass: 1
Flags: W
LayerCount: 2
Fore
SplineSet
249 114 m 0,0,1
 224 117 224 117 199 121 c 0,2,3
 164 127 164 127 142 150 c 0,4,5
 129 164 129 164 131 181 c 1,6,7
 161 156 161 156 204 148 c 0,8,9
 230.25 141.875 230.25 141.875 272.578125 141.875 c 0,10,11
 278.625 141.875 278.625 141.875 285 142 c 1,12,-1
 285 117 l 1,13,-1
 270 112 l 1,14,15
 263 114 263 114 249 114 c 0,0,1
245 336 m 1,16,17
 267 295 267 295 290 254 c 1,18,19
 267.5 252.5 267.5 252.5 248.25 252.5 c 128,-1,20
 229 252.5 229 252.5 213 254 c 0,21,22
 174 259 174 259 142 274 c 0,23,24
 124 285 124 285 115 295.5 c 0,25,26
 106.473684211 305.447368421 106.473684211 305.447368421 106.473684211 317.638504155 c 0,27,28
 106.473684211 331.473684211 106.473684211 331.473684211 117 342 c 0,29,30
 134 361 134 361 163 370 c 0,31,32
 209.731343284 384.343283582 209.731343284 384.343283582 253.251503676 384.343283582 c 0,33,34
 303.791044776 384.343283582 303.791044776 384.343283582 350 365 c 0,35,36
 363 359 363 359 384 338 c 0,37,38
 391.117647059 330.882352941 391.117647059 330.882352941 391.117647059 320.415224913 c 0,39,40
 391.117647059 314.705882353 391.117647059 314.705882353 389 308 c 0,41,42
 387 299 387 299 378 301 c 2,43,-1
 250 336 l 1,44,-1
 245 336 l 1,16,17
292 242 m 1,45,46
 292 235 292 235 291 223 c 2,47,-1
 290 208 l 2,48,49
 290 205 290 205 288 203 c 2,50,-1
 285 201 l 1,51,52
 234 203 234 203 214 206 c 0,53,54
 176 211 176 211 148 224 c 0,55,56
 114 242 114 242 113 271 c 0,57,58
 113 275 113 275 110 287 c 1,59,60
 132 264 132 264 163 253 c 0,61,62
 187 243 187 243 223 242 c 0,63,64
 230 241.5 230 241.5 238.75 241.5 c 128,-1,65
 247.5 241.5 247.5 241.5 258 242 c 2,66,-1
 292 242 l 1,45,46
289 190 m 1,67,68
 287 171 287 171 285 155 c 1,69,70
 268.052631579 152.421052632 268.052631579 152.421052632 251.648199446 152.421052632 c 0,71,72
 223.526315789 152.421052632 223.526315789 152.421052632 197 160 c 0,73,74
 169 170 169 170 146 182 c 128,-1,75
 123 194 123 194 123 227 c 1,76,77
 144 209 144 209 174 200 c 0,78,79
 197 193 197 193 230 191 c 2,80,-1
 289 190 l 1,67,68
376 250 m 1,81,82
 366 253 366 253 333 264 c 0,83,84
 308 273 308 273 292 278 c 0,85,86
 289 280 289 280 287 285 c 2,87,-1
 267 318 l 1,88,89
 276 315 276 315 290 313 c 0,90,91
 347 295 347 295 376 289 c 0,92,93
 383 286 383 286 381 280 c 2,94,-1
 376 250 l 1,81,82
303 264 m 1,95,96
 326 254 326 254 375 237 c 1,97,98
 371 214 371 214 368 204 c 1,99,100
 345 213 345 213 306 230 c 1,101,-1
 303 264 l 1,95,96
363 156 m 1,102,-1
 340 168 l 1,103,-1
 319 178 l 2,104,105
 308 182 308 182 305 184.5 c 128,-1,106
 302 187 302 187 302 191 c 2,107,-1
 304 218 l 1,108,-1
 363 193 l 2,109,110
 366 190 366 190 365 188 c 0,111,112
 365 181 365 181 363 156 c 1,102,-1
EndSplineSet
EndChar

StartChar: clock
Encoding: 57354 57354 10
Width: 516
GlyphClass: 1
Flags: W
LayerCount: 2
Fore
SplineSet
242 387 m 1,0,-1
 259 387 l 1,1,-1
 282 384 l 2,2,3
 309 377 309 377 332 361 c 0,4,5
 350 347 350 347 361 331 c 0,6,7
 380 304 380 304 385 269 c 2,8,-1
 387 259 l 1,9,-1
 387 239 l 1,10,-1
 385 231 l 2,11,12
 384 225 384 225 384 222 c 0,13,14
 377 193 377 193 361.5 171.5 c 128,-1,15
 346 150 346 150 320 133 c 0,16,17
 290 117 290 117 266 115 c 2,18,-1
 257 113 l 1,19,-1
 237 113 l 1,20,-1
 229 115 l 2,21,22
 223 115 223 115 221 116 c 0,23,24
 191 123 191 123 169.5 138 c 128,-1,25
 148 153 148 153 131 180 c 0,26,27
 115 210 115 210 113 234 c 1,28,29
 114 234 114 234 114 236 c 2,30,-1
 113 242 l 1,31,-1
 113 259 l 1,32,-1
 116 282 l 2,33,34
 123 309 123 309 139 332 c 0,35,36
 153 352 153 352 180 368 c 0,37,38
 204 383 204 383 230 385 c 2,39,-1
 242 387 l 1,0,-1
153 191 m 0,40,41
 169 165 169 165 194.5 150 c 128,-1,42
 220 135 220 135 251 135 c 128,-1,43
 282 135 282 135 309 151 c 128,-1,44
 336 167 336 167 351 194 c 0,45,46
 365.0625 219.3125 365.0625 219.3125 365.0625 248.140625 c 0,47,48
 365.0625 250.0625 365.0625 250.0625 365 252 c 0,49,50
 364 283 364 283 348 308.5 c 128,-1,51
 332 334 332 334 305.5 349 c 0,52,53
 279.85483871 363.516129032 279.85483871 363.516129032 249.995317378 363.516129032 c 0,54,55
 249 363.516129032 249 363.516129032 248 363.5 c 0,56,57
 217 363 217 363 191 347 c 128,-1,58
 165 331 165 331 150 305 c 0,59,60
 135.9375 280.625 135.9375 280.625 135.9375 250.9765625 c 0,61,62
 135.9375 218.7265625 135.9375 218.7265625 153 191 c 0,40,41
256 250 m 1,63,64
 262 253 262 253 266 257 c 0,65,66
 294 276 294 276 306 285 c 2,67,-1
 308 286 l 2,68,69
 309 287 309 287 309 288 c 0,70,71
 312 290 312 290 314.5 289.5 c 128,-1,72
 317 289 317 289 319.5 286.5 c 128,-1,73
 322 284 322 284 321.5 281 c 128,-1,74
 321 278 321 278 318 276 c 2,75,-1
 303 266 l 1,76,77
 304.739130435 267.086956522 304.739130435 267.086956522 304.918714556 267.086956522 c 0,78,79
 305.565217391 267.086956522 305.565217391 267.086956522 286 253 c 0,80,81
 276 247 276 247 269 241 c 2,82,-1
 253 229 l 2,83,84
 250 226 250 226 246 228 c 128,-1,85
 242 230 242 230 242 234 c 2,86,-1
 242 332 l 2,87,88
 242 340 242 340 249 340 c 0,89,90
 250 341 250 341 253 339 c 128,-1,91
 256 337 256 337 256 333 c 2,92,-1
 256 250 l 1,63,64
EndSplineSet
EndChar

StartChar: clojure
Encoding: 57355 57355 11
Width: 0
GlyphClass: 1
Flags: W
LayerCount: 2
Fore
SplineSet
247 248 m 1,0,1
 243 242 243 242 241 238 c 0,2,3
 231 213 231 213 228 201 c 0,4,5
 227 196 227 196 227 189 c 2,6,-1
 227 183 l 1,7,8
 239 179 239 179 251 179 c 128,-1,9
 263 179 263 179 274 183 c 1,10,11
 272 185 272 185 269 187 c 0,12,13
 263 196 263 196 256 211 c 0,14,15
 253 221 253 221 247 248 c 1,0,1
252 385 m 0,16,17
 218 385 218 385 189 370 c 128,-1,18
 160 355 160 355 141 330 c 1,19,20
 159 340 159 340 179 340 c 128,-1,21
 199 340 199 340 213 332 c 2,22,-1
 217 330 l 1,23,24
 233 336 233 336 252 336 c 0,25,26
 275 336 275 336 294.5 324.5 c 128,-1,27
 314 313 314 313 325.5 293 c 128,-1,28
 337 273 337 273 337 250 c 0,29,30
 337 233 337 233 330.5 217 c 128,-1,31
 324 201 324 201 312 189 c 1,32,33
 318 188 318 188 324 188 c 0,34,35
 352 188 352 188 368 202 c 0,36,37
 382 213 382 213 386 233 c 0,38,39
 387 242 387 242 387 250 c 0,40,41
 387 287 387 287 369 318.5 c 128,-1,42
 351 350 351 350 320 367.5 c 128,-1,43
 289 385 289 385 252 385 c 0,16,17
289 195 m 0,44,45
 290 194 290 194 294 192 c 1,46,47
 307 202 307 202 315 217.5 c 128,-1,48
 323 233 323 233 323 250 c 0,49,50
 323 270 323 270 313.5 286 c 128,-1,51
 304 302 304 302 287.5 312 c 128,-1,52
 271 322 271 322 252 322 c 0,53,54
 240 322 240 322 229 319 c 1,55,56
 239 308 239 308 247 289 c 2,57,-1
 258 252 l 1,58,59
 256 252 256 252 259 248 c 2,60,-1
 263 236 l 2,61,62
 271 217 271 217 277.5 206.5 c 128,-1,63
 284 196 284 196 289 195 c 0,44,45
314 168 m 0,64,65
 299 170 299 170 290 174 c 1,66,67
 272 165 272 165 252 165 c 0,68,69
 228 165 228 165 208.5 176.5 c 128,-1,70
 189 188 189 188 177.5 207.5 c 128,-1,71
 166 227 166 227 166 250 c 0,72,73
 166 270 166 270 173.5 286.5 c 128,-1,74
 181 303 181 303 195 314 c 1,75,76
 188 318 188 318 180 318 c 0,77,78
 159 316 159 316 144 305 c 0,79,80
 125 291 125 291 117 264 c 0,81,82
 116 261 116 261 116 250 c 0,83,84
 116 213 116 213 134 182.5 c 128,-1,85
 152 152 152 152 183 133.5 c 128,-1,86
 214 115 214 115 252 115 c 0,87,88
 285 115 285 115 314.5 130.5 c 128,-1,89
 344 146 344 146 363 173 c 1,90,91
 343 167 343 167 325 167 c 0,92,93
 320 167 320 167 314 168 c 0,64,65
211 309 m 1,94,95
 196 299 196 299 188 283.5 c 128,-1,96
 180 268 180 268 180 250.5 c 128,-1,97
 180 233 180 233 188 217.5 c 128,-1,98
 196 202 196 202 209 192 c 1,99,100
 212 200 212 200 217 211 c 0,101,102
 219 218 219 218 227 232 c 2,103,-1
 241 261 l 1,104,-1
 239 270 l 1,105,106
 229 292 229 292 221 301 c 0,107,108
 217 305 217 305 211 309 c 1,94,95
EndSplineSet
EndChar

StartChar: coffee
Encoding: 57356 57356 12
Width: 516
GlyphClass: 1
Flags: W
LayerCount: 2
Fore
SplineSet
263 359 m 1,0,1
 259 358 259 358 252 354 c 1,2,3
 267.384615385 361.307692308 267.384615385 361.307692308 267.384615385 361.514792899 c 128,-1,4
 267.384615385 361.846153846 267.384615385 361.846153846 228 344 c 0,5,6
 219 339 219 339 208.5 338 c 128,-1,7
 198 337 198 337 195 340 c 0,8,9
 192.935483871 342.580645161 192.935483871 342.580645161 192.935483871 344.495317378 c 0,10,11
 192.935483871 350 192.935483871 350 210 350 c 128,-1,12
 227 350 227 350 220.5 354.5 c 0,13,14
 216.321428571 357.392857143 216.321428571 357.392857143 209.663265306 357.392857143 c 0,15,16
 205.964285714 357.392857143 205.964285714 357.392857143 201.5 356.5 c 0,17,18
 189 354 189 354 185 349 c 0,19,20
 184 345 184 345 184 343 c 128,-1,21
 184 341 184 341 187 337 c 0,22,23
 193 332 193 332 199 329.5 c 0,24,25
 202.333333333 328.111111111 202.333333333 328.111111111 207.827160494 328.111111111 c 0,26,27
 212.222222222 328.111111111 212.222222222 328.111111111 218 329 c 0,28,29
 227 329 227 329 233.5 330.5 c 128,-1,30
 240 332 240 332 248 337 c 0,31,32
 262 344 262 344 276 347.5 c 0,33,34
 286.888888889 350.222222222 286.888888889 350.222222222 294.75308642 350.222222222 c 0,35,36
 297 350.222222222 297 350.222222222 299 350 c 0,37,38
 308 349 308 349 310.5 345.5 c 128,-1,39
 313 342 313 342 307 338.5 c 128,-1,40
 301 335 301 335 292 334.5 c 128,-1,41
 283 334 283 334 278.5 337.5 c 128,-1,42
 274 341 274 341 269.5 340.5 c 128,-1,43
 265 340 265 340 265 335 c 128,-1,44
 265 330 265 330 279.5 326.5 c 0,45,46
 286.266666667 324.866666667 286.266666667 324.866666667 292.924444444 324.866666667 c 0,47,48
 300.533333333 324.866666667 300.533333333 324.866666667 308 327 c 0,49,50
 320 329 320 329 324 335.5 c 128,-1,51
 328 342 328 342 324 348.5 c 128,-1,52
 320 355 320 355 308 359 c 2,53,-1
 287 361 l 2,54,55
 272 361 272 361 263 359 c 1,56,-1
 263 359 l 1,0,1
133 339 m 1,57,58
 130 337 130 337 127.5 334.5 c 128,-1,59
 125 332 125 332 125 330 c 0,60,61
 124 325 124 325 132.5 319 c 128,-1,62
 141 313 141 313 155 309 c 0,63,64
 177 302 177 302 203 299 c 0,65,66
 217 298 217 298 259 298 c 128,-1,67
 301 298 301 298 313 299 c 2,68,-1
 323 300 l 2,69,70
 330 301 330 301 331 302 c 0,71,72
 341 303 341 303 357 308 c 128,-1,73
 373 313 373 313 378.5 316 c 128,-1,74
 384 319 384 319 387.5 324.5 c 128,-1,75
 391 330 391 330 388.5 333.5 c 128,-1,76
 386 337 386 337 382.5 340.5 c 128,-1,77
 379 344 379 344 377 343.5 c 0,78,79
 376.339622642 343.33490566 376.339622642 343.33490566 376.339622642 336.968672125 c 0,80,81
 376.339622642 329.037735849 376.339622642 329.037735849 355.5 321.5 c 0,82,83
 332 313 332 313 298 312 c 0,84,85
 285 311 285 311 256 311 c 128,-1,86
 227 311 227 311 221 312 c 2,87,-1
 199 313 l 2,88,89
 180 314 180 314 161.5 320.5 c 128,-1,90
 143 327 143 327 143 333 c 2,91,-1
 143 340 l 2,92,93
 146 348 146 348 133 339 c 1,94,-1
 133 339 l 1,57,58
128 297 m 1,95,96
 128 293 128 293 130 287 c 2,97,-1
 133 274 l 1,98,-1
 138 262 l 1,99,-1
 131 257 l 2,100,101
 123 249 123 249 120 244 c 0,102,103
 115 236 115 236 114 231.5 c 128,-1,104
 113 227 113 227 113 217 c 0,105,106
 113 203 113 203 117 196 c 128,-1,107
 121 189 121 189 131 180 c 0,108,109
 137 176 137 176 140.5 175.5 c 128,-1,110
 144 175 144 175 156 175 c 128,-1,111
 168 175 168 175 172 177 c 128,-1,112
 176 179 176 179 165 180 c 0,113,114
 157 182 157 182 147.5 190.5 c 128,-1,115
 138 199 138 199 134.5 207.5 c 0,116,117
 131.4375 214.9375 131.4375 214.9375 131.4375 223.90625 c 0,118,119
 131.4375 236.015625 131.4375 236.015625 136 244 c 1,120,-1
 141 250 l 1,121,-1
 167 210 l 2,122,123
 182 189 182 189 185 177 c 0,124,125
 192 159 192 159 207.5 152 c 128,-1,126
 223 145 223 145 257.5 145 c 128,-1,127
 292 145 292 145 308 152.5 c 128,-1,128
 324 160 324 160 331 179 c 0,129,130
 333 187 333 187 350 210 c 0,131,132
 368 235 368 235 371 245 c 0,133,134
 377 258 377 258 383.5 278 c 128,-1,135
 390 298 390 298 390 304 c 2,136,-1
 390 307 l 1,137,-1
 385 304 l 2,138,139
 380 297 380 297 361 292.5 c 128,-1,140
 342 288 342 288 318 285 c 0,141,142
 304 283.666666667 304 283.666666667 277.111111111 283.666666667 c 0,143,144
 263.666666667 283.666666667 263.666666667 283.666666667 247 284 c 0,145,146
 197 285 197 285 181 289 c 2,147,-1
 168 290 l 2,148,149
 162 291 162 291 148 296.5 c 128,-1,150
 134 302 134 302 130 305.5 c 128,-1,151
 126 309 126 309 128 297 c 1,152,-1
 128 297 l 1,95,96
EndSplineSet
EndChar

StartChar: coldfusion
Encoding: 57357 57357 13
Width: 516
GlyphClass: 1
Flags: W
LayerCount: 2
Fore
SplineSet
188 273 m 1,0,-1
 189 273 l 1,1,-1
 181 273 l 2,2,3
 176 274 176 274 173 273 c 0,4,5
 153 270 153 270 146 268 c 0,6,7
 131 264 131 264 124 253 c 0,8,9
 108.279069767 233.046511628 108.279069767 233.046511628 108.279069767 212.544618713 c 0,10,11
 108.279069767 199.139534884 108.279069767 199.139534884 115 185.5 c 0,12,13
 132 151 132 151 173 149 c 2,14,-1
 220 149 l 2,15,16
 264 150 264 150 291 187 c 0,17,18
 305 204 305 204 312 226 c 0,19,20
 315 233 315 233 319 236 c 128,-1,21
 323 239 323 239 330 239 c 2,22,-1
 344 238 l 1,23,-1
 357 239 l 2,24,25
 361 239 361 239 363.5 239.5 c 128,-1,26
 366 240 366 240 366 243 c 2,27,-1
 367 257 l 2,28,29
 367 265 367 265 364 270 c 0,30,31
 363 274 363 274 361 274 c 2,32,-1
 341 274 l 2,33,34
 336 274 336 274 334.5 275.5 c 128,-1,35
 333 277 333 277 335 282 c 0,36,37
 347 309 347 309 371 317 c 0,38,39
 373 318 373 318 378 319 c 2,40,-1
 385 320 l 2,41,42
 388 321 388 321 389.5 324.5 c 128,-1,43
 391 328 391 328 391 334 c 1,44,45
 391 330 391 330 391 344 c 2,46,-1
 391 355 l 2,47,48
 391 361 391 361 385 361 c 0,49,50
 365 359 365 359 352 354 c 0,51,52
 336 347 336 347 326 335 c 0,53,54
 308 311 308 311 291 269 c 0,55,56
 282 243 282 243 279 237 c 0,57,58
 271 218 271 218 261 207 c 0,59,60
 250 193 250 193 234 191 c 0,61,62
 219.857142857 188.428571429 219.857142857 188.428571429 205.346938776 188.428571429 c 0,63,64
 186 188.428571429 186 188.428571429 166 193 c 0,65,66
 158 194 158 194 153.5 200 c 128,-1,67
 149 206 149 206 149 214 c 0,68,69
 149 232 149 232 169 237 c 0,70,71
 175 239 175 239 186 239 c 2,72,-1
 205 239 l 2,73,74
 209 239 209 239 211 241.5 c 128,-1,75
 213 244 213 244 213 249 c 0,76,77
 213 266 213 266 213 263 c 1,78,79
 213 269 213 269 212.5 271 c 128,-1,80
 212 273 212 273 209.5 273.5 c 128,-1,81
 207 274 207 274 202 274 c 2,82,-1
 190 274 l 1,83,84
 191 273 191 273 188 273 c 1,0,-1
EndSplineSet
EndChar

StartChar: config
Encoding: 57358 57358 14
Width: 516
GlyphClass: 1
Flags: W
LayerCount: 2
Fore
SplineSet
382 229 m 1,0,1
 378 230 378 230 372 233 c 2,2,-1
 364 236 l 1,3,-1
 363 266 l 1,4,-1
 364 269 l 1,5,-1
 382 276 l 2,6,7
 387.818181818 279.636363636 387.818181818 279.636363636 387.818181818 286.446280992 c 0,8,9
 387.818181818 289 387.818181818 289 387 292 c 2,10,-1
 374 323 l 2,11,12
 371 327 371 327 367 329 c 128,-1,13
 363 331 363 331 358 328 c 2,14,-1
 342 321 l 2,15,16
 338 321 338 321 337.5 323.5 c 128,-1,17
 337 326 337 326 333 328 c 0,18,19
 328 334 328 334 328 333 c 1,20,-1
 317 343 l 1,21,-1
 325 361 l 2,22,23
 326 364 326 364 326 366.5625 c 0,24,25
 326 374.25 326 374.25 317 378 c 2,26,-1
 303 381 l 2,27,28
 284.72972973 387.324324324 284.72972973 387.324324324 284.72972973 387.723155588 c 0,29,30
 284.72972973 387.891891892 284.72972973 387.891891892 288 387 c 1,31,32
 284.944444444 388.388888889 284.944444444 388.388888889 282.274691358 388.388888889 c 0,33,34
 275.333333333 388.388888889 275.333333333 388.388888889 271 379 c 2,35,-1
 265 362 l 1,36,-1
 235 361 l 1,37,-1
 231 362 l 1,38,-1
 224 379 l 2,39,40
 221 385.75 221 385.75 213.5 385.75 c 0,41,42
 211 385.75 211 385.75 208 385 c 2,43,-1
 178 372 l 2,44,45
 173 369 173 369 171.5 365 c 128,-1,46
 170 361 170 361 172 356 c 2,47,-1
 179 340 l 2,48,49
 179 336 179 336 178 336 c 2,50,-1
 173 332 l 1,51,-1
 171 328 l 1,52,-1
 158 315 l 1,53,-1
 141 321 l 2,54,55
 137.944444444 322.388888889 137.944444444 322.388888889 135.274691358 322.388888889 c 0,56,57
 128.333333333 322.388888889 128.333333333 322.388888889 124 313 c 2,58,-1
 114 286 l 2,59,60
 112 279 112 279 113.5 275.5 c 128,-1,61
 115 272 115 272 121 269 c 2,62,-1
 131 266 l 1,63,-1
 138 263 l 1,64,-1
 140 233 l 1,65,-1
 138 229 l 1,66,-1
 121 222 l 2,67,68
 115.181818182 219.090909091 115.181818182 219.090909091 115.181818182 211.950413223 c 0,69,70
 115.181818182 209.272727273 115.181818182 209.272727273 116 206 c 2,71,-1
 129 176 l 2,72,73
 132 171 132 171 136 169.5 c 128,-1,74
 140 168 140 168 144 170 c 2,75,-1
 161 177 l 2,76,77
 164 177 164 177 164 176 c 0,78,79
 166 173 166 173 170 170 c 0,80,81
 175 165 175 165 175 166 c 1,82,-1
 186 156 l 1,83,-1
 178 138 l 2,84,85
 176.611111111 134.666666667 176.611111111 134.666666667 176.611111111 131.87345679 c 0,86,87
 176.611111111 124.611111111 176.611111111 124.611111111 186 121 c 2,88,-1
 200 116 l 2,89,90
 208 112 208 112 215 110 c 128,-1,91
 222 108 222 108 225.5 109.5 c 128,-1,92
 229 111 229 111 231 118 c 0,93,94
 232 121 232 121 235 127 c 2,95,-1
 238 135 l 1,96,-1
 268 136 l 1,97,-1
 271 135 l 1,98,-1
 278 118 l 2,99,100
 281.75 111.25 281.75 111.25 288.875 111.25 c 0,101,102
 291.25 111.25 291.25 111.25 294 112 c 2,103,-1
 325 126 l 2,104,105
 329 128 329 128 331 132 c 128,-1,106
 333 136 333 136 330 141 c 2,107,-1
 323 158 l 2,108,109
 323 161 323 161 325 161 c 0,110,111
 328 163 328 163 330 166 c 0,112,113
 336 171 336 171 335 171 c 1,114,-1
 345 182 l 1,115,-1
 362 176 l 2,116,117
 365.055555556 174.611111111 365.055555556 174.611111111 367.648148148 174.611111111 c 0,118,119
 374.388888889 174.611111111 374.388888889 174.611111111 378 184 c 2,120,-1
 383 198 l 2,121,122
 387 206 387 206 389 213 c 0,123,124
 390.470588235 216.529411765 390.470588235 216.529411765 390.470588235 219.366782007 c 0,125,126
 390.470588235 226.176470588 390.470588235 226.176470588 382 229 c 1,127,-1
 382 229 l 1,0,1
275 197 m 0,128,129
 263.685714286 192.371428571 263.685714286 192.371428571 252.371428571 192.371428571 c 0,130,131
 252.371428571 192.371428571 252.371428571 192.371428571 231 196.5 c 0,132,133
 209 205 209 205 199.5 226.5 c 0,134,135
 194.486111111 237.847222222 194.486111111 237.847222222 194.486111111 249.194444444 c 0,136,137
 194.486111111 259.347222222 194.486111111 259.347222222 198.5 269.5 c 0,138,139
 207 291 207 291 228.5 300.5 c 0,140,141
 240.171428571 305.657142857 240.171428571 305.657142857 251.842857143 305.657142857 c 0,142,143
 251.842857143 305.657142857 251.842857143 305.657142857 271.5 302 c 0,144,145
 293 294 293 294 302.5 272.5 c 0,146,147
 307.657142857 260.828571429 307.657142857 260.828571429 307.657142857 249.009795918 c 0,148,149
 307.657142857 239.057142857 307.657142857 239.057142857 304 229 c 0,150,151
 296 207 296 207 275 197 c 0,128,129
EndSplineSet
EndChar

StartChar: cpp
Encoding: 57359 57359 15
Width: 516
GlyphClass: 1
Flags: W
LayerCount: 2
Fore
SplineSet
119 253 m 0,0,1
 119 283 119 283 128 307 c 128,-1,2
 137 331 137 331 153 346 c 128,-1,3
 169 361 169 361 191 372 c 0,4,5
 209 379 209 379 236 379 c 0,6,7
 260 379 260 379 279 369.5 c 128,-1,8
 298 360 298 360 310 347 c 1,9,-1
 276 309 l 1,10,11
 262 319 262 319 268 315 c 1,12,13
 263 318 263 318 259 319 c 1,14,15
 267 317 267 317 249 322 c 0,16,17
 242 324 242 324 236 324 c 0,18,19
 226 324 226 324 215.5 319 c 128,-1,20
 205 314 205 314 199 305.5 c 128,-1,21
 193 297 193 297 188 283.5 c 128,-1,22
 183 270 183 270 183 253 c 0,23,24
 183 217 183 217 199 202 c 0,25,26
 215 183 215 183 239 183 c 0,27,28
 252 183 252 183 262 188 c 128,-1,29
 272 193 272 193 279 202 c 1,30,-1
 313 163 l 1,31,32
 299 146 299 146 279.5 136.5 c 128,-1,33
 260 127 260 127 237.5 127 c 128,-1,34
 215 127 215 127 191 135 c 0,35,36
 170 142 170 142 154 158 c 0,37,38
 146 166 146 166 140 177 c 0,39,40
 136 184 136 184 130 201 c 0,41,42
 119 222 119 222 119 253 c 0,0,1
279 298 m 1,43,-1
 257 298 l 1,44,-1
 257 271 l 1,45,-1
 232 271 l 1,46,-1
 232 249 l 1,47,-1
 257 249 l 1,48,-1
 257 221 l 1,49,-1
 279 221 l 1,50,-1
 279 249 l 1,51,-1
 304 249 l 1,52,-1
 304 271 l 1,53,-1
 279 271 l 1,54,-1
 279 298 l 1,43,-1
359 271 m 1,55,-1
 359 298 l 1,56,-1
 337 298 l 1,57,-1
 337 271 l 1,58,-1
 312 271 l 1,59,-1
 312 249 l 1,60,-1
 337 249 l 1,61,-1
 337 221 l 1,62,-1
 359 221 l 1,63,-1
 359 249 l 1,64,-1
 384 249 l 1,65,-1
 384 271 l 1,66,-1
 359 271 l 1,55,-1
EndSplineSet
EndChar

StartChar: csharp
Encoding: 57360 57360 16
Width: 516
GlyphClass: 1
Flags: W
LayerCount: 2
Fore
SplineSet
127 249 m 0,0,1
 127 279 127 279 136 302.5 c 128,-1,2
 145 326 145 326 161 341.5 c 128,-1,3
 177 357 177 357 199 367 c 0,4,5
 217 375 217 375 245 375 c 0,6,7
 268 375 268 375 287 365.5 c 128,-1,8
 306 356 306 356 319 343 c 1,9,-1
 285 304 l 1,10,11
 270 315 270 315 276 311 c 1,12,13
 271 314 271 314 267 315 c 1,14,15
 275 313 275 313 257 318 c 0,16,17
 251 320 251 320 245 320 c 0,18,19
 234 320 234 320 224 315 c 128,-1,20
 214 310 214 310 207.5 301 c 128,-1,21
 201 292 201 292 196 278.5 c 128,-1,22
 191 265 191 265 191 249 c 0,23,24
 191 212 191 212 207 197 c 0,25,26
 223 178 223 178 248 178 c 0,27,28
 260 178 260 178 270.5 183 c 128,-1,29
 281 188 281 188 288 197 c 1,30,-1
 322 158 l 1,31,32
 307 141 307 141 287.5 131.5 c 128,-1,33
 268 122 268 122 245.5 122 c 128,-1,34
 223 122 223 122 199 130 c 0,35,36
 179 137 179 137 162 153 c 0,37,38
 154 161 154 161 148 173 c 0,39,40
 145 179 145 179 138 196 c 0,41,42
 127 217 127 217 127 249 c 0,0,1
339 230 m 1,43,-1
 326 230 l 1,44,-1
 322 199 l 1,45,-1
 306 199 l 1,46,-1
 311 230 l 1,47,-1
 295 230 l 1,48,-1
 295 245 l 1,49,-1
 314 245 l 1,50,-1
 317 265 l 1,51,-1
 300 265 l 1,52,-1
 300 279 l 1,53,-1
 319 279 l 1,54,-1
 324 310 l 1,55,-1
 339 310 l 1,56,-1
 334 279 l 1,57,-1
 347 279 l 1,58,-1
 352 310 l 1,59,-1
 367 310 l 1,60,-1
 362 279 l 1,61,-1
 380 279 l 1,62,-1
 380 265 l 1,63,-1
 360 265 l 1,64,-1
 357 245 l 1,65,-1
 374 245 l 1,66,-1
 374 230 l 1,67,-1
 354 230 l 1,68,-1
 349 199 l 1,69,-1
 333 199 l 1,70,-1
 339 230 l 1,43,-1
329 245 m 1,71,-1
 342 245 l 1,72,-1
 346 265 l 1,73,-1
 333 265 l 1,74,-1
 329 245 l 1,71,-1
EndSplineSet
EndChar

StartChar: css
Encoding: 57361 57361 17
Width: 516
GlyphClass: 1
Flags: W
LayerCount: 2
Fore
SplineSet
158 131 m 1,0,-1
 171 195 l 1,1,-1
 131 195 l 1,2,-1
 131 229 l 1,3,-1
 179 229 l 1,4,-1
 187 269 l 1,5,-1
 145 269 l 1,6,-1
 145 303 l 1,7,-1
 195 303 l 1,8,-1
 208 366 l 1,9,-1
 254 366 l 1,10,-1
 241 303 l 1,11,-1
 286 303 l 1,12,-1
 299 366 l 1,13,-1
 344 366 l 1,14,-1
 331 303 l 1,15,-1
 372 303 l 1,16,-1
 372 269 l 1,17,-1
 325 269 l 1,18,-1
 315 229 l 1,19,-1
 357 229 l 1,20,-1
 357 195 l 1,21,-1
 309 195 l 1,22,-1
 296 131 l 1,23,-1
 250 131 l 1,24,-1
 263 195 l 1,25,-1
 218 195 l 1,26,-1
 205 131 l 1,27,-1
 158 131 l 1,0,-1
270 229 m 1,28,-1
 278 269 l 1,29,-1
 233 269 l 1,30,-1
 225 229 l 1,31,-1
 270 229 l 1,28,-1
EndSplineSet
EndChar

StartChar: csv
Encoding: 57362 57362 18
Width: 516
GlyphClass: 1
Flags: W
LayerCount: 2
Fore
SplineSet
266 286 m 1,0,-1
 344 286 l 1,1,-1
 344 266 l 1,2,-1
 266 266 l 1,3,-1
 266 286 l 1,0,-1
266 331 m 1,4,-1
 344 331 l 1,5,-1
 344 312 l 1,6,-1
 266 312 l 1,7,-1
 266 331 l 1,4,-1
266 194 m 1,8,-1
 344 194 l 1,9,-1
 344 175 l 1,10,-1
 266 175 l 1,11,-1
 266 194 l 1,8,-1
266 240 m 1,12,-1
 344 240 l 1,13,-1
 344 220 l 1,14,-1
 266 220 l 1,15,-1
 266 240 l 1,12,-1
160 286 m 1,16,-1
 237 286 l 1,17,-1
 237 266 l 1,18,-1
 160 266 l 1,19,-1
 160 286 l 1,16,-1
160 331 m 1,20,-1
 237 331 l 1,21,-1
 237 312 l 1,22,-1
 160 312 l 1,23,-1
 160 331 l 1,20,-1
160 194 m 1,24,-1
 237 194 l 1,25,-1
 237 175 l 1,26,-1
 160 175 l 1,27,-1
 160 194 l 1,24,-1
160 240 m 1,28,-1
 237 240 l 1,29,-1
 237 220 l 1,30,-1
 160 220 l 1,31,-1
 160 240 l 1,28,-1
115 117 m 1,32,-1
 390 117 l 1,33,-1
 390 388 l 1,34,-1
 115 388 l 1,35,-1
 115 117 l 1,32,-1
EndSplineSet
EndChar

StartChar: default
Encoding: 57363 57363 19
Width: 516
GlyphClass: 1
Flags: W
LayerCount: 2
Fore
SplineSet
130 373 m 1,0,-1
 357 373 l 1,1,-1
 357 340 l 1,2,-1
 130 340 l 1,3,-1
 130 373 l 1,0,-1
130 300 m 1,4,-1
 323 300 l 1,5,-1
 323 267 l 1,6,-1
 130 267 l 1,7,-1
 130 300 l 1,4,-1
130 224 m 1,8,-1
 369 224 l 1,9,-1
 369 192 l 1,10,-1
 130 192 l 1,11,-1
 130 224 l 1,8,-1
130 151 m 1,12,-1
 270 151 l 1,13,-1
 270 119 l 1,14,-1
 130 119 l 1,15,-1
 130 151 l 1,12,-1
EndSplineSet
EndChar

StartChar: deprecationcop
Encoding: 57364 57364 20
Width: 516
GlyphClass: 1
Flags: W
LayerCount: 2
Fore
SplineSet
404 297 m 2,0,-1
 404 292 l 1,1,-1
 401 287 l 1,2,-1
 384 268 l 2,3,4
 375 258 375 258 375 249 c 0,5,6
 375 248 375 248 374 247 c 2,7,-1
 371 245 l 1,8,9
 321 233 321 233 270 231 c 0,10,11
 221 231 221 231 197 236 c 2,12,-1
 145 245 l 2,13,14
 144 245 144 245 143 246 c 2,15,-1
 142 247 l 1,16,17
 142 260 142 260 131 268 c 2,18,-1
 116 281 l 2,19,20
 110 288 110 288 112.5 295.5 c 128,-1,21
 115 303 115 303 124 307 c 2,22,-1
 160 321 l 2,23,24
 172 327 172 327 189 338 c 2,25,-1
 218 355 l 2,26,27
 238 371 238 371 257 375 c 1,28,-1
 262 375 l 1,29,30
 277 371 277 371 299 359 c 0,31,32
 313 352 313 352 326 341 c 2,33,-1
 357 324 l 2,34,35
 375 315 375 315 389 310 c 0,36,37
 402 308 402 308 404 297 c 2,0,-1
260 317 m 0,38,39
 245 317 245 317 233 304 c 2,40,-1
 232 303 l 2,41,42
 231 301 231 301 231 300 c 0,43,44
 233 281 233 281 245 266 c 0,45,46
 247 263 247 263 254 260 c 0,47,48
 257.142857143 258.857142857 257.142857143 258.857142857 260.040816327 258.857142857 c 0,49,50
 267.285714286 258.857142857 267.285714286 258.857142857 273 266 c 0,51,52
 285 281 285 281 287 300 c 0,53,54
 287 302 287 302 286 304 c 0,55,56
 273 317 273 317 260 317 c 0,38,39
255 142 m 0,57,58
 244 144 244 144 233 145 c 0,59,60
 198 152 198 152 170 182 c 0,61,62
 154 201 154 201 145 218 c 2,63,-1
 144 221 l 1,64,-1
 144 223 l 1,65,66
 201.5 208.5 201.5 208.5 259.25 208.5 c 128,-1,67
 317 208.5 317 208.5 375 223 c 1,68,-1
 375 220 l 1,69,70
 350 171 350 171 308 153 c 0,71,72
 289 144 289 144 266 144 c 2,73,-1
 263 144 l 2,74,75
 260 142 260 142 255 142 c 0,57,58
EndSplineSet
EndChar

StartChar: docker
Encoding: 57365 57365 21
Width: 516
GlyphClass: 1
Flags: W
LayerCount: 2
Fore
SplineSet
223 362 m 1,0,-1
 253 362 l 1,1,-1
 253 332 l 1,2,-1
 223 332 l 1,3,-1
 223 362 l 1,0,-1
223 327 m 1,4,-1
 253 327 l 1,5,-1
 253 297 l 1,6,-1
 223 297 l 1,7,-1
 223 327 l 1,4,-1
223 291 m 1,8,-1
 253 291 l 1,9,-1
 253 261 l 1,10,-1
 223 261 l 1,11,-1
 223 291 l 1,8,-1
189 327 m 1,12,-1
 219 327 l 1,13,-1
 219 297 l 1,14,-1
 189 297 l 1,15,-1
 189 327 l 1,12,-1
189 291 m 1,16,-1
 219 291 l 1,17,-1
 219 261 l 1,18,-1
 189 261 l 1,19,-1
 189 291 l 1,16,-1
153 327 m 1,20,-1
 183 327 l 1,21,-1
 183 297 l 1,22,-1
 153 297 l 1,23,-1
 153 327 l 1,20,-1
153 291 m 1,24,-1
 183 291 l 1,25,-1
 183 261 l 1,26,-1
 153 261 l 1,27,-1
 153 291 l 1,24,-1
118 291 m 1,28,-1
 148 291 l 1,29,-1
 148 261 l 1,30,-1
 118 261 l 1,31,-1
 118 291 l 1,28,-1
260 291 m 1,32,-1
 290 291 l 1,33,-1
 290 261 l 1,34,-1
 260 261 l 1,35,-1
 260 291 l 1,32,-1
414 286 m 0,36,37
 402 289 402 289 394 289 c 0,38,39
 392.37037037 288.703703704 392.37037037 288.703703704 390.894375857 288.703703704 c 0,40,41
 382.407407407 288.703703704 382.407407407 288.703703704 379 298.5 c 0,42,43
 375 310 375 310 365 316 c 1,44,45
 359 325 359 325 352.5 323.5 c 128,-1,46
 346 322 346 322 343 313 c 0,47,48
 339.875 303.625 339.875 303.625 339.875 292.6875 c 0,49,50
 339.875 286.125 339.875 286.125 341 279 c 0,51,52
 344 269 344 269 341.5 265 c 128,-1,53
 339 261 339 261 329 259 c 128,-1,54
 319 257 319 257 200 257 c 2,55,-1
 84 257 l 2,56,57
 79 257 79 257 79 242 c 0,58,59
 79 233 79 233 81 222 c 0,60,61
 82 208 82 208 86 201 c 0,62,63
 97 175 97 175 116 160 c 0,64,65
 137 143 137 143 164 141 c 2,66,-1
 231 141 l 2,67,68
 290 143 290 143 340 195 c 0,69,70
 360 217 360 217 370 240 c 0,71,72
 374 248 374 248 383 250 c 0,73,74
 402 253 402 253 410 259 c 2,75,-1
 416 267 l 2,76,77
 424 272 424 272 423 278.5 c 128,-1,78
 422 285 422 285 414 286 c 0,36,37
189 210 m 256,79,80
 194 210 194 210 197.5 206.5 c 128,-1,81
 201 203 201 203 201 198 c 0,82,83
 201 186 201 186 189 186 c 0,84,85
 184 186 184 186 180.5 189 c 128,-1,86
 177 192 177 192 177 197.5 c 128,-1,87
 177 203 177 203 180.5 206.5 c 128,-1,88
 184 210 184 210 189 210 c 256,79,80
115 176 m 1,89,90
 117.5 176.5 117.5 176.5 122 176.5 c 128,-1,91
 126.5 176.5 126.5 176.5 133 176 c 0,92,93
 144 176 144 176 150 178 c 0,94,95
 156.285714286 180.285714286 156.285714286 180.285714286 161.428571429 180.285714286 c 0,96,97
 165.285714286 180.285714286 165.285714286 180.285714286 168.5 179 c 0,98,99
 176 176 176 176 182 166 c 0,100,101
 184 161 184 161 192 155 c 2,102,-1
 207 147 l 1,103,104
 199 145.72 199 145.72 191 145.72 c 0,105,106
 191 145.72 191 145.72 157 151.5 c 0,107,108
 132 160 132 160 115 176 c 1,89,90
EndSplineSet
EndChar

StartChar: editorconfig
Encoding: 57366 57366 22
Width: 516
GlyphClass: 1
Flags: W
LayerCount: 2
Fore
SplineSet
287 208 m 1,0,1
 290 207 290 207 302 204 c 1,2,3
 302 197 302 197 295 188 c 2,4,-1
 282 169 l 2,5,6
 275 161 275 161 257 150 c 0,7,8
 245 143 245 143 220 132 c 0,9,10
 212 129 212 129 210 127 c 0,11,12
 199 120 199 120 189 119 c 2,13,-1
 167 115 l 2,14,15
 157.666666667 113.666666667 157.666666667 113.666666667 151 113.666666667 c 0,16,17
 147.666666667 113.666666667 147.666666667 113.666666667 145 114 c 0,18,19
 126 114 126 114 115 118 c 0,20,21
 111 119 111 119 108 126 c 0,22,23
 106 129 106 129 106 134 c 1,24,25
 111 129 111 129 113 129 c 0,26,27
 118.538461538 122.769230769 118.538461538 122.769230769 125.514792899 122.769230769 c 0,28,29
 128.615384615 122.769230769 128.615384615 122.769230769 132 124 c 1,30,-1
 135 124 l 2,31,32
 141 124 141 124 142 129 c 0,33,34
 142 131 142 131 139 136 c 0,35,36
 139 138 139 138 137 138 c 2,37,-1
 121 143 l 2,38,39
 112 146 112 146 106 143 c 1,40,-1
 118 192 l 1,41,-1
 126 220 l 2,42,43
 127 221 127 221 128 221 c 2,44,-1
 131 221 l 1,45,-1
 138 219 l 2,46,47
 143 216 143 216 146 216 c 0,48,49
 158 214.666666667 158 214.666666667 166 214.666666667 c 0,50,51
 170 214.666666667 170 214.666666667 173 215 c 0,52,53
 182 216 182 216 191 223 c 0,54,55
 192 226 192 226 195.5 226 c 128,-1,56
 199 226 199 226 203 222 c 1,57,-1
 203 220 l 2,58,59
 203 199 203 199 220 187 c 0,60,61
 226 182 226 182 235 182 c 2,62,-1
 257 182 l 2,63,64
 268 182 268 182 280 190 c 0,65,66
 282 192 282 192 283 195 c 0,67,68
 287 206 287 206 287 208 c 1,0,1
304 210 m 0,69,70
 297 211 297 211 289 211 c 1,71,72
 286 215 286 215 282 216 c 0,73,74
 273 222 273 222 248 228 c 0,75,76
 235 230 235 230 212 230 c 1,77,-1
 207 229 l 2,78,79
 206 227 206 227 204.5 228.5 c 128,-1,80
 203 230 203 230 198 230 c 0,81,82
 196 230 196 230 196.5 233.5 c 128,-1,83
 197 237 197 237 196 239.5 c 128,-1,84
 195 242 195 242 192 243 c 2,85,-1
 158 260 l 1,86,-1
 145 263 l 1,87,-1
 150 274 l 1,88,89
 146 267 146 267 155 283 c 2,90,-1
 159 289 l 1,91,-1
 164 294 l 2,92,93
 170 304 170 304 179 307 c 0,94,95
 181 310 181 310 185 310 c 0,96,97
 194 311 194 311 202.75 311 c 128,-1,98
 211.5 311 211.5 311 220 310 c 0,99,100
 239 306 239 306 246 304 c 2,101,-1
 266 297 l 1,102,-1
 281 289 l 2,103,104
 287 283 287 283 287 280 c 2,105,-1
 294 257 l 2,106,107
 294 253 294 253 297 246 c 2,108,-1
 302 223 l 2,109,110
 304 208 304 208 304 210 c 0,69,70
246 375 m 0,111,112
 246 381 246 381 242 383.5 c 128,-1,113
 238 386 238 386 227 388 c 0,114,115
 225 390 225 390 216 390 c 1,116,-1
 216 390 l 1,117,118
 214 390 214 390 213 388 c 0,119,120
 204 386 204 386 189 373 c 0,121,122
 185 372 185 372 184 368 c 2,123,-1
 172 344 l 2,124,125
 167 336 167 336 167 326 c 1,126,-1
 172 328 l 2,127,128
 182 330 182 330 185 330 c 0,129,130
 210 330 210 330 221 329 c 2,131,-1
 225 329 l 2,132,133
 227 329 227 329 229 332 c 2,134,-1
 234 337 l 2,135,136
 246.8 351.4 246.8 351.4 246.8 367.08 c 0,137,138
 246.8 371 246.8 371 246 375 c 0,111,112
236 383 m 1,139,-1
 233 384 l 1,140,-1
 236 383 l 1,139,-1
396 260 m 1,141,-1
 396 260 l 1,142,143
 396 265 396 265 391 269 c 0,144,145
 387 277 387 277 379 281 c 1,146,-1
 378 281 l 2,147,148
 372 283 372 283 368 283 c 2,149,-1
 357 283 l 2,150,151
 342 283 342 283 329 275 c 0,152,153
 327 274 327 274 322 269.5 c 128,-1,154
 317 265 317 265 314 264 c 2,155,-1
 317 246 l 2,156,157
 320 234 320 234 320 226 c 2,158,-1
 320 204 l 1,159,-1
 321 204 l 1,160,161
 327.19047619 201.619047619 327.19047619 201.619047619 333.380952381 201.619047619 c 0,162,163
 333.380952381 201.619047619 333.380952381 201.619047619 347 204.5 c 0,164,165
 360 210 360 210 379 226 c 0,166,167
 393 238 393 238 396 251 c 2,168,-1
 396 260 l 1,141,-1
EndSplineSet
EndChar

StartChar: ejs
Encoding: 57367 57367 23
Width: 516
GlyphClass: 1
Flags: W
LayerCount: 2
Fore
SplineSet
121 276 m 1,0,-1
 224 371 l 1,1,-1
 224 326 l 1,2,-1
 147 258 l 1,3,-1
 224 191 l 1,4,-1
 224 145 l 1,5,-1
 121 241 l 1,6,-1
 121 276 l 1,0,-1
396 239 m 1,7,-1
 292 144 l 1,8,-1
 292 189 l 1,9,-1
 371 257 l 1,10,-1
 371 258 l 1,11,-1
 292 326 l 1,12,-1
 292 373 l 1,13,-1
 396 278 l 1,14,-1
 396 239 l 1,7,-1
EndSplineSet
EndChar

StartChar: elm
Encoding: 57368 57368 24
Width: 516
GlyphClass: 1
Flags: W
LayerCount: 2
Fore
SplineSet
248 243 m 1,0,-1
 124 119 l 1,1,-1
 372 119 l 1,2,-1
 248 243 l 1,0,-1
325 181 m 1,3,-1
 379 126 l 1,4,-1
 379 236 l 1,5,-1
 325 181 l 1,3,-1
241 250 m 1,6,-1
 117 374 l 1,7,-1
 117 126 l 1,8,-1
 241 250 l 1,6,-1
379 265 m 1,9,-1
 379 381 l 1,10,-1
 263 381 l 1,11,-1
 379 265 l 1,9,-1
317 312 m 1,12,-1
 379 250 l 1,13,-1
 317 188 l 1,14,-1
 255 250 l 1,15,-1
 317 312 l 1,12,-1
124 381 m 1,16,-1
 181 324 l 1,17,-1
 305 324 l 1,18,-1
 248 381 l 1,19,-1
 124 381 l 1,16,-1
248 257 m 1,20,-1
 305 314 l 1,21,-1
 191 314 l 1,22,-1
 248 257 l 1,20,-1
EndSplineSet
EndChar

StartChar: eslint
Encoding: 57369 57369 25
Width: 503
GlyphClass: 1
Flags: W
LayerCount: 2
Fore
SplineSet
220 111 m 1,0,-1
 113 207 l 1,1,-1
 143 346 l 1,2,-1
 279 390 l 1,3,-1
 385 295 l 1,4,-1
 355 155 l 1,5,-1
 220 111 l 1,0,-1
168 224 m 1,6,-1
 232 168 l 1,7,-1
 313 194 l 1,8,-1
 330 277 l 1,9,-1
 267 334 l 1,10,-1
 186 308 l 1,11,-1
 168 224 l 1,6,-1
306 152 m 1,12,-1
 192 152 l 1,13,-1
 135 251 l 1,14,-1
 192 350 l 1,15,-1
 306 350 l 1,16,-1
 363 251 l 1,17,-1
 306 152 l 1,12,-1
212 187 m 1,18,-1
 286 187 l 1,19,-1
 323 251 l 1,20,-1
 286 315 l 1,21,-1
 212 315 l 1,22,-1
 175 251 l 1,23,-1
 212 187 l 1,18,-1
EndSplineSet
EndChar

StartChar: favicon
Encoding: 57370 57370 26
Width: 516
GlyphClass: 1
Flags: W
LayerCount: 2
Fore
SplineSet
256 391 m 1,0,-1
 301 300 l 1,1,-1
 401 285 l 1,2,-1
 328 216 l 1,3,-1
 346 116 l 1,4,-1
 256 163 l 1,5,-1
 166 116 l 1,6,-1
 184 216 l 1,7,-1
 112 285 l 1,8,-1
 211 300 l 1,9,-1
 256 391 l 1,0,-1
EndSplineSet
EndChar

StartChar: flow
Encoding: 57371 57371 27
Width: 0
GlyphClass: 1
Flags: W
LayerCount: 2
Fore
SplineSet
326 113 m 1,0,-1
 326 187 l 1,1,-1
 252 187 l 1,2,-1
 326 113 l 1,0,-1
334 155 m 1,3,-1
 334 235 l 1,4,-1
 255 235 l 1,5,-1
 334 155 l 1,3,-1
285 187 m 1,6,-1
 285 107 l 1,7,-1
 365 107 l 1,8,-1
 285 187 l 1,6,-1
317 230 m 1,9,-1
 317 294 l 1,10,-1
 255 294 l 1,11,-1
 317 230 l 1,9,-1
347 245 m 1,12,-1
 347 325 l 1,13,-1
 267 325 l 1,14,-1
 347 245 l 1,12,-1
211 394 m 1,15,-1
 211 314 l 1,16,-1
 291 314 l 1,17,-1
 211 394 l 1,15,-1
230 268 m 1,18,-1
 230 349 l 1,19,-1
 134 349 l 1,20,-1
 214 268 l 1,21,-1
 230 268 l 1,18,-1
230 108 m 1,22,-1
 230 205 l 1,23,-1
 134 205 l 1,24,-1
 230 108 l 1,22,-1
230 188 m 1,25,-1
 230 268 l 1,26,-1
 151 268 l 1,27,-1
 230 188 l 1,25,-1
255 294 m 1,28,-1
 255 213 l 1,29,-1
 334 213 l 1,30,-1
 255 294 l 1,28,-1
230 284 m 1,31,-1
 230 365 l 1,32,-1
 151 365 l 1,33,-1
 230 284 l 1,31,-1
252 187 m 1,34,-1
 252 107 l 1,35,-1
 331 107 l 1,36,-1
 252 187 l 1,34,-1
EndSplineSet
EndChar

StartChar: folder
Encoding: 57372 57372 28
Width: 516
GlyphClass: 1
Flags: W
LayerCount: 2
Fore
SplineSet
380 379 m 1,0,-1
 267 379 l 1,1,-1
 241 327 l 1,2,-1
 97 327 l 1,3,-1
 97 121 l 1,4,-1
 406 121 l 1,5,-1
 406 379 l 1,6,-1
 380 379 l 1,0,-1
380 327 m 1,7,-1
 281 327 l 1,8,-1
 293 353 l 1,9,-1
 380 353 l 1,10,-1
 380 327 l 1,7,-1
EndSplineSet
EndChar

StartChar: folder_open
Encoding: 57373 57373 29
Width: 516
GlyphClass: 1
Flags: W
LayerCount: 2
Fore
SplineSet
385 359 m 1,0,-1
 285 359 l 1,1,-1
 262 314 l 1,2,-1
 136 314 l 1,3,-1
 136 133 l 1,4,-1
 407 133 l 1,5,-1
 407 359 l 1,6,-1
 385 359 l 1,0,-1
385 158 m 1,7,-1
 161 158 l 1,8,-1
 161 291 l 1,9,-1
 385 291 l 1,10,-1
 385 158 l 1,7,-1
385 314 m 1,11,-1
 296 314 l 1,12,-1
 308 337 l 1,13,-1
 385 337 l 1,14,-1
 385 314 l 1,11,-1
366 271 m 1,15,-1
 95 271 l 1,16,-1
 136 133 l 1,17,-1
 407 133 l 1,18,-1
 366 271 l 1,15,-1
EndSplineSet
EndChar

StartChar: font
Encoding: 57374 57374 30
Width: 516
GlyphClass: 1
Flags: W
LayerCount: 2
Fore
SplineSet
341 221 m 1,0,-1
 287 221 l 1,1,-1
 281 207 l 2,2,3
 278 197 278 197 278 195 c 0,4,5
 278 188 278 188 283 186 c 0,6,7
 284 185 284 185 287 184 c 2,8,-1
 297 182 l 1,9,-1
 297 178 l 1,10,-1
 247 178 l 1,11,-1
 247 182 l 1,12,13
 257 186 257 186 260 189 c 0,14,15
 266 195 266 195 273 212 c 2,16,-1
 326 331 l 1,17,-1
 328 331 l 1,18,-1
 381 208 l 2,19,20
 388 191 388 191 394.5 186.5 c 128,-1,21
 401 182 401 182 405 182 c 1,22,-1
 405 178 l 1,23,-1
 333 178 l 1,24,-1
 333 182 l 1,25,-1
 339 182 l 2,26,27
 346 182 346 182 352 186 c 0,28,29
 355 189 355 189 355 191 c 2,30,-1
 355 195 l 1,31,-1
 352 203 l 1,32,-1
 341 221 l 1,0,-1
338 231 m 1,33,-1
 315 283 l 1,34,-1
 292 231 l 1,35,-1
 338 231 l 1,33,-1
108 155 m 1,36,37
 119 155 119 155 127 166.5 c 128,-1,38
 135 178 135 178 141 194 c 2,39,-1
 212 370 l 1,40,-1
 221 370 l 1,41,-1
 294 200 l 2,42,43
 298 191 298 191 312 163 c 0,44,45
 316 155 316 155 329 155 c 1,46,-1
 329 147 l 1,47,-1
 224 147 l 1,48,-1
 224 155 l 1,49,50
 239 155 239 155 244.5 158 c 128,-1,51
 250 161 250 161 250 168 c 0,52,53
 250 170 250 170 247 179 c 2,54,-1
 234 210 l 1,55,-1
 162 210 l 1,56,-1
 152 184 l 2,57,58
 147 172 147 172 147 165.5 c 128,-1,59
 147 159 147 159 157 157 c 0,60,61
 160 155 160 155 173 155 c 1,62,-1
 173 147 l 1,63,-1
 108 147 l 1,64,-1
 108 155 l 1,36,37
229 223 m 1,65,-1
 199 297 l 1,66,-1
 195 297 l 1,67,-1
 166 223 l 1,68,-1
 229 223 l 1,65,-1
EndSplineSet
EndChar

StartChar: fsharp
Encoding: 57375 57375 31
Width: 436
GlyphClass: 1
Flags: W
LayerCount: 2
Fore
SplineSet
176 326 m 1,0,-1
 105 255 l 1,1,-1
 248 112 l 1,2,-1
 248 183 l 1,3,-1
 176 255 l 1,4,-1
 248 326 l 1,5,-1
 248 397 l 1,6,-1
 176 326 l 1,0,-1
222 280 m 1,7,-1
 196 255 l 1,8,-1
 248 203 l 1,9,-1
 248 305 l 1,10,-1
 222 280 l 1,7,-1
332 183 m 1,11,-1
 403 255 l 1,12,-1
 261 397 l 1,13,-1
 261 326 l 1,14,-1
 332 255 l 1,15,-1
 261 183 l 1,16,-1
 261 112 l 1,17,-1
 332 183 l 1,11,-1
EndSplineSet
EndChar

StartChar: git
Encoding: 57376 57376 32
Width: 516
GlyphClass: 1
Flags: W
LayerCount: 2
Fore
SplineSet
108 248 m 0,0,1
 108 251 108 251 108.5 254 c 128,-1,2
 109 257 109 257 111 260 c 2,3,-1
 118 271 l 1,4,-1
 198 350 l 1,5,-1
 199 349 l 2,6,7
 200 349 200 349 200 348 c 2,8,-1
 229 320 l 2,9,10
 231 317 231 317 229 315 c 0,11,12
 228 308 228 308 230.5 301.5 c 128,-1,13
 233 295 233 295 237.5 292 c 128,-1,14
 242 289 242 289 242 284 c 2,15,-1
 242 215 l 2,16,17
 242 212 242 212 238 209 c 0,18,19
 232 204 232 204 229 198 c 128,-1,20
 226 192 226 192 228.5 184.5 c 128,-1,21
 231 177 231 177 237 172.5 c 128,-1,22
 243 168 243 168 250 168 c 128,-1,23
 257 168 257 168 262.5 172.5 c 128,-1,24
 268 177 268 177 270.5 183.5 c 128,-1,25
 273 190 273 190 271 196.5 c 128,-1,26
 269 203 269 203 262 209 c 0,27,28
 258 210 258 210 258 215 c 2,29,-1
 258 286 l 1,30,-1
 260 286 l 1,31,-1
 286 261 l 2,32,33
 287 260 287 260 287 259 c 2,34,-1
 288 248 l 2,35,36
 289 240 289 240 296.5 234 c 0,37,38
 302.928571429 228.857142857 302.928571429 228.857142857 310.826530612 228.857142857 c 0,39,40
 312.142857143 228.857142857 312.142857143 228.857142857 313.5 229 c 0,41,42
 323 230 323 230 329 238.5 c 0,43,44
 333.8 245.3 333.8 245.3 333.8 252.1 c 0,45,46
 333.8 262.7625 333.8 262.7625 324 269.5 c 0,47,48
 317.230769231 274.153846154 317.230769231 274.153846154 309.74556213 274.153846154 c 0,49,50
 308.384615385 274.153846154 308.384615385 274.153846154 307 274 c 0,51,52
 304 274 304 274 300 276 c 2,53,-1
 274 302 l 2,54,55
 272 304 272 304 272 307 c 0,56,57
 272.75 309.75 272.75 309.75 272.75 312.34375 c 0,58,59
 272.75 320.125 272.75 320.125 266 326.5 c 0,60,61
 258.714285714 333.380952381 258.714285714 333.380952381 250.77324263 333.380952381 c 0,62,63
 248.904761905 333.380952381 248.904761905 333.380952381 247 333 c 0,64,65
 242 333 242 333 242 334 c 2,66,-1
 214 362 l 2,67,68
 211 363 211 363 214 366 c 2,69,-1
 224 376 l 1,70,-1
 234 387 l 2,71,72
 241 394 241 394 248 394 c 0,73,74
 248 394 248 394 262 387 c 2,75,-1
 383 266 l 2,76,77
 390.5 258.5 390.5 258.5 390.5 251.5 c 128,-1,78
 390.5 244.5 390.5 244.5 383 238 c 2,79,-1
 259 113 l 2,80,81
 255 109 255 109 250 108 c 2,82,-1
 247 108 l 1,83,-1
 235 115 l 1,84,85
 236 114 236 114 220 129 c 2,86,-1
 117 232 l 1,87,-1
 113 241 l 2,88,89
 109 245 109 245 108 248 c 0,0,1
EndSplineSet
EndChar

StartChar: git_brance
Encoding: 57377 57377 33
Width: 516
GlyphClass: 1
Flags: W
LayerCount: 2
Fore
SplineSet
349 307 m 0,0,1
 349 323 349 323 337.5 334.5 c 128,-1,2
 326 346 326 346 310 346 c 128,-1,3
 294 346 294 346 282.5 334.5 c 128,-1,4
 271 323 271 323 271 307 c 0,5,6
 271 296 271 296 276.5 287 c 128,-1,7
 282 278 282 278 291 273 c 1,8,-1
 291 268 l 2,9,10
 290 252 290 252 278.5 240.5 c 128,-1,11
 267 229 267 229 251 228 c 0,12,13
 227 228 227 228 212 219 c 1,14,-1
 212 312 l 1,15,16
 221 318 221 318 226.5 326.5 c 128,-1,17
 232 335 232 335 232 346 c 0,18,19
 232 362 232 362 220.5 373.5 c 128,-1,20
 209 385 209 385 193 385 c 128,-1,21
 177 385 177 385 165.5 373.5 c 128,-1,22
 154 362 154 362 154 346 c 0,23,24
 154 335 154 335 159.5 326.5 c 128,-1,25
 165 318 165 318 174 312 c 1,26,-1
 174 184 l 1,27,28
 165 179 165 179 159.5 170 c 128,-1,29
 154 161 154 161 154 151 c 0,30,31
 154 134 154 134 165.5 123 c 128,-1,32
 177 112 177 112 193.5 112 c 128,-1,33
 210 112 210 112 221 123 c 128,-1,34
 232 134 232 134 232 150 c 128,-1,35
 232 166 232 166 222 177 c 1,36,-1
 233 187 l 2,37,38
 241 190 241 190 252 190 c 0,39,40
 282 191 282 191 305 214 c 0,41,42
 316 225 316 225 322.5 241 c 128,-1,43
 329 257 329 257 330 273 c 1,44,-1
 329 273 l 1,45,46
 338 278 338 278 343.5 287 c 128,-1,47
 349 296 349 296 349 307 c 0,0,1
193 369 m 256,48,49
 203 369 203 369 210 362.5 c 128,-1,50
 217 356 217 356 217 346.5 c 128,-1,51
 217 337 217 337 209.5 329.5 c 128,-1,52
 202 322 202 322 192.5 322 c 128,-1,53
 183 322 183 322 176.5 329.5 c 128,-1,54
 170 337 170 337 170 346.5 c 128,-1,55
 170 356 170 356 176.5 362.5 c 128,-1,56
 183 369 183 369 193 369 c 256,48,49
193 127 m 0,57,58
 183 127 183 127 176.5 134 c 128,-1,59
 170 141 170 141 170 150.5 c 128,-1,60
 170 160 170 160 176.5 167 c 128,-1,61
 183 174 183 174 192.5 174 c 128,-1,62
 202 174 202 174 209.5 167 c 128,-1,63
 217 160 217 160 217 150.5 c 128,-1,64
 217 141 217 141 209.5 134 c 128,-1,65
 202 127 202 127 193 127 c 0,57,58
310 283 m 0,66,67
 300 283 300 283 293.5 290 c 128,-1,68
 287 297 287 297 287 306.5 c 128,-1,69
 287 316 287 316 293.5 323 c 128,-1,70
 300 330 300 330 309.5 330 c 128,-1,71
 319 330 319 330 326.5 323 c 128,-1,72
 334 316 334 316 334 306.5 c 128,-1,73
 334 297 334 297 326.5 290 c 128,-1,74
 319 283 319 283 310 283 c 0,66,67
EndSplineSet
EndChar

StartChar: git_commit
Encoding: 57378 57378 34
Width: 517
GlyphClass: 1
Flags: W
LayerCount: 2
Fore
SplineSet
329 254 m 1,0,1
 322 280 322 280 300 297.5 c 128,-1,2
 278 315 278 315 250 315 c 128,-1,3
 222 315 222 315 200 297.5 c 128,-1,4
 178 280 178 280 171 254 c 1,5,-1
 107 254 l 1,6,-1
 107 213 l 1,7,-1
 171 213 l 1,8,9
 178 186 178 186 200 168.5 c 128,-1,10
 222 151 222 151 250 151 c 128,-1,11
 278 151 278 151 300 168.5 c 128,-1,12
 322 186 322 186 329 213 c 1,13,-1
 393 213 l 1,14,-1
 393 254 l 1,15,-1
 329 254 l 1,0,1
250 188 m 256,16,17
 231 188 231 188 218 201 c 128,-1,18
 205 214 205 214 205 233 c 128,-1,19
 205 252 205 252 218 265 c 128,-1,20
 231 278 231 278 250 278 c 128,-1,21
 269 278 269 278 282 265 c 128,-1,22
 295 252 295 252 295 233 c 128,-1,23
 295 214 295 214 282 201 c 128,-1,24
 269 188 269 188 250 188 c 256,16,17
EndSplineSet
EndChar

StartChar: git_compare
Encoding: 57379 57379 35
Width: 516
GlyphClass: 1
Flags: W
LayerCount: 2
Fore
SplineSet
214 178 m 1,0,-1
 196 178 l 2,1,2
 189 178 189 178 183.5 183 c 128,-1,3
 178 188 178 188 178 196 c 2,4,-1
 178 310 l 1,5,6
 186 314 186 314 191 322.5 c 128,-1,7
 196 331 196 331 196 341 c 0,8,9
 196 356 196 356 185.5 366.5 c 128,-1,10
 175 377 175 377 160 377 c 128,-1,11
 145 377 145 377 134.5 366.5 c 128,-1,12
 124 356 124 356 124 341 c 0,13,14
 124 331 124 331 129 322.5 c 128,-1,15
 134 314 134 314 142 310 c 1,16,-1
 142 196 l 2,17,18
 143 174 143 174 159 158 c 128,-1,19
 175 142 175 142 196 141 c 2,20,-1
 214 141 l 1,21,-1
 214 105 l 1,22,-1
 269 160 l 1,23,-1
 214 214 l 1,24,-1
 214 178 l 1,0,-1
160 363 m 256,25,26
 169 363 169 363 175.5 356.5 c 128,-1,27
 182 350 182 350 182 341 c 128,-1,28
 182 332 182 332 175.5 325.5 c 128,-1,29
 169 319 169 319 160 319 c 128,-1,30
 151 319 151 319 144.5 325.5 c 128,-1,31
 138 332 138 332 138 341 c 128,-1,32
 138 350 138 350 144.5 356.5 c 128,-1,33
 151 363 151 363 160 363 c 256,25,26
360 191 m 1,34,-1
 360 305 l 2,35,36
 359 326 359 326 342.5 342 c 128,-1,37
 326 358 326 358 305 359 c 2,38,-1
 287 359 l 1,39,-1
 287 395 l 1,40,-1
 232 341 l 1,41,-1
 287 286 l 1,42,-1
 287 323 l 1,43,-1
 305 323 l 2,44,45
 312 322 312 322 317.5 317 c 128,-1,46
 323 312 323 312 323 305 c 2,47,-1
 323 191 l 1,48,49
 315 186 315 186 310 178 c 128,-1,50
 305 170 305 170 305 160 c 0,51,52
 305 145 305 145 315.5 134 c 128,-1,53
 326 123 326 123 341 123 c 128,-1,54
 356 123 356 123 367 134 c 128,-1,55
 378 145 378 145 378 160 c 0,56,57
 378 170 378 170 373 178 c 128,-1,58
 368 186 368 186 360 191 c 1,34,-1
341 138 m 256,59,60
 332 138 332 138 326 144.5 c 128,-1,61
 320 151 320 151 320 159.5 c 128,-1,62
 320 168 320 168 326.5 174.5 c 128,-1,63
 333 181 333 181 341.5 181 c 128,-1,64
 350 181 350 181 356.5 174.5 c 128,-1,65
 363 168 363 168 363 159.5 c 128,-1,66
 363 151 363 151 356.5 144.5 c 128,-1,67
 350 138 350 138 341 138 c 256,59,60
EndSplineSet
EndChar

StartChar: git_folder
Encoding: 57380 57380 36
Width: 516
GlyphClass: 1
Flags: W
LayerCount: 2
Fore
SplineSet
380 327 m 1,0,-1
 281 327 l 1,1,-1
 293 353 l 1,2,-1
 380 353 l 1,3,-1
 380 327 l 1,0,-1
380 379 m 1,4,-1
 267 379 l 1,5,-1
 241 327 l 1,6,-1
 97 327 l 1,7,-1
 97 121 l 1,8,-1
 406 121 l 1,9,-1
 406 379 l 1,10,-1
 380 379 l 1,4,-1
304 131 m 0,11,12
 304 132 304 132 305 134 c 2,13,-1
 306 137 l 1,14,-1
 309 142 l 1,15,-1
 348 180 l 2,16,17
 349 180 349 180 349 179 c 2,18,-1
 363 166 l 2,19,20
 364 164 364 164 363 162 c 128,-1,21
 362 160 362 160 363.5 156.5 c 128,-1,22
 365 153 365 153 367 152 c 128,-1,23
 369 151 369 151 369 148 c 2,24,-1
 369 115 l 2,25,26
 369 113 369 113 366.5 111.5 c 128,-1,27
 364 110 364 110 362.5 107 c 128,-1,28
 361 104 361 104 362.5 100.5 c 128,-1,29
 364 97 364 97 366.5 94.5 c 128,-1,30
 369 92 369 92 372.5 92 c 128,-1,31
 376 92 376 92 378.5 94.5 c 128,-1,32
 381 97 381 97 382.5 100 c 128,-1,33
 384 103 384 103 383 106 c 128,-1,34
 382 109 382 109 379 112 c 0,35,36
 377 112 377 112 377 115 c 2,37,-1
 377 149 l 1,38,-1
 378 149 l 1,39,-1
 390 137 l 2,40,41
 391 137 391 137 391 136 c 2,42,-1
 391 131 l 2,43,44
 392 127 392 127 395.5 124 c 128,-1,45
 399 121 399 121 403.5 121.5 c 128,-1,46
 408 122 408 122 411 126 c 128,-1,47
 414 130 414 130 413 134.5 c 128,-1,48
 412 139 412 139 408.5 141.5 c 128,-1,49
 405 144 405 144 400 143 c 0,50,51
 399 143 399 143 397 144 c 2,52,-1
 384 157 l 2,53,54
 383 158 383 158 383 159 c 0,55,56
 385 165 385 165 380.5 169 c 128,-1,57
 376 173 376 173 371 172 c 2,58,-1
 369 172 l 1,59,-1
 355 186 l 2,60,61
 354 186 354 186 355 188 c 2,62,-1
 365 198 l 2,63,64
 372 205 372 205 379 198 c 2,65,-1
 437 139 l 2,66,67
 444 132 444 132 437 126 c 2,68,-1
 377 66 l 2,69,70
 375 64 375 64 373 63 c 2,71,-1
 371 63 l 1,72,-1
 366 67 l 1,73,74
 366 66 366 66 358 73 c 2,75,-1
 351 81 l 1,76,-1
 309 123 l 1,77,-1
 307 127 l 2,78,79
 305 129 305 129 304 131 c 0,11,12
EndSplineSet
EndChar

StartChar: git_folder
Encoding: 57381 57381 37
Width: 516
GlyphClass: 1
Flags: W
LayerCount: 2
Fore
SplineSet
385 359 m 1,0,-1
 285 359 l 1,1,-1
 262 314 l 1,2,-1
 136 314 l 1,3,-1
 136 133 l 1,4,-1
 407 133 l 1,5,-1
 407 359 l 1,6,-1
 385 359 l 1,0,-1
385 158 m 1,7,-1
 161 158 l 1,8,-1
 161 291 l 1,9,-1
 385 291 l 1,10,-1
 385 158 l 1,7,-1
385 314 m 1,11,-1
 296 314 l 1,12,-1
 308 337 l 1,13,-1
 385 337 l 1,14,-1
 385 314 l 1,11,-1
366 271 m 1,15,-1
 95 271 l 1,16,-1
 136 133 l 1,17,-1
 407 133 l 1,18,-1
 366 271 l 1,15,-1
304 131 m 0,19,20
 304 132 304 132 305 134 c 2,21,-1
 306 137 l 1,22,-1
 309 142 l 1,23,-1
 348 180 l 2,24,25
 349 180 349 180 349 179 c 2,26,-1
 363 166 l 2,27,28
 364 164 364 164 363 162 c 128,-1,29
 362 160 362 160 363.5 156.5 c 128,-1,30
 365 153 365 153 367 152 c 128,-1,31
 369 151 369 151 369 148 c 2,32,-1
 369 115 l 2,33,34
 369 113 369 113 366.5 111.5 c 128,-1,35
 364 110 364 110 362.5 107 c 128,-1,36
 361 104 361 104 362.5 100.5 c 128,-1,37
 364 97 364 97 366.5 94.5 c 128,-1,38
 369 92 369 92 372.5 92 c 128,-1,39
 376 92 376 92 378.5 94.5 c 128,-1,40
 381 97 381 97 382.5 100 c 128,-1,41
 384 103 384 103 383 106 c 128,-1,42
 382 109 382 109 379 112 c 0,43,44
 377 112 377 112 377 115 c 2,45,-1
 377 149 l 1,46,-1
 378 149 l 1,47,-1
 390 137 l 2,48,49
 391 137 391 137 391 136 c 2,50,-1
 391 131 l 2,51,52
 392 127 392 127 395.5 124 c 128,-1,53
 399 121 399 121 403.5 121.5 c 128,-1,54
 408 122 408 122 411 126 c 128,-1,55
 414 130 414 130 413 134.5 c 128,-1,56
 412 139 412 139 408.5 141.5 c 128,-1,57
 405 144 405 144 400 143 c 0,58,59
 399 143 399 143 397 144 c 2,60,-1
 384 157 l 2,61,62
 383 158 383 158 383 159 c 0,63,64
 385 165 385 165 380.5 169 c 128,-1,65
 376 173 376 173 371 172 c 2,66,-1
 369 172 l 1,67,-1
 355 186 l 2,68,69
 354 186 354 186 355 188 c 2,70,-1
 365 198 l 2,71,72
 372 205 372 205 379 198 c 2,73,-1
 437 139 l 2,74,75
 444 132 444 132 437 126 c 2,76,-1
 377 66 l 2,77,78
 375 64 375 64 373 63 c 2,79,-1
 371 63 l 1,80,-1
 366 67 l 1,81,82
 366 66 366 66 358 73 c 2,83,-1
 351 81 l 1,84,-1
 309 123 l 1,85,-1
 307 127 l 2,86,87
 305 129 305 129 304 131 c 0,19,20
EndSplineSet
EndChar

StartChar: git_merge
Encoding: 57382 57382 38
Width: 516
GlyphClass: 1
Flags: W
LayerCount: 2
Fore
SplineSet
332 268 m 0,0,1
 321 268 321 268 312 262.5 c 128,-1,2
 303 257 303 257 298 248 c 1,3,-1
 298 249 l 1,4,5
 282 249 282 249 265.5 254 c 128,-1,6
 249 259 249 259 236 268 c 0,7,8
 226 277 226 277 215.5 290.5 c 128,-1,9
 205 304 205 304 199 316 c 1,10,11
 214 328 214 328 214 347 c 0,12,13
 214 363 214 363 202.5 374.5 c 128,-1,14
 191 386 191 386 174.5 386 c 128,-1,15
 158 386 158 386 147 374.5 c 128,-1,16
 136 363 136 363 136 346 c 0,17,18
 136 336 136 336 141 327 c 128,-1,19
 146 318 146 318 155 313 c 1,20,-1
 155 184 l 1,21,22
 146 179 146 179 141 170 c 128,-1,23
 136 161 136 161 136 150 c 0,24,25
 136 134 136 134 147 122.5 c 128,-1,26
 158 111 158 111 174.5 111 c 128,-1,27
 191 111 191 111 202.5 122.5 c 128,-1,28
 214 134 214 134 214 150 c 0,29,30
 214 161 214 161 208.5 170 c 128,-1,31
 203 179 203 179 195 184 c 1,32,-1
 195 255 l 1,33,34
 214 234 214 234 239 222 c 128,-1,35
 264 210 264 210 298 209 c 1,36,-1
 298 210 l 1,37,38
 303 200 303 200 312 195 c 128,-1,39
 321 190 321 190 332 190 c 0,40,41
 348 190 348 190 359.5 201.5 c 128,-1,42
 371 213 371 213 371 229 c 128,-1,43
 371 245 371 245 359.5 256.5 c 128,-1,44
 348 268 348 268 332 268 c 0,0,1
198 150 m 0,45,46
 198 141 198 141 191 134 c 128,-1,47
 184 127 184 127 174.5 127 c 128,-1,48
 165 127 165 127 158 134 c 128,-1,49
 151 141 151 141 151 150.5 c 128,-1,50
 151 160 151 160 158 167 c 128,-1,51
 165 174 165 174 174.5 174 c 128,-1,52
 184 174 184 174 191 167 c 128,-1,53
 198 160 198 160 198 150 c 0,45,46
175 323 m 0,54,55
 165 323 165 323 158 330 c 128,-1,56
 151 337 151 337 151 346.5 c 128,-1,57
 151 356 151 356 158 363 c 128,-1,58
 165 370 165 370 174.5 370 c 128,-1,59
 184 370 184 370 191 363 c 128,-1,60
 198 356 198 356 198 346.5 c 128,-1,61
 198 337 198 337 191 330 c 128,-1,62
 184 323 184 323 175 323 c 0,54,55
332 205 m 0,63,64
 322 205 322 205 315 212 c 128,-1,65
 308 219 308 219 308 229 c 128,-1,66
 308 239 308 239 315 245.5 c 128,-1,67
 322 252 322 252 331.5 252 c 128,-1,68
 341 252 341 252 348 245.5 c 128,-1,69
 355 239 355 239 355 229 c 128,-1,70
 355 219 355 219 348 212 c 128,-1,71
 341 205 341 205 332 205 c 0,63,64
EndSplineSet
EndChar

StartChar: git_pull
Encoding: 57383 57383 39
Width: 516
GlyphClass: 1
Flags: W
LayerCount: 2
Fore
SplineSet
341 178 m 1,0,-1
 341 297 l 2,1,2
 341 319 341 319 323.5 336 c 128,-1,3
 306 353 306 353 285 354 c 2,4,-1
 266 354 l 1,5,-1
 266 392 l 1,6,-1
 209 335 l 1,7,-1
 266 278 l 1,8,-1
 266 316 l 1,9,-1
 285 316 l 2,10,11
 292 316 292 316 297.5 310.5 c 128,-1,12
 303 305 303 305 304 297 c 2,13,-1
 304 178 l 1,14,15
 295 173 295 173 290 164.5 c 128,-1,16
 285 156 285 156 285 145 c 0,17,18
 285 129 285 129 296 118 c 128,-1,19
 307 107 307 107 322.5 107 c 128,-1,20
 338 107 338 107 349 118 c 128,-1,21
 360 129 360 129 360 145 c 0,22,23
 360 155 360 155 355 164 c 128,-1,24
 350 173 350 173 341 178 c 1,0,-1
323 122 m 0,25,26
 313 122 313 122 306.5 129 c 128,-1,27
 300 136 300 136 300 145 c 128,-1,28
 300 154 300 154 306.5 161 c 128,-1,29
 313 168 313 168 322.5 168 c 128,-1,30
 332 168 332 168 338.5 161 c 128,-1,31
 345 154 345 154 345 145 c 128,-1,32
 345 136 345 136 338.5 129 c 128,-1,33
 332 122 332 122 323 122 c 0,25,26
209 335 m 0,34,35
 209 351 209 351 198 362 c 128,-1,36
 187 373 187 373 171 373 c 128,-1,37
 155 373 155 373 144 362 c 128,-1,38
 133 351 133 351 133 335 c 0,39,40
 133 325 133 325 138 316 c 128,-1,41
 143 307 143 307 152 302 c 1,42,-1
 152 178 l 1,43,44
 143 173 143 173 138 164.5 c 128,-1,45
 133 156 133 156 133 145 c 0,46,47
 133 129 133 129 144 118 c 128,-1,48
 155 107 155 107 171 107 c 128,-1,49
 187 107 187 107 198 118 c 128,-1,50
 209 129 209 129 209 145 c 0,51,52
 209 155 209 155 203.5 164 c 128,-1,53
 198 173 198 173 190 178 c 1,54,-1
 190 302 l 1,55,56
 198 307 198 307 203.5 316 c 128,-1,57
 209 325 209 325 209 335 c 0,34,35
194 145 m 256,58,59
 194 136 194 136 187 129 c 128,-1,60
 180 122 180 122 170.5 122 c 128,-1,61
 161 122 161 122 154.5 129 c 128,-1,62
 148 136 148 136 148 145 c 128,-1,63
 148 154 148 154 154.5 161 c 128,-1,64
 161 168 161 168 170.5 168 c 128,-1,65
 180 168 180 168 187 161 c 128,-1,66
 194 154 194 154 194 145 c 256,58,59
171 312 m 0,67,68
 161 312 161 312 154.5 319 c 128,-1,69
 148 326 148 326 148 335 c 128,-1,70
 148 344 148 344 154.5 351 c 128,-1,71
 161 358 161 358 170.5 358 c 128,-1,72
 180 358 180 358 187 351 c 128,-1,73
 194 344 194 344 194 335 c 128,-1,74
 194 326 194 326 187 319 c 128,-1,75
 180 312 180 312 171 312 c 0,67,68
EndSplineSet
EndChar

StartChar: github
Encoding: 57384 57384 40
Width: 516
GlyphClass: 1
Flags: W
LayerCount: 2
Fore
SplineSet
282 185 m 1,0,1
 290 187 290 187 299 188 c 0,2,3
 326 196 326 196 336 216 c 0,4,5
 344 231.333333333 344 231.333333333 344 248.888888889 c 0,6,7
 344 257.666666667 344 257.666666667 342 267 c 0,8,9
 340 276 340 276 331 288 c 0,10,11
 329 289 329 289 329 292 c 0,12,13
 330.777777778 299.555555556 330.777777778 299.555555556 330.777777778 306.716049383 c 0,14,15
 330.777777778 315.666666667 330.777777778 315.666666667 328 324 c 0,16,17
 328 327 328 327 324 327 c 0,18,19
 317 327 317 327 306 321 c 0,20,21
 300 318 300 318 292 313 c 0,22,23
 290 312 290 312 288 312 c 0,24,25
 271.5 316 271.5 316 255 316 c 0,26,27
 255 316 255 316 222 312 c 0,28,29
 220 312 220 312 218 313 c 2,30,-1
 204 321 l 2,31,32
 197 324 197 324 189 325 c 0,33,34
 184 326 184 326 183 325.5 c 128,-1,35
 182 325 182 325 181 320 c 0,36,37
 179 313 179 313 179 305.75 c 128,-1,38
 179 298.5 179 298.5 181 291 c 1,39,-1
 181 288 l 1,40,41
 166.913043478 273.130434783 166.913043478 273.130434783 166.913043478 251.52362949 c 0,42,43
 166.913043478 245.52173913 166.913043478 245.52173913 168 239 c 2,44,-1
 171 224 l 1,45,46
 181 196 181 196 213 188 c 2,47,-1
 231 184 l 1,48,49
 225 178 225 178 222 167 c 0,50,51
 222 166 222 166 221 166 c 1,52,-1
 221 166 l 1,53,54
 213 162.666666667 213 162.666666667 205.888888889 162.666666667 c 0,55,56
 202.333333333 162.666666667 202.333333333 162.666666667 199 163.5 c 0,57,58
 189 166 189 166 182 178 c 128,-1,59
 175 190 175 190 163 191 c 2,60,-1
 156 191 l 2,61,62
 154 191 154 191 154 190 c 2,63,-1
 154 187 l 1,64,-1
 157 184 l 2,65,66
 168 178 168 178 172 165 c 0,67,68
 180 147 180 147 202 145 c 0,69,70
 214 145 214 145 221 147 c 1,71,-1
 221 120 l 2,72,73
 221 117 221 117 218 115.5 c 128,-1,74
 215 114 215 114 211 115 c 0,75,76
 195 121 195 121 178 131 c 0,77,78
 116.768115942 174.333333333 116.768115942 174.333333333 116.768115942 243.401806343 c 0,79,80
 116.768115942 247.652173913 116.768115942 247.652173913 117 252 c 0,81,82
 119 299 119 299 150.5 334.5 c 128,-1,83
 182 370 182 370 229 379 c 0,84,85
 242.611111111 381.722222222 242.611111111 381.722222222 255.99537037 381.722222222 c 0,86,87
 277.027777778 381.722222222 277.027777778 381.722222222 297.5 375 c 0,88,89
 331 364 331 364 355.5 338.5 c 128,-1,90
 380 313 380 313 389.5 279 c 0,91,92
 394.378378378 261.540540541 394.378378378 261.540540541 394.378378378 244.081081081 c 0,93,94
 394.378378378 227.540540541 394.378378378 227.540540541 390 211 c 0,95,96
 381 177 381 177 357.5 151 c 128,-1,97
 334 125 334 125 301 115 c 0,98,99
 298.25 114 298.25 114 296.1875 114 c 0,100,101
 290 114 290 114 290 123 c 2,102,-1
 290 156 l 2,103,104
 290.642857143 160.071428571 290.642857143 160.071428571 290.642857143 163.729591837 c 0,105,106
 290.642857143 177.142857143 290.642857143 177.142857143 282 185 c 1,0,1
EndSplineSet
EndChar

StartChar: go
Encoding: 57385 57385 41
Width: 516
GlyphClass: 1
Flags: W
LayerCount: 2
Fore
SplineSet
177 128 m 2,0,1
 182 129 182 129 187.5 126 c 128,-1,2
 193 123 193 123 195 123 c 1,3,4
 194 118 194 118 185.5 116 c 128,-1,5
 177 114 177 114 174.5 117.5 c 128,-1,6
 172 121 172 121 174 124 c 2,7,-1
 177 128 l 2,0,1
289 121 m 1,8,9
 287 120 287 120 297 126 c 0,10,11
 302 130 302 130 307 130 c 2,12,-1
 311 125 l 2,13,14
 313 122 313 122 312 119 c 128,-1,15
 311 116 311 116 302 116 c 0,16,17
 297 116 297 116 293.5 117 c 128,-1,18
 290 118 290 118 289 121 c 1,8,9
150 226 m 1,19,20
 156 223 156 223 157 217 c 2,21,-1
 157 208 l 2,22,23
 157 202 157 202 149 202 c 1,24,25
 143 208 143 208 143.5 213.5 c 128,-1,26
 144 219 144 219 150 226 c 1,19,20
335 202 m 1,27,28
 328 202 328 202 328 208 c 2,29,-1
 328 217 l 2,30,31
 329 223 329 223 335 226 c 1,32,33
 341 219 341 219 341 213.5 c 128,-1,34
 341 208 341 208 335 202 c 1,27,28
347 355 m 0,35,36
 343.181818182 359.454545455 343.181818182 359.454545455 337.338842975 359.454545455 c 0,37,38
 334 359.454545455 334 359.454545455 330 358 c 0,39,40
 328 357.5 328 357.5 325.9375 357.5 c 0,41,42
 319.75 357.5 319.75 357.5 313 362 c 0,43,44
 284 387 284 387 244 388 c 0,45,46
 242.4 388.04 242.4 388.04 240.816 388.04 c 0,47,48
 202.8 388.04 202.8 388.04 174 365 c 0,49,50
 165 357.636363636 165 357.636363636 154.661157025 357.636363636 c 0,51,52
 152.363636364 357.636363636 152.363636364 357.636363636 150 358 c 0,53,54
 143 361 143 361 138 355.5 c 128,-1,55
 133 350 133 350 134.5 344.5 c 128,-1,56
 136 339 136 339 140 337 c 2,57,-1
 146 333 l 2,58,59
 152 329 152 329 152 324 c 0,60,61
 151.666666667 320.666666667 151.666666667 320.666666667 151.666666667 313.777777778 c 0,62,63
 151.666666667 300 151.666666667 300 153 272 c 0,64,65
 153.2 265.8 153.2 265.8 153.2 260.04 c 0,66,67
 153.2 237 153.2 237 150 221 c 1,68,-1
 154 211 l 2,69,70
 154 205 154 205 149 201 c 1,71,-1
 150 179 l 2,72,73
 155 149 155 149 172 134 c 0,74,75
 177 130 177 130 177 126 c 2,76,-1
 186 122 l 2,77,78
 192 119 192 119 195 121 c 0,79,80
 220.5 115.5 220.5 115.5 243.75 115.5 c 128,-1,81
 267 115.5 267 115.5 288 121 c 0,82,83
 295 121 295 121 306 130 c 0,84,85
 321 142 321 142 328 163 c 0,86,87
 333 179 333 179 335 202 c 1,88,89
 330 207 330 207 330 211 c 128,-1,90
 330 215 330 215 333 222 c 0,91,92
 333 231 333 231 331.5 246.5 c 128,-1,93
 330 262 330 262 330 271 c 0,94,95
 332.545454545 294.757575758 332.545454545 294.757575758 332.211202938 294.757575758 c 0,96,97
 332.151515152 294.757575758 332.151515152 294.757575758 332 294 c 1,98,99
 332.4 299.2 332.4 299.2 332.4 304 c 2,100,101
 332.4 304 332.4 304 331.304347826 320.213610586 c 0,102,103
 331.304347826 329.173913043 331.304347826 329.173913043 340 337 c 0,104,105
 347 339 347 339 349 344 c 128,-1,106
 351 349 351 349 347 355 c 0,35,36
200 279 m 0,107,108
 198.9 278.9 198.9 278.9 197.825 278.9 c 0,109,110
 188.15 278.9 188.15 278.9 180.5 287 c 0,111,112
 172 296 172 296 172 309 c 128,-1,113
 172 322 172 322 181 332 c 128,-1,114
 190 342 190 342 203.5 342 c 128,-1,115
 217 342 217 342 224 334.5 c 0,116,117
 231.333333333 326.642857143 231.333333333 326.642857143 231.333333333 308.166666667 c 0,118,119
 231.333333333 296.5 231.333333333 296.5 223 289 c 0,120,121
 213 280 213 280 200 279 c 0,107,108
284 279 m 0,122,123
 272 280 272 280 263 288 c 0,124,125
 252.916666667 296.25 252.916666667 296.25 252.916666667 310.381944444 c 0,126,127
 252.916666667 326.916666667 252.916666667 326.916666667 260.5 334.5 c 128,-1,128
 268 342 268 342 280.5 342 c 128,-1,129
 293 342 293 342 303 332 c 128,-1,130
 313 322 313 322 313 308 c 0,131,132
 313 297 313 297 304 288 c 128,-1,133
 295 279 295 279 284 279 c 0,122,123
253 277 m 0,134,135
 256 277 256 277 257 276 c 1,136,137
 257 277 257 277 260 274 c 128,-1,138
 263 271 263 271 264 269 c 128,-1,139
 265 267 265 267 264 264 c 128,-1,140
 263 261 263 261 260 259.5 c 128,-1,141
 257 258 257 258 252.5 257 c 128,-1,142
 248 256 248 256 242 256 c 0,143,144
 232 257 232 257 233 257 c 1,145,146
 228 258 228 258 225 260 c 128,-1,147
 222 262 222 262 222 269 c 128,-1,148
 222 276 222 276 233 277 c 1,149,150
 236 271 236 271 242.5 271 c 128,-1,151
 249 271 249 271 253 277 c 0,134,135
253 277 m 0,152,153
 255 268 255 268 244 268 c 0,154,155
 237 268 237 268 233.5 269.5 c 128,-1,156
 230 271 230 271 231 277 c 0,157,158
 237 282 237 282 242.5 282 c 128,-1,159
 248 282 248 282 253 277 c 0,152,153
EndSplineSet
EndChar

StartChar: gradle
Encoding: 57386 57386 42
Width: 516
GlyphClass: 1
Flags: W
LayerCount: 2
Fore
SplineSet
228 337 m 1,0,-1
 306 337 l 1,1,-1
 346 270 l 1,2,-1
 390 270 l 1,3,4
 385 303 385 303 366 329.5 c 128,-1,5
 347 356 347 356 317.5 371.5 c 128,-1,6
 288 387 288 387 254 387 c 0,7,8
 226 387 226 387 205 377 c 1,9,-1
 228 337 l 1,0,-1
347 229 m 1,10,-1
 306 157 l 1,11,-1
 202 157 l 1,12,-1
 149 248 l 1,13,-1
 191 319 l 1,14,-1
 169 356 l 1,15,16
 143 338 143 338 129 309.5 c 128,-1,17
 115 281 115 281 115 248 c 0,18,19
 115 210 115 210 134 178 c 128,-1,20
 153 146 153 146 185 127.5 c 128,-1,21
 217 109 217 109 253 109 c 128,-1,22
 289 109 289 109 318 124.5 c 128,-1,23
 347 140 347 140 366.5 167 c 128,-1,24
 386 194 386 194 390 227 c 1,25,-1
 347 229 l 1,10,-1
302 248 m 256,26,27
 302 227 302 227 288 212.5 c 128,-1,28
 274 198 274 198 253 198 c 128,-1,29
 232 198 232 198 217.5 212.5 c 128,-1,30
 203 227 203 227 203 248 c 128,-1,31
 203 269 203 269 217.5 283.5 c 128,-1,32
 232 298 232 298 253 298 c 128,-1,33
 274 298 274 298 288 283.5 c 128,-1,34
 302 269 302 269 302 248 c 256,26,27
EndSplineSet
EndChar

StartChar: grails
Encoding: 57387 57387 43
Width: 516
GlyphClass: 1
Flags: W
LayerCount: 2
Fore
SplineSet
244 165 m 0,0,1
 242 165 242 165 240.5 165.5 c 128,-1,2
 239 166 239 166 235 166 c 2,3,-1
 223 170 l 2,4,5
 217 174 217 174 220 178 c 128,-1,6
 223 182 223 182 225 190 c 0,7,8
 231 202 231 202 233 211 c 0,9,10
 234.8 218.2 234.8 218.2 234.8 224.68 c 0,11,12
 234.8 229 234.8 229 234 233 c 0,13,14
 232 254 232 254 214 261 c 128,-1,15
 196 268 196 268 186 278 c 0,16,17
 172 292 172 292 165 304 c 0,18,19
 157 319 157 319 158 337 c 1,20,-1
 343 337 l 1,21,22
 343 317 343 317 335 303 c 0,23,24
 319 275 319 275 287 261 c 0,25,26
 265.8 250.4 265.8 250.4 265.8 226.12 c 0,27,28
 265.8 216.2 265.8 216.2 269 205 c 0,29,30
 272 197 272 197 280 182 c 0,31,32
 282 177 282 177 281 175 c 128,-1,33
 280 173 280 173 274 170 c 2,34,-1
 268 167 l 1,35,-1
 256 165 l 1,36,-1
 250 165 l 2,37,38
 249 167 249 167 244 165 c 0,0,1
401 276 m 2,39,40
 399 275 399 275 399 272 c 2,41,-1
 397 268 l 2,42,43
 387 246 387 246 368 240 c 0,44,45
 354 237 354 237 354 221 c 0,46,47
 354 215 354 215 356 207 c 0,48,49
 357 202 357 202 361 194 c 0,50,51
 364 188 364 188 362.5 185.5 c 128,-1,52
 361 183 361 183 354 182 c 0,53,54
 350.75 181.75 350.75 181.75 347.5625 181.75 c 0,55,56
 338 181.75 338 181.75 329 184 c 0,57,58
 323 185 323 185 327 191 c 0,59,60
 335.1 205.4 335.1 205.4 335.1 217.37 c 0,61,62
 335.1 226.325 335.1 226.325 331 233.5 c 0,63,64
 329 237 329 237 322 237 c 0,65,66
 318 237 318 237 315 241 c 1,67,-1
 319 243 l 2,68,69
 346 253 346 253 362 282 c 0,70,71
 364 284 364 284 368 284 c 2,72,-1
 401 284 l 1,73,-1
 401 276 l 2,39,40
100 286 m 1,74,-1
 131 286 l 2,75,76
 135 286 135 286 136 282 c 0,77,78
 152 257 152 257 184 243 c 1,79,-1
 180 240 l 2,80,81
 172 237 172 237 169 232 c 128,-1,82
 166 227 166 227 166 218 c 128,-1,83
 166 209 166 209 172 196 c 2,84,-1
 176 190 l 2,85,86
 179 184 179 184 175 184 c 0,87,88
 166.5 180.5 166.5 180.5 158 180.5 c 0,89,90
 158 180.5 158 180.5 141 184 c 0,91,92
 137 184 137 184 139 191 c 0,93,94
 144 201 144 201 145 206 c 0,95,96
 147.571428571 213.714285714 147.571428571 213.714285714 147.571428571 220.326530612 c 0,97,98
 147.571428571 229.428571429 147.571428571 229.428571429 144 233 c 0,99,100
 141 236 141 236 135 237 c 0,101,102
 113 244 113 244 102 270 c 1,103,-1
 102 273 l 2,104,105
 101 274 101 274 100 274 c 1,106,-1
 100 286 l 1,74,-1
EndSplineSet
EndChar

StartChar: grunt
Encoding: 57388 57388 44
Width: 516
GlyphClass: 1
Flags: W
LayerCount: 2
Fore
SplineSet
341 246 m 1,0,1
 356 254 356 254 359 255 c 0,2,3
 368 262 368 262 368 271 c 128,-1,4
 368 280 368 280 359 284 c 0,5,6
 356 286 356 286 354 293 c 0,7,8
 353.529411765 295.823529412 353.529411765 295.823529412 353.529411765 298.53633218 c 0,9,10
 353.529411765 307.352941176 353.529411765 307.352941176 358.5 315 c 0,11,12
 362.340909091 320.909090909 362.340909091 320.909090909 362.340909091 325.945247934 c 0,13,14
 362.340909091 329.431818182 362.340909091 329.431818182 360.5 332.5 c 0,15,16
 356 340 356 340 342 341 c 2,17,-1
 341 341 l 1,18,-1
 340 342 l 2,19,20
 338 349 338 349 339 353 c 128,-1,21
 340 357 340 357 345 360 c 0,22,23
 348 362 348 362 356 364 c 0,24,25
 359 365 359 365 363 365 c 1,26,27
 363 366 363 366 362 367 c 1,28,-1
 362 367 l 1,29,30
 349.647058824 380.235294118 349.647058824 380.235294118 331.065743945 380.235294118 c 0,31,32
 328.588235294 380.235294118 328.588235294 380.235294118 326 380 c 0,33,34
 314 378 314 378 306 373 c 128,-1,35
 298 368 298 368 291 358 c 0,36,37
 288 355 288 355 284 358 c 0,38,39
 280 358 280 358 280 362 c 2,40,-1
 282 369 l 1,41,-1
 286 378 l 1,42,43
 280 378 280 378 275 375 c 2,44,-1
 266 369 l 1,45,46
 262.4 375 262.4 375 262.4 381 c 0,47,48
 262.4 385 262.4 385 264 389 c 1,49,50
 254 386 254 386 248.5 380.5 c 128,-1,51
 243 375 243 375 240 367 c 1,52,53
 238 369 238 369 238 374 c 1,54,55
 238 371 238 371 238 382 c 1,56,-1
 234 381 l 1,57,58
 223 373 223 373 222 362 c 1,59,-1
 220 358 l 1,60,-1
 216 360 l 1,61,-1
 199 374 l 1,62,63
 187.04 380.76 187.04 380.76 174.8096 380.76 c 0,64,65
 163.52 380.76 163.52 380.76 152 375 c 1,66,-1
 141 364 l 1,67,-1
 157 358 l 2,68,69
 165 357 165 357 166.5 352 c 128,-1,70
 168 347 168 347 165 340 c 1,71,-1
 157 338 l 2,72,73
 150 336 150 336 146.5 331.5 c 128,-1,74
 143 327 143 327 144 320 c 2,75,-1
 152 304 l 1,76,-1
 152 290 l 2,77,78
 152 287 152 287 146 282 c 2,79,-1
 142 278 l 2,80,81
 138 275 138 275 137 272 c 0,82,83
 135 267 135 267 137 261.5 c 128,-1,84
 139 256 139 256 145.5 251 c 128,-1,85
 152 246 152 246 162.5 241.5 c 128,-1,86
 173 237 173 237 173 226 c 0,87,88
 173 210 173 210 172 202 c 2,89,-1
 171 191 l 1,90,91
 157 202 157 202 155 215 c 1,92,93
 143 204 143 204 143 192 c 0,94,95
 142.529411765 188.705882353 142.529411765 188.705882353 142.529411765 185.522491349 c 0,96,97
 142.529411765 175.176470588 142.529411765 175.176470588 147.5 166 c 0,98,99
 154 154 154 154 170 148 c 0,100,101
 171 148 171 148 173 146 c 0,102,103
 186 125 186 125 211 121 c 0,104,105
 213 121 213 121 213 119 c 0,106,107
 228.2 109.4 228.2 109.4 249.16 109.4 c 0,108,109
 254.4 109.4 254.4 109.4 260 110 c 0,110,111
 278 112 278 112 285 118 c 2,112,-1
 291 121 l 1,113,114
 313 124 313 124 326 144 c 1,115,-1
 330 148 l 1,116,117
 344 153 344 153 349 162 c 0,118,119
 356.692307692 172 356.692307692 172 356.692307692 185.550295858 c 0,120,121
 356.692307692 189.615384615 356.692307692 189.615384615 356 194 c 0,122,123
 354 204 354 204 344 215 c 1,124,125
 340 200 340 200 329 191 c 1,126,127
 327 204 327 204 327 227 c 1,128,129
 331 242 331 242 341 246 c 1,130,-1
 341 246 l 1,0,1
226 173 m 1,131,-1
 251 173 l 1,132,-1
 287 173 l 1,133,-1
 226 173 l 1,131,-1
EndSplineSet
EndChar

StartChar: gulp
Encoding: 57389 57389 45
Width: 516
GlyphClass: 1
Flags: W
LayerCount: 2
Fore
SplineSet
313 404 m 1,0,-1
 307 399 l 1,1,-1
 291 383 l 1,2,-1
 271 364 l 1,3,-1
 264 336 l 1,4,-1
 240 335 l 2,5,6
 208 335 208 335 189 332.5 c 128,-1,7
 170 330 170 330 167 327 c 2,8,-1
 166 326 l 1,9,-1
 167 324 l 2,10,11
 172 322 172 322 188.5 319 c 128,-1,12
 205 316 205 316 226.5 315.5 c 0,13,14
 237.25 315.25 237.25 315.25 248.125 315.25 c 128,-1,15
 259 315.25 259 315.25 270 315.5 c 0,16,17
 292 316 292 316 308 320 c 0,18,19
 319 323 319 323 321.5 325 c 128,-1,20
 324 327 324 327 319 328.5 c 128,-1,21
 314 330 314 330 301.5 332 c 128,-1,22
 289 334 289 334 281 334 c 0,23,24
 279 334 279 334 279 335 c 1,25,-1
 278 335 l 1,26,-1
 284 359 l 1,27,-1
 305 378 l 2,28,29
 312 384 312 384 317.5 390 c 128,-1,30
 323 396 323 396 323 398 c 128,-1,31
 323 400 323 400 319.5 402.5 c 128,-1,32
 316 405 316 405 313 404 c 1,33,-1
 313 404 l 1,0,-1
167 319 m 2,34,35
 167 318 167 318 169 307 c 2,36,-1
 176 245 l 1,37,-1
 177 247 l 2,38,39
 182 259 182 259 190.5 268 c 128,-1,40
 199 277 199 277 206 278 c 0,41,42
 210 279 210 279 213 278 c 128,-1,43
 216 277 216 277 219 274 c 128,-1,44
 222 271 222 271 223.5 268.5 c 128,-1,45
 225 266 225 266 221 264 c 0,46,47
 220 263 220 263 218 264.5 c 128,-1,48
 216 266 216 266 215 268 c 0,49,50
 211 273 211 273 205 270.5 c 128,-1,51
 199 268 199 268 193 258 c 0,52,53
 184 246 184 246 182.5 236 c 128,-1,54
 181 226 181 226 188 226 c 0,55,56
 191 226 191 226 194.5 229.5 c 128,-1,57
 198 233 198 233 202 236 c 2,58,-1
 208 246 l 1,59,-1
 210 252 l 2,60,61
 210 253 210 253 211 253 c 2,62,-1
 214 255 l 1,63,64
 215 253 215 253 215.5 253 c 128,-1,65
 216 253 216 253 216 251 c 2,66,-1
 214 242 l 2,67,68
 213 238 213 238 211 233 c 2,69,-1
 205 218 l 2,70,71
 205 216 205 216 204 214 c 128,-1,72
 203 212 203 212 202.5 211 c 128,-1,73
 202 210 202 210 200.5 210 c 128,-1,74
 199 210 199 210 198.5 211 c 128,-1,75
 198 212 198 212 199 214 c 2,76,-1
 200 221 l 2,77,78
 200 223 200 223 202 226 c 2,79,-1
 203 228 l 2,80,81
 203 229 203 229 202 228 c 2,82,-1
 198 226 l 2,83,84
 193 222 193 222 188 220 c 128,-1,85
 183 218 183 218 179 219 c 1,86,-1
 179 219 l 1,87,-1
 178 218 l 1,88,-1
 181 193 l 2,89,90
 183 171 183 171 184 171 c 0,91,92
 187 169 187 169 196 166.5 c 128,-1,93
 205 164 205 164 215.5 162.5 c 128,-1,94
 226 161 226 161 245 161 c 128,-1,95
 264 161 264 161 271.5 162 c 128,-1,96
 279 163 279 163 286 165 c 2,97,-1
 296 168 l 2,98,99
 303 170 303 170 304 172.5 c 128,-1,100
 305 175 305 175 308 200 c 0,101,102
 310 211 310 211 311 220 c 2,103,-1
 312 228 l 1,104,-1
 310 228 l 1,105,-1
 307 225 l 1,106,-1
 300 221 l 2,107,108
 296 219 296 219 293 219 c 128,-1,109
 290 219 290 219 288.5 220 c 128,-1,110
 287 221 287 221 286.5 222.5 c 128,-1,111
 286 224 286 224 288 226 c 2,112,-1
 292 233 l 1,113,-1
 297 239 l 2,114,115
 298 240 298 240 298 242 c 128,-1,116
 298 244 298 244 295 242 c 2,117,-1
 287 237 l 2,118,119
 287 236 287 236 285.5 234.5 c 128,-1,120
 284 233 284 233 284 231 c 0,121,122
 281 229 281 229 278 222 c 128,-1,123
 275 215 275 215 273 207 c 0,124,125
 270 204 270 204 269 202 c 128,-1,126
 268 200 268 200 265 200 c 2,127,-1
 264 201 l 1,128,-1
 262 202 l 2,129,130
 261 204 261 204 264 207.5 c 128,-1,131
 267 211 267 211 269 217 c 0,132,133
 270 221 270 221 272 224 c 2,134,-1
 273 226 l 1,135,-1
 270 224 l 2,136,137
 268 222 268 222 264 221 c 2,138,-1
 259 219 l 2,139,140
 257 219 257 219 255 220.5 c 128,-1,141
 253 222 253 222 253 223 c 1,142,-1
 249 222 l 2,143,144
 245 219 245 219 242.5 220 c 128,-1,145
 240 221 240 221 240 225 c 2,146,-1
 240 227 l 1,147,-1
 237 225 l 2,148,149
 232 222 232 222 227 220.5 c 128,-1,150
 222 219 222 219 220 220.5 c 128,-1,151
 218 222 218 222 218 225 c 128,-1,152
 218 228 218 228 220 234 c 2,153,-1
 228 247 l 2,154,155
 230 251 230 251 231.5 250 c 128,-1,156
 233 249 233 249 233 247 c 128,-1,157
 233 245 233 245 231 240 c 0,158,159
 227 233 227 233 226.5 229.5 c 128,-1,160
 226 226 226 226 229.5 227 c 128,-1,161
 233 228 233 228 237 232 c 128,-1,162
 241 236 241 236 243 242 c 0,163,164
 245 245 245 245 245.5 247 c 128,-1,165
 246 249 246 249 247 249.5 c 128,-1,166
 248 250 248 250 249.5 250 c 128,-1,167
 251 250 251 250 251 247 c 0,168,169
 252 246 252 246 251.5 244 c 128,-1,170
 251 242 251 242 248 238 c 2,171,-1
 246 233 l 2,172,173
 245 230 245 230 245 228.5 c 128,-1,174
 245 227 245 227 245.5 226.5 c 128,-1,175
 246 226 246 226 247 226 c 128,-1,176
 248 226 248 226 250.5 227.5 c 128,-1,177
 253 229 253 229 253 230 c 0,178,179
 256 235 256 235 264.5 253 c 128,-1,180
 273 271 273 271 273.5 272 c 128,-1,181
 274 273 274 273 275 273 c 2,182,-1
 276 273 l 2,183,184
 278 273 278 273 278.5 272.5 c 128,-1,185
 279 272 279 272 279 271 c 2,186,-1
 276 263 l 1,187,-1
 266 241 l 2,188,189
 260 229 260 229 260 228 c 2,190,-1
 260 226 l 1,191,192
 262 226 262 226 265.5 227.5 c 128,-1,193
 269 229 269 229 273 233 c 0,194,195
 276 235 276 235 277 237 c 2,196,-1
 279 239 l 2,197,198
 281 245 281 245 282.5 247 c 128,-1,199
 284 249 284 249 286 247 c 0,200,201
 287 247 287 247 287 247 c 1,202,-1
 287 242 l 1,203,-1
 290 245 l 2,204,205
 295 249 295 249 298.5 249.5 c 128,-1,206
 302 250 302 250 304.5 248.5 c 128,-1,207
 307 247 307 247 307 247 c 1,208,-1
 307 244 l 2,209,210
 307 241 307 241 305 238 c 128,-1,211
 303 235 303 235 297 230 c 2,212,-1
 294 226 l 1,213,-1
 296 226 l 1,214,-1
 303 230 l 1,215,-1
 312 236 l 1,216,-1
 313 247 l 1,217,-1
 322 320 l 1,218,-1
 306 317 l 2,219,220
 297 315 297 315 287 314 c 0,221,222
 281 313 281 313 270 313 c 2,223,-1
 205 313 l 1,224,-1
 186 315 l 2,225,226
 177 316 177 316 172 319 c 2,227,-1
 167 320 l 1,228,-1
 167 319 l 2,34,35
188 166 m 1,229,-1
 190 164 l 1,230,-1
 198 150 l 1,231,-1
 202 100 l 1,232,-1
 204 99 l 2,233,234
 208 95 208 95 218 94 c 2,235,-1
 241 92 l 2,236,237
 257 92 257 92 269 93.5 c 128,-1,238
 281 95 281 95 285 99 c 2,239,-1
 287 100 l 1,240,-1
 291 151 l 1,241,-1
 295 158 l 2,242,243
 296 161 296 161 298 163 c 2,244,-1
 300 164 l 2,245,246
 300 166 300 166 298 165 c 128,-1,247
 296 164 296 164 295 164 c 0,248,249
 287 162 287 162 276 161 c 2,250,-1
 252 158 l 2,251,252
 238 158 238 158 220.5 159.5 c 128,-1,253
 203 161 203 161 192 164 c 0,254,255
 191 164 191 164 190 165 c 2,256,-1
 188 166 l 1,229,-1
EndSplineSet
EndChar

StartChar: hacklang
Encoding: 57390 57390 46
Width: 516
GlyphClass: 1
Flags: W
LayerCount: 2
Fore
SplineSet
248 396 m 1,0,-1
 248 394 l 1,1,-1
 248 310 l 2,2,3
 248 308 248 308 247 306 c 2,4,-1
 160 219 l 2,5,6
 160 218 160 218 159 218 c 1,7,-1
 159 305 l 2,8,9
 159 306 159 306 160 306 c 2,10,-1
 248 396 l 1,0,-1
357 271 m 1,11,-1
 357 270 l 1,12,-1
 357 184 l 2,13,14
 357 182 357 182 356 182 c 2,15,-1
 267 95 l 1,16,-1
 266 95 l 1,17,-1
 266 182 l 1,18,-1
 267 182 l 1,19,20
 283 197 283 197 312 226.5 c 128,-1,21
 341 256 341 256 357 271 c 1,22,-1
 356 271 l 1,23,-1
 357 271 l 1,11,-1
353 292 m 1,24,-1
 266 204 l 1,25,-1
 266 290 l 2,26,27
 266 292 266 292 267 292 c 2,28,-1
 353 292 l 1,24,-1
250 288 m 1,29,-1
 250 288 l 1,30,-1
 250 202 l 2,31,32
 250 200 250 200 248 200 c 2,33,-1
 162 200 l 1,34,35
 205 245 205 245 250 288 c 1,29,-1
159 98 m 1,36,-1
 159 98 l 1,37,-1
 159 182 l 2,38,39
 159 184 159 184 160 184 c 2,40,-1
 246 184 l 1,41,42
 246 185 246 185 203 140 c 0,43,44
 177 114 177 114 159 98 c 1,36,-1
EndSplineSet
EndChar

StartChar: haml
Encoding: 57391 57391 47
Width: 516
GlyphClass: 1
Flags: W
LayerCount: 2
Fore
SplineSet
323 275 m 0,0,1
 316 277 316 277 315 286 c 0,2,3
 314 292 314 292 316 300 c 2,4,-1
 318 307 l 1,5,-1
 336 323 l 1,6,-1
 339 323 l 2,7,8
 343 323 343 323 346.5 325 c 128,-1,9
 350 327 350 327 350 331 c 2,10,-1
 350 336 l 1,11,-1
 364 351 l 2,12,13
 364 353 364 353 360.5 356.5 c 128,-1,14
 357 360 357 360 348.5 366.5 c 128,-1,15
 340 373 340 373 334.5 374.5 c 128,-1,16
 329 376 329 376 325 375 c 2,17,-1
 308 362 l 1,18,-1
 306 362 l 2,19,20
 302 361 302 361 300 360 c 128,-1,21
 298 359 298 359 299 356 c 2,22,-1
 300 352 l 1,23,-1
 234 297 l 1,24,-1
 200 375 l 1,25,-1
 202 377 l 2,26,27
 203 380 203 380 202.5 383 c 128,-1,28
 202 386 202 386 199 387 c 2,29,-1
 197 388 l 1,30,31
 192 397 192 397 188 400 c 2,32,-1
 186 402 l 1,33,34
 180 403.5 180 403.5 174.25 403.5 c 128,-1,35
 168.5 403.5 168.5 403.5 163 402 c 0,36,37
 156 400 156 400 151 395 c 2,38,-1
 147 391 l 2,39,40
 146 390 146 390 147 385 c 2,41,-1
 149 380 l 1,42,-1
 147 378 l 2,43,44
 146 375 146 375 147 370 c 128,-1,45
 148 365 148 365 150.5 363.5 c 128,-1,46
 153 362 153 362 155 363 c 2,47,-1
 157 363 l 1,48,-1
 200 266 l 2,49,50
 200 261 200 261 183 196 c 2,51,-1
 166 131 l 1,52,53
 178 119 178 119 195 115 c 0,54,55
 202.2 113.2 202.2 113.2 209.76 113.2 c 0,56,57
 214.8 113.2 214.8 113.2 220 114 c 2,58,-1
 231 116 l 1,59,60
 231 126 231 126 241 177 c 2,61,-1
 250 226 l 1,62,63
 264 213 264 213 281 208 c 0,64,65
 293 203 293 203 302 203 c 1,66,67
 302 199 302 199 303 195 c 2,68,-1
 304 192 l 1,69,-1
 312 190 l 2,70,71
 315.333333333 189.666666667 315.333333333 189.666666667 318.555555556 189.666666667 c 0,72,73
 325 189.666666667 325 189.666666667 331 191 c 0,74,75
 343 194 343 194 350 205 c 0,76,77
 352 207 352 207 352 210 c 2,78,-1
 357 212 l 2,79,80
 362 215 362 215 366 220 c 128,-1,81
 370 225 370 225 370 233 c 0,82,83
 370 247 370 247 352 260 c 0,84,85
 342 267 342 267 323 275 c 0,0,1
355 216 m 1,86,87
 357 223 357 223 355 230 c 2,88,-1
 352 234 l 1,89,-1
 351 231 l 2,90,91
 349 228 349 228 345 225 c 128,-1,92
 341 222 341 222 333 219.5 c 128,-1,93
 325 217 325 217 320 218 c 128,-1,94
 315 219 315 219 312 221 c 2,95,-1
 310 223 l 1,96,-1
 304 212 l 1,97,98
 268 218 268 218 252 242 c 0,99,100
 251 245 251 245 252 252 c 2,101,-1
 254 258 l 1,102,-1
 302 294 l 1,103,104
 301 284 301 284 306 277 c 128,-1,105
 311 270 311 270 318 266 c 2,106,-1
 334 259 l 2,107,108
 345 254 345 254 352 248 c 0,109,110
 362 240 362 240 362 231 c 0,111,112
 363 226 363 226 360.5 222 c 128,-1,113
 358 218 358 218 355 216 c 1,86,87
EndSplineSet
EndChar

StartChar: haskell
Encoding: 57392 57392 48
Width: 516
GlyphClass: 1
Flags: W
LayerCount: 2
Fore
SplineSet
224 352 m 1,0,-1
 276 276 l 1,1,2
 267.796052632 288.164473684 267.796052632 288.164473684 267.755107341 288.164473684 c 128,-1,3
 267.651315789 288.164473684 267.651315789 288.164473684 320 210 c 0,4,5
 345 172 345 172 362 145 c 1,6,-1
 311 145 l 1,7,-1
 268 209 l 1,8,-1
 226 147 l 1,9,-1
 224 145 l 1,10,-1
 173 145 l 1,11,-1
 173 147 l 1,12,-1
 240 248 l 1,13,-1
 240 249 l 1,14,-1
 173 351 l 1,15,-1
 173 352 l 1,16,-1
 224 352 l 1,0,-1
155 144 m 1,17,-1
 104 144 l 1,18,-1
 104 145 l 1,19,20
 101.941176471 142.058823529 101.941176471 142.058823529 101.871972318 142.058823529 c 128,-1,21
 101.705882353 142.058823529 101.705882353 142.058823529 113 159 c 0,22,23
 118 167 118 167 123 173 c 2,24,-1
 171 247 l 1,25,-1
 171 248 l 1,26,27
 137 304 137 304 104 351 c 1,28,-1
 155 351 l 1,29,-1
 157 350 l 1,30,-1
 190 300 l 1,31,32
 186.975 304.4 186.975 304.4 186.975 304.41375 c 128,-1,33
 186.975 304.45 186.975 304.45 208 274 c 0,34,35
 218 259 218 259 224 248 c 1,36,-1
 224 247 l 1,37,-1
 155 144 l 1,38,-1
 157 145 l 1,39,-1
 155 144 l 1,17,-1
398 257 m 1,40,-1
 398 257 l 1,41,-1
 305 257 l 1,42,-1
 283 290 l 1,43,-1
 283 292 l 1,44,-1
 398 292 l 1,45,-1
 398 257 l 1,40,-1
398 204 m 1,46,-1
 398 205 l 1,47,-1
 398 204 l 1,48,-1
 339 204 l 1,49,-1
 317 238 l 1,50,-1
 317 239 l 1,51,-1
 398 239 l 1,52,-1
 398 204 l 1,46,-1
EndSplineSet
EndChar

StartChar: heroku
Encoding: 57393 57393 49
Width: 516
GlyphClass: 1
Flags: W
LayerCount: 2
Fore
SplineSet
322 278 m 1,0,1
 319 298 319 298 300 307 c 0,2,3
 291 311 291 311 281 311 c 0,4,5
 274.625 312.125 274.625 312.125 268.53125 312.125 c 0,6,7
 258.375 312.125 258.375 312.125 249 309 c 0,8,9
 217 304 217 304 202 298 c 1,10,-1
 200 298 l 1,11,-1
 200 391 l 1,12,-1
 156 391 l 1,13,-1
 156 246 l 1,14,-1
 158 246 l 2,15,16
 163 249 163 249 173 253 c 2,17,-1
 189 258 l 2,18,19
 228 270 228 270 244 272 c 0,20,21
 251 274 251 274 266 274 c 0,22,23
 271 274 271 274 276 271.5 c 128,-1,24
 281 269 281 269 281 264 c 2,25,-1
 281 104 l 1,26,-1
 324 104 l 1,27,-1
 324 262 l 2,28,29
 324 274 324 274 322 278 c 1,30,-1
 322 278 l 1,0,1
340 393 m 1,31,-1
 294 393 l 2,32,33
 291 393 291 393 291 391 c 0,34,35
 279 364 279 364 266 347 c 1,36,37
 269 350 269 350 263 341 c 0,38,39
 260 338 260 338 259 335 c 1,40,-1
 305 335 l 2,41,42
 307 335 307 335 307 337 c 2,43,-1
 324 361 l 2,44,45
 333.388888889 377.611111111 333.388888889 377.611111111 333.388888889 378.052469136 c 0,46,47
 333.388888889 378.222222222 333.388888889 378.222222222 332 376 c 1,48,49
 337 384 337 384 340 391 c 2,50,-1
 340 393 l 1,31,-1
156 106 m 1,51,-1
 200 150 l 1,52,-1
 156 195 l 1,53,-1
 156 106 l 1,51,-1
EndSplineSet
EndChar

StartChar: html
Encoding: 57394 57394 50
Width: 516
GlyphClass: 1
Flags: W
LayerCount: 2
Fore
SplineSet
129 275 m 1,0,-1
 226 365 l 1,1,-1
 226 323 l 1,2,-1
 153 258 l 1,3,-1
 226 194 l 1,4,-1
 226 152 l 1,5,-1
 129 242 l 1,6,-1
 129 275 l 1,0,-1
388 241 m 1,7,-1
 291 150 l 1,8,-1
 291 194 l 1,9,-1
 365 258 l 1,10,-1
 291 323 l 1,11,-1
 291 367 l 1,12,-1
 388 276 l 1,13,-1
 388 241 l 1,7,-1
EndSplineSet
EndChar

StartChar: image
Encoding: 57395 57395 51
Width: 516
GlyphClass: 1
Flags: W
LayerCount: 2
Fore
SplineSet
331 233 m 0,0,1
 342 233 342 233 350 241 c 128,-1,2
 358 249 358 249 358 260.5 c 128,-1,3
 358 272 358 272 350 280 c 128,-1,4
 342 288 342 288 330.5 288 c 128,-1,5
 319 288 319 288 311 280 c 128,-1,6
 303 272 303 272 303 260.5 c 128,-1,7
 303 249 303 249 311 241 c 128,-1,8
 319 233 319 233 331 233 c 0,0,1
162 317 m 1,9,-1
 162 128 l 1,10,-1
 395 128 l 1,11,-1
 395 317 l 1,12,-1
 162 317 l 1,9,-1
172 307 m 1,13,-1
 385 307 l 1,14,-1
 385 141 l 1,15,-1
 329 204 l 1,16,-1
 296 164 l 1,17,-1
 229 236 l 1,18,-1
 172 166 l 1,19,-1
 172 307 l 1,13,-1
321 375 m 1,20,-1
 105 375 l 1,21,-1
 105 210 l 1,22,-1
 134 210 l 1,23,-1
 134 349 l 1,24,-1
 321 349 l 1,25,-1
 321 375 l 1,20,-1
EndSplineSet
EndChar

StartChar: info
Encoding: 57396 57396 52
Width: 516
GlyphClass: 1
Flags: W
LayerCount: 2
Fore
SplineSet
392 259 m 0,0,1
 390 292 390 292 369 324 c 0,2,3
 339 370 339 370 286 383 c 0,4,5
 271 387 271 387 258 387 c 2,6,-1
 235 387 l 1,7,8
 194 383 194 383 160 357 c 0,9,10
 120 324 120 324 110 278 c 0,11,12
 107 263 107 263 107 255 c 2,13,-1
 107 232 l 1,14,15
 111 192 111 192 131 165 c 0,16,17
 156 128 156 128 193 113 c 0,18,19
 220 104 220 104 241 102 c 2,20,-1
 264 102 l 1,21,22
 316 106 316 106 352 145 c 0,23,24
 381 174 381 174 390 216 c 2,25,-1
 394 236 l 1,26,-1
 394 252 l 2,27,28
 392 255 392 255 392 259 c 0,0,1
249 125 m 0,29,30
 216 125 216 125 189 141.5 c 128,-1,31
 162 158 162 158 146 185.5 c 128,-1,32
 130 213 130 213 130 246 c 128,-1,33
 130 279 130 279 146.5 307 c 128,-1,34
 163 335 163 335 191 351.5 c 0,35,36
 218.176470588 367.514705882 218.176470588 367.514705882 249.592128028 367.514705882 c 0,37,38
 250.544117647 367.514705882 250.544117647 367.514705882 251.5 367.5 c 0,39,40
 284 367 284 367 312 350.5 c 128,-1,41
 340 334 340 334 356 306.5 c 128,-1,42
 372 279 372 279 372 246 c 128,-1,43
 372 213 372 213 355 185.5 c 128,-1,44
 338 158 338 158 310.5 141.5 c 128,-1,45
 283 125 283 125 249 125 c 0,29,30
283 169 m 2,46,47
 279 169 279 169 277 170 c 128,-1,48
 275 171 275 171 274 173 c 2,49,-1
 272 175 l 1,50,-1
 272 268 l 1,51,-1
 205 264 l 1,52,-1
 205 253 l 1,53,-1
 219 253 l 2,54,55
 228 253 228 253 228 243 c 2,56,-1
 228 178 l 2,57,58
 228 169 228 169 219 169 c 2,59,-1
 207 169 l 1,60,-1
 207 158 l 1,61,-1
 292 158 l 1,62,-1
 292 169 l 1,63,-1
 283 169 l 2,46,47
246 285 m 0,64,65
 257 285 257 285 264 292 c 128,-1,66
 271 299 271 299 271 308.5 c 128,-1,67
 271 318 271 318 263.5 325.5 c 128,-1,68
 256 333 256 333 246 333 c 128,-1,69
 236 333 236 333 229.5 326 c 128,-1,70
 223 319 223 319 223 309.5 c 128,-1,71
 223 300 223 300 230 292.5 c 128,-1,72
 237 285 237 285 246 285 c 0,64,65
EndSplineSet
EndChar

StartChar: ionic
Encoding: 57397 57397 53
Width: 516
GlyphClass: 1
Flags: W
LayerCount: 2
Fore
SplineSet
372 306 m 1,0,1
 381 315 381 315 381 330 c 128,-1,2
 381 345 381 345 370.5 356 c 128,-1,3
 360 367 360 367 345 367 c 0,4,5
 336 367 336 367 325 361 c 1,6,7
 293 385 293 385 248 385 c 0,8,9
 210 385 210 385 178 366 c 128,-1,10
 146 347 146 347 127 315 c 128,-1,11
 108 283 108 283 108 245 c 128,-1,12
 108 207 108 207 127 175 c 128,-1,13
 146 143 146 143 178 124 c 128,-1,14
 210 105 210 105 248 105 c 128,-1,15
 286 105 286 105 318 124 c 128,-1,16
 350 143 350 143 369 175 c 128,-1,17
 388 207 388 207 388 245 c 0,18,19
 388 278 388 278 372 306 c 1,0,1
248 128 m 256,20,21
 215 128 215 128 188.5 143.5 c 128,-1,22
 162 159 162 159 146.5 186 c 128,-1,23
 131 213 131 213 131 245 c 128,-1,24
 131 277 131 277 147 303.5 c 128,-1,25
 163 330 163 330 189.5 346 c 128,-1,26
 216 362 216 362 248 362 c 0,27,28
 284 362 284 362 313 343 c 1,29,30
 309 335 309 335 309 330 c 0,31,32
 309 316 309 316 320 305 c 128,-1,33
 331 294 331 294 346 294 c 0,34,35
 352 294 352 294 354 296 c 1,36,37
 365 271 365 271 365 245 c 0,38,39
 365 212 365 212 349.5 185.5 c 128,-1,40
 334 159 334 159 307.5 143.5 c 128,-1,41
 281 128 281 128 248 128 c 256,20,21
248 303 m 256,42,43
 224 303 224 303 207 286 c 0,44,45
 189.485294118 268.485294118 189.485294118 268.485294118 189.485294118 243.594290657 c 0,46,47
 189.485294118 220.5 189.485294118 220.5 205.5 204 c 0,48,49
 222 187 222 187 246.5 186.5 c 0,50,51
 247.220588235 186.485294118 247.220588235 186.485294118 247.934256055 186.485294118 c 0,52,53
 271.485294118 186.485294118 271.485294118 186.485294118 287.5 202.5 c 0,54,55
 305.055555556 220.055555556 305.055555556 220.055555556 305.055555556 246.200617284 c 0,56,57
 305.055555556 268.972222222 305.055555556 268.972222222 289 285.5 c 0,58,59
 272 303 272 303 248 303 c 256,42,43
EndSplineSet
EndChar

StartChar: jade
Encoding: 57398 57398 54
Width: 516
GlyphClass: 1
Flags: W
LayerCount: 2
Fore
SplineSet
382 198 m 0,0,1
 379.75 213 379.75 213 379.75 230.8125 c 0,2,3
 379.75 236.75 379.75 236.75 380 243 c 0,4,5
 382.285714286 252.142857143 382.285714286 252.142857143 382.285714286 259 c 0,6,7
 382.285714286 264.142857143 382.285714286 264.142857143 381 268 c 0,8,9
 378 277 378 277 376 292 c 0,10,11
 370 329 370 329 363 346 c 0,12,13
 361 350 361 350 358.5 352.5 c 128,-1,14
 356 355 356 355 352 355 c 0,15,16
 343 355 343 355 343 347 c 2,17,-1
 349 310 l 1,18,-1
 354 283 l 1,19,-1
 354 278 l 1,20,21
 350 278 350 278 349 279 c 1,22,23
 354.384615385 275.153846154 354.384615385 275.153846154 354.443786982 275.153846154 c 128,-1,24
 354.538461538 275.153846154 354.538461538 275.153846154 341 285 c 0,25,26
 337 287 337 287 334 291 c 0,27,28
 324 305 324 305 318 319 c 2,29,-1
 303 356 l 1,30,-1
 294 372 l 2,31,32
 289 381 289 381 281 384.5 c 128,-1,33
 273 388 273 388 263 388 c 0,34,35
 257 388 257 388 257 383 c 2,36,-1
 259 377 l 2,37,38
 259 373 259 373 261 371 c 2,39,-1
 296 306 l 2,40,41
 298 301 298 301 309 287 c 0,42,43
 313 282 313 282 312 279 c 128,-1,44
 311 276 311 276 305 273 c 0,45,46
 304 273 304 273 302 271 c 0,47,48
 298.769230769 270.307692308 298.769230769 270.307692308 295.698224852 270.307692308 c 0,49,50
 285.461538462 270.307692308 285.461538462 270.307692308 277 278 c 0,51,52
 266 288 266 288 253 290 c 2,53,-1
 240 291 l 2,54,55
 232.666666667 291.444444444 232.666666667 291.444444444 225.87654321 291.444444444 c 0,56,57
 202.111111111 291.444444444 202.111111111 291.444444444 185 286 c 0,58,59
 151 273 151 273 135 230 c 0,60,61
 132 222 132 222 127 203 c 1,62,-1
 124 208 l 2,63,64
 121 210 121 210 121.5 211.5 c 128,-1,65
 122 213 122 213 120 211 c 2,66,-1
 116 208 l 1,67,-1
 116 201 l 2,68,69
 116 195 116 195 118 190 c 0,70,71
 134 153 134 153 145 121 c 0,72,73
 149 113 149 113 157 113 c 0,74,75
 166.428571429 111.714285714 166.428571429 111.714285714 174.93877551 111.714285714 c 0,76,77
 186.285714286 111.714285714 186.285714286 111.714285714 196 114 c 2,78,-1
 220 119 l 1,79,80
 214 124 214 124 212 125 c 2,81,-1
 213 128 l 1,82,-1
 231 124 l 1,83,84
 260.466666667 112.733333333 260.466666667 112.733333333 288.431111111 112.733333333 c 0,85,86
 292.733333333 112.733333333 292.733333333 112.733333333 297 113 c 0,87,88
 305 113 305 113 306 119 c 2,89,-1
 310 126 l 2,90,91
 314 139 314 139 324 154 c 2,92,-1
 331 164 l 2,93,94
 333 166 333 166 336 165 c 2,95,-1
 346 162 l 2,96,97
 351.052631579 160.315789474 351.052631579 160.315789474 355.750692521 160.315789474 c 0,98,99
 362.210526316 160.315789474 362.210526316 160.315789474 368 163.5 c 0,100,101
 378 169 378 169 380 180 c 0,102,103
 382 186 382 186 382 198 c 0,0,1
367 214 m 0,104,105
 363 210 363 210 362 210 c 0,106,107
 356.5 209.5 356.5 209.5 351.625 209.5 c 0,108,109
 337 209.5 337 209.5 328 214 c 0,110,111
 325 215 325 215 322 217 c 2,112,-1
 317 223 l 1,113,114
 324 226 324 226 328 227 c 0,115,116
 331.2 227.4 331.2 227.4 334.44 227.4 c 0,117,118
 347.4 227.4 347.4 227.4 361 221 c 0,119,120
 362 221 362 221 362 220 c 2,121,-1
 363 219 l 2,122,123
 367 215 367 215 367 214 c 0,104,105
EndSplineSet
EndChar

StartChar: java
Encoding: 57399 57399 55
Width: 516
GlyphClass: 1
Flags: W
LayerCount: 2
Fore
SplineSet
277 397 m 1,0,-1
 277 397 l 1,1,-1
 277 397 l 1,2,3
 282 392 282 392 283 381 c 2,4,-1
 283 376 l 2,5,6
 283 372 283 372 281 362.5 c 128,-1,7
 279 353 279 353 270 342 c 2,8,-1
 260 331 l 1,9,-1
 246 319 l 2,10,11
 237 312 237 312 232 306 c 128,-1,12
 227 300 227 300 226 294 c 0,13,14
 224.857142857 287.714285714 224.857142857 287.714285714 224.857142857 282.571428571 c 0,15,16
 224.857142857 278.714285714 224.857142857 278.714285714 225.5 275.5 c 0,17,18
 227 268 227 268 232 262 c 2,19,-1
 242 247 l 1,20,-1
 247 238 l 1,21,-1
 245 239 l 2,22,23
 239 244 239 244 234 251 c 0,24,25
 222 262 222 262 217 269.5 c 128,-1,26
 212 277 212 277 211 283 c 0,27,28
 210 285 210 285 210 291 c 0,29,30
 210 300 210 300 214.5 306.5 c 128,-1,31
 219 313 219 313 230 321 c 2,32,-1
 260 345 l 1,33,-1
 272 359 l 2,34,35
 277 367 277 367 278 378 c 1,36,37
 278 377 278 377 278.5 380 c 128,-1,38
 279 383 279 383 278 385 c 0,39,40
 278 394 278 394 277 397 c 1,41,-1
 277 397 l 1,0,-1
141 136 m 1,42,-1
 141 136 l 1,43,44
 142 139 142 139 145 140 c 2,45,-1
 156 146 l 2,46,47
 167 150 167 150 176 152 c 2,48,-1
 185 152 l 1,49,-1
 188 150 l 1,50,51
 179 150 179 150 172 147 c 2,52,-1
 162 143 l 2,53,54
 160 141 160 141 162 139 c 2,55,-1
 164 138 l 1,56,-1
 177 135 l 2,57,58
 188 132 188 132 196 132 c 2,59,-1
 212 130 l 1,60,-1
 277 130 l 1,61,-1
 296 132 l 1,62,-1
 314 135 l 2,63,64
 326 137 326 137 332 139 c 2,65,-1
 338 142 l 1,66,-1
 340 144 l 2,67,68
 342 146 342 146 340 149 c 2,69,-1
 340 150 l 1,70,-1
 341 150 l 1,71,-1
 342 149 l 2,72,73
 347 145 347 145 342 143 c 2,74,-1
 338 139 l 2,75,76
 329 135 329 135 323 133 c 128,-1,77
 317 131 317 131 300 128 c 0,78,79
 289 126 289 126 281 126 c 2,80,-1
 252 124 l 1,81,-1
 226 124 l 2,82,83
 215 124 215 124 210 125 c 2,84,-1
 193 126 l 2,85,86
 186 126 186 126 175 128 c 2,87,-1
 156 130 l 2,88,89
 154 130 154 130 147 134 c 0,90,91
 145 134 145 134 143 136 c 2,92,-1
 142 137 l 1,93,-1
 141 135 l 1,94,-1
 141 136 l 1,42,-1
240 107 m 2,95,-1
 236 107 l 1,96,-1
 217 107 l 1,97,-1
 199 109 l 1,98,-1
 184 113 l 1,99,-1
 181 115 l 1,100,-1
 215 111 l 2,101,102
 224 109 224 109 247 109 c 0,103,104
 260 109 260 109 265 111 c 2,105,-1
 281 112 l 2,106,107
 303 115 303 115 314.5 117 c 128,-1,108
 326 119 326 119 338 124 c 2,109,-1
 342 125 l 2,110,111
 344 125 344 125 344 126 c 0,112,113
 352 130 352 130 353 132 c 1,114,-1
 353 130 l 2,115,116
 351 126 351 126 350 125 c 2,117,-1
 341 119 l 2,118,119
 332 115 332 115 325.5 113 c 128,-1,120
 319 111 319 111 305 109 c 2,121,-1
 289 107 l 2,122,123
 281 107 281 107 278 105 c 2,124,-1
 260 104 l 2,125,126
 256 107 256 107 240 107 c 2,95,-1
313 338 m 1,127,128
 313 337 313 337 311 337 c 0,129,130
 306 335 306 335 301 331 c 2,131,-1
 293 325 l 1,132,133
 295 327 295 327 284 320 c 2,134,-1
 277 314 l 2,135,136
 274 312 274 312 269 304 c 0,137,138
 265 300 265 300 264.5 296 c 128,-1,139
 264 292 264 292 266 286 c 0,140,141
 267 283 267 283 272 276 c 2,142,-1
 277 269 l 2,143,144
 281 264 281 264 281 258 c 128,-1,145
 281 252 281 252 279.5 249 c 128,-1,146
 278 246 278 246 274 241 c 2,147,-1
 257 228 l 1,148,-1
 260 230 l 2,149,150
 263 235 263 235 265 240 c 0,151,152
 269 247 269 247 264 255 c 2,153,-1
 260 261 l 2,154,155
 254 268 254 268 252 274.5 c 128,-1,156
 250 281 250 281 250 283 c 0,157,158
 248.8 286.2 248.8 286.2 248.8 289.4 c 0,159,160
 248.8 294.2 248.8 294.2 251.5 299 c 0,161,162
 256 307 256 307 261.5 312 c 128,-1,163
 267 317 267 317 279 324 c 0,164,165
 286 327 286 327 302 335 c 0,166,167
 310 337 310 337 312 338 c 2,168,-1
 313 338 l 1,127,128
293 159 m 1,169,170
 290 158 290 158 288 157 c 0,171,172
 280 152 280 152 262 150 c 2,173,-1
 250 149 l 1,174,-1
 238 149 l 2,175,176
 223 149 223 149 211 152 c 0,177,178
 204 155 204 155 200 158 c 2,179,-1
 196 161 l 2,180,181
 195 164 195 164 196 167 c 2,182,-1
 198 169 l 2,183,184
 203 174 203 174 207 174 c 1,185,-1
 205 170 l 2,186,187
 203 168 203 168 205 167 c 2,188,-1
 210 165 l 2,189,190
 212 164 212 164 217 164 c 2,191,-1
 262 164 l 1,192,-1
 277 167 l 1,193,-1
 285 162 l 2,194,195
 294 159 294 159 293 159 c 1,196,-1
 293 159 l 1,169,170
310 226 m 1,197,198
 302 223 302 223 301.5 222 c 128,-1,199
 301 221 301 221 299 221 c 1,200,-1
 299 221 l 1,201,202
 298 219 298 219 296 219 c 2,203,-1
 281 216 l 1,204,-1
 265 214 l 1,205,-1
 240 212 l 1,206,-1
 191 212 l 2,207,208
 184 212 184 212 175 215 c 2,209,-1
 165 217 l 2,210,211
 164 219 164 219 165.5 221.5 c 128,-1,212
 167 224 167 224 169 224 c 2,213,-1
 181 230 l 2,214,215
 187 233 187 233 201 235 c 0,216,217
 206 236 206 236 215 236 c 1,218,-1
 215 236 l 1,219,220
 210 235 210 235 195 230 c 2,221,-1
 186 225 l 2,222,223
 184 223 184 223 186 221 c 2,224,-1
 188 221 l 2,225,226
 191 219 191 219 196 219 c 2,227,-1
 251 219 l 1,228,-1
 260 221 l 1,229,-1
 283 223 l 1,230,-1
 298 225 l 1,231,-1
 310 226 l 1,197,198
202 204 m 1,232,233
 202 203 202 203 201.5 203 c 128,-1,234
 201 203 201 203 202 204 c 1,235,236
 202 203 202 203 201 202 c 2,237,-1
 200 201 l 2,238,239
 199 198 199 198 200.5 196.5 c 128,-1,240
 202 195 202 195 204.5 194.5 c 128,-1,241
 207 194 207 194 212 194 c 2,242,-1
 226 193 l 1,243,-1
 254 193 l 2,244,245
 262 193 262 193 276 195 c 2,246,-1
 289 197 l 1,247,-1
 299 190 l 1,248,-1
 300 190 l 1,249,-1
 297 189 l 2,250,251
 289 187 289 187 275 185 c 2,252,-1
 260 182 l 2,253,254
 252 181 252 181 236 181 c 0,255,256
 224 181 224 181 219 182 c 2,257,-1
 211 183 l 1,258,-1
 201 185 l 1,259,-1
 193 189 l 2,260,261
 191 189 191 189 190 191.5 c 128,-1,262
 189 194 189 194 192 197 c 2,263,-1
 194 201 l 1,264,-1
 202 204 l 1,265,-1
 202 204 l 1,232,233
310 183 m 1,266,267
 310 184 310 184 311 185 c 2,268,-1
 312 185 l 1,269,270
 323 193 323 193 329 196 c 0,271,272
 336 201 336 201 340 209 c 2,273,-1
 343 217 l 2,274,275
 344 225 344 225 338 234 c 0,276,277
 331 238 331 238 326.5 238 c 128,-1,278
 322 238 322 238 321 237 c 2,279,-1
 317 236 l 1,280,-1
 317 237 l 2,281,282
 319 239 319 239 321 239 c 0,283,284
 329 241 329 241 333 241 c 0,285,286
 340 241 340 241 347.5 235.5 c 128,-1,287
 355 230 355 230 355 223 c 128,-1,288
 355 216 355 216 354 212 c 0,289,290
 350 205 350 205 345 202 c 0,291,292
 338 196 338 196 326 190 c 0,293,294
 318 185 318 185 310 183 c 1,295,-1
 310 183 l 1,266,267
313 338 m 1,296,-1
 313 338 l 1,297,-1
 313 338 l 1,298,-1
 313 338 l 1,299,-1
 313 338 l 1,296,-1
202 204 m 1,300,-1
 202 204 l 1,301,-1
 202 204 l 1,302,-1
 202 204 l 1,303,-1
 202 204 l 1,300,-1
247 238 m 1,304,-1
 247 238 l 1,305,-1
 247 238 l 1,306,-1
 247 238 l 1,304,-1
338 148 m 1,307,-1
 338 148 l 1,308,-1
 338 148 l 1,309,-1
 338 148 l 1,310,-1
 338 148 l 1,307,-1
EndSplineSet
EndChar

StartChar: javascript
Encoding: 57400 57400 56
Width: 516
GlyphClass: 1
Flags: W
LayerCount: 2
Fore
SplineSet
174 348 m 1,0,-1
 218 348 l 1,1,-1
 218 226 l 2,2,3
 218 186 218 186 200.5 168.5 c 128,-1,4
 183 151 183 151 148 151 c 0,5,6
 128 151 128 151 116 156 c 1,7,-1
 121 192 l 1,8,9
 131 187 131 187 144.5 187 c 128,-1,10
 158 187 158 187 166 195.5 c 128,-1,11
 174 204 174 204 174 226 c 2,12,-1
 174 348 l 1,0,-1
256 200 m 1,13,14
 266 194 266 194 279 190.5 c 128,-1,15
 292 187 292 187 305 187 c 0,16,17
 336 187 336 187 336 208 c 0,18,19
 336 217 336 217 328.5 223 c 128,-1,20
 321 229 321 229 303 235 c 0,21,22
 250 254 250 254 250 293 c 0,23,24
 250 319 250 319 270 335.5 c 128,-1,25
 290 352 290 352 324 352 c 0,26,27
 352 352 352 352 374 342 c 1,28,-1
 365 306 l 1,29,-1
 349 312 l 2,30,31
 337 316 337 316 323.5 316 c 128,-1,32
 310 316 310 316 302.5 310.5 c 128,-1,33
 295 305 295 305 295 296.5 c 128,-1,34
 295 288 295 288 304 282 c 0,35,36
 310 277 310 277 331 269 c 0,37,38
 356 259 356 259 368.5 245 c 128,-1,39
 381 231 381 231 381 211 c 0,40,41
 381 185 381 185 361 169 c 0,42,43
 340 151 340 151 302 151 c 0,44,45
 273 151 273 151 247 163 c 1,46,-1
 256 200 l 1,13,14
EndSplineSet
EndChar

StartChar: jshint
Encoding: 57401 57401 57
Width: 0
GlyphClass: 1
Flags: W
LayerCount: 2
Fore
SplineSet
113 387 m 1,0,-1
 386 387 l 1,1,-1
 386 114 l 1,2,-1
 113 114 l 1,3,-1
 113 387 l 1,0,-1
185 159 m 1,4,5
 196 135 196 135 223 135 c 0,6,7
 241 135 241 135 251.5 145 c 128,-1,8
 262 155 262 155 262 174 c 2,9,-1
 262 262 l 1,10,-1
 236 262 l 1,11,-1
 236 175 l 2,12,13
 236 166 236 166 232.5 162 c 128,-1,14
 229 158 229 158 222 158 c 0,15,16
 218 158 218 158 214.5 160 c 128,-1,17
 211 162 211 162 209.5 164.5 c 128,-1,18
 208 167 208 167 206 172 c 1,19,-1
 185 159 l 1,4,5
275 162 m 1,20,21
 289 135 289 135 322 135 c 0,22,23
 341 135 341 135 353 144.5 c 128,-1,24
 365 154 365 154 365 170 c 128,-1,25
 365 186 365 186 356.5 195 c 128,-1,26
 348 204 348 204 331 211 c 2,27,-1
 324 214 l 2,28,29
 315 218 315 218 312 221 c 128,-1,30
 309 224 309 224 309 229.5 c 128,-1,31
 309 235 309 235 312 238 c 128,-1,32
 315 241 315 241 321 241 c 0,33,34
 331 241 331 241 337 230 c 1,35,-1
 357 243 l 1,36,37
 345 263 345 263 321 263 c 0,38,39
 304 263 304 263 293.5 253.5 c 128,-1,40
 283 244 283 244 283 229.5 c 128,-1,41
 283 215 283 215 291 206 c 128,-1,42
 299 197 299 197 314 190 c 2,43,-1
 320 188 l 2,44,45
 328 185 328 185 331 183 c 128,-1,46
 334 181 334 181 336.5 178 c 128,-1,47
 339 175 339 175 339 170 c 128,-1,48
 339 165 339 165 334 161.5 c 128,-1,49
 329 158 329 158 322 158 c 0,50,51
 306 158 306 158 296 174 c 1,52,-1
 275 162 l 1,20,21
EndSplineSet
EndChar

StartChar: json
Encoding: 57402 57402 58
Width: 516
GlyphClass: 1
Flags: W
LayerCount: 2
Fore
SplineSet
120 258 m 1,0,1
 135 258 135 258 142 266 c 0,2,3
 147 271 147 271 147 281 c 2,4,-1
 143 333 l 2,5,6
 143 380 143 380 195 380 c 2,7,-1
 207 380 l 1,8,-1
 207 351 l 1,9,-1
 202 351 l 2,10,11
 190 351 190 351 186 344.5 c 128,-1,12
 182 338 182 338 182 326 c 2,13,-1
 185 283 l 2,14,15
 185 264 185 264 177.5 255.5 c 128,-1,16
 170 247 170 247 155 243 c 1,17,-1
 155 243 l 1,18,19
 170 239 170 239 177.5 230 c 128,-1,20
 185 221 185 221 185 203 c 2,21,-1
 182 161 l 2,22,23
 182 149 182 149 186 143 c 128,-1,24
 190 137 190 137 202 137 c 2,25,-1
 207 137 l 1,26,-1
 207 108 l 1,27,-1
 195 108 l 2,28,29
 145 108 145 108 145 154 c 0,30,31
 145 171 145 171 146.5 180 c 128,-1,32
 148 189 148 189 148 206 c 0,33,34
 148 229 148 229 122 229 c 1,35,-1
 120 258 l 1,0,1
382 232 m 1,36,37
 355 232 355 232 355 209 c 2,38,-1
 357 183 l 2,39,40
 358 174 358 174 358 157 c 0,41,42
 358 111 358 111 306 111 c 2,43,-1
 294 111 l 1,44,-1
 294 137 l 1,45,-1
 300 137 l 2,46,47
 311 137 311 137 315.5 143 c 128,-1,48
 320 149 320 149 320 161.5 c 128,-1,49
 320 174 320 174 318 180 c 2,50,-1
 317 203 l 2,51,52
 317 221 317 221 324 230 c 128,-1,53
 331 239 331 239 346 243 c 1,54,-1
 346 243 l 1,55,56
 331 247 331 247 324 255.5 c 128,-1,57
 317 264 317 264 317 283 c 2,58,-1
 318 306 l 2,59,60
 320 313 320 313 320 326 c 0,61,62
 320 349 320 349 300 351 c 2,63,-1
 294 351 l 1,64,-1
 294 380 l 1,65,-1
 306 380 l 2,66,67
 358 380 358 380 358 333 c 2,68,-1
 357 308 l 2,69,70
 355 298 355 298 355 281 c 0,71,72
 355 271 355 271 360 266 c 0,73,74
 365 258 365 258 382 258 c 1,75,-1
 382 232 l 1,36,37
EndSplineSet
EndChar

